<?xml version="1.0" standalone="no"?>
<!DOCTYPE svg PUBLIC "-//W3C//DTD SVG 20010904//EN"
 "http://www.w3.org/TR/2001/REC-SVG-20010904/DTD/svg10.dtd">
<svg version="1.0" xmlns="http://www.w3.org/2000/svg"
 width="600.000000pt" height="451.000000pt" viewBox="0 0 600.000000 451.000000"
 preserveAspectRatio="xMidYMid meet">

<g transform="translate(0.000000,451.000000) scale(0.100000,-0.100000)"
fill="#000000" stroke="none">
<path d="M2398 4084 c-4 -3 -52 -6 -108 -7 -84 -2 -104 -5 -114 -19 -7 -10
-28 -21 -47 -24 -19 -4 -47 -14 -64 -22 -16 -9 -38 -15 -47 -13 -10 1 -46 5
-80 9 l-63 7 -28 -38 c-15 -21 -39 -42 -53 -47 -13 -5 -27 -17 -30 -25 -4 -8
-14 -15 -24 -15 -10 0 -27 -8 -38 -17 -25 -22 -46 -92 -32 -108 12 -14 3 -25
-21 -25 -9 0 -19 -7 -23 -15 -3 -8 -12 -15 -21 -15 -28 0 -135 -78 -135 -98 0
-5 -14 -15 -32 -23 -17 -8 -39 -29 -49 -47 -9 -19 -24 -41 -33 -51 -9 -10 -16
-23 -16 -29 0 -7 -6 -12 -12 -12 -7 0 -28 -20 -46 -44 -29 -39 -31 -46 -21
-74 7 -22 7 -36 0 -51 -6 -11 -11 -46 -11 -79 0 -34 -7 -72 -15 -88 -8 -16
-15 -36 -15 -44 0 -9 -5 -21 -10 -26 -28 -28 6 -202 49 -246 29 -30 41 -47 41
-56 0 -5 7 -15 15 -22 8 -7 15 -19 15 -28 0 -35 41 -100 72 -113 17 -7 50 -32
74 -55 23 -23 56 -50 74 -59 36 -19 80 -13 80 10 0 12 21 14 123 13 134 -2
232 15 247 42 7 13 28 18 88 22 100 7 125 2 163 -33 17 -16 35 -29 40 -29 5 0
9 -9 9 -20 0 -18 7 -20 74 -20 66 0 78 -3 102 -25 29 -27 30 -35 19 -160 -4
-47 -13 -84 -21 -91 -25 -20 3 -80 68 -149 73 -78 98 -122 98 -173 0 -28 7
-45 25 -62 18 -17 25 -34 25 -62 0 -22 4 -47 9 -57 22 -41 21 -108 -4 -180
-14 -39 -25 -78 -25 -87 0 -9 -9 -18 -19 -21 -43 -11 -33 -168 14 -223 12 -14
25 -32 29 -40 3 -8 17 -33 30 -55 15 -25 23 -49 19 -62 -4 -18 -1 -23 15 -23
18 0 21 -9 27 -72 5 -64 38 -174 55 -188 3 -3 25 -34 49 -70 42 -63 49 -85 50
-163 1 -31 6 -40 29 -50 15 -6 32 -18 38 -26 9 -11 23 -12 70 -6 32 5 80 9
107 9 26 1 47 4 47 9 0 4 10 7 21 7 36 0 99 22 99 35 0 7 18 17 40 24 22 6 40
16 40 21 0 12 70 80 82 80 25 0 108 135 108 175 0 8 5 15 10 15 6 0 10 6 10
14 0 8 9 18 20 21 12 4 42 27 67 51 45 44 45 45 41 100 -3 30 -1 57 4 60 5 3
6 19 3 34 -5 21 -1 34 13 48 11 11 22 28 24 39 2 10 8 18 13 18 19 0 34 16 29
30 -4 10 7 18 41 26 30 8 49 18 52 30 5 18 31 29 71 29 12 0 22 4 22 10 0 5
11 25 24 44 26 39 26 52 0 206 -15 92 -22 171 -26 295 -2 72 1 87 30 148 17
37 38 67 46 67 23 0 76 50 76 71 0 10 9 24 20 31 11 7 20 18 20 24 0 21 29 69
42 70 24 2 48 16 48 28 0 7 16 18 35 25 19 7 35 18 35 26 0 7 7 15 15 19 8 3
20 16 25 28 12 28 27 53 61 98 14 19 29 47 33 63 3 15 18 52 31 82 14 29 25
69 25 87 0 18 4 39 8 46 5 7 6 26 4 42 -3 23 -7 28 -17 20 -6 -5 -14 -8 -16
-5 -8 7 -130 -24 -143 -38 -7 -6 -27 -11 -44 -11 -18 1 -47 2 -66 3 -42 1 -86
40 -86 76 0 14 -7 28 -15 32 -9 3 -22 18 -31 34 -8 16 -20 29 -28 29 -19 0
-101 79 -101 98 0 9 -9 18 -20 20 -22 4 -65 63 -65 89 0 9 -18 31 -40 50 -23
20 -40 43 -40 55 0 12 -10 47 -21 79 -16 44 -30 63 -55 78 -19 11 -34 26 -34
33 0 6 -10 28 -23 47 -13 20 -41 65 -62 101 -21 36 -47 75 -59 88 -11 13 -21
35 -22 50 -1 15 -3 32 -3 37 -1 6 -6 3 -11 -5 -8 -12 -10 -9 -10 12 0 36 -51
74 -79 58 -25 -13 -124 -13 -137 0 -5 5 -47 12 -92 16 -51 4 -78 10 -70 15 8
6 1 9 -21 9 -19 0 -39 7 -45 16 -17 23 -83 9 -92 -20 -20 -65 -76 -81 -177
-50 -74 23 -91 32 -102 57 -8 18 -19 22 -67 25 -32 2 -58 7 -58 12 0 6 -9 10
-19 10 -21 0 -81 31 -81 41 0 4 6 12 14 19 8 6 12 18 9 26 -3 8 1 14 8 14 10
0 10 3 1 12 -7 7 -12 22 -12 34 0 12 -7 25 -16 28 -20 8 -139 8 -146 0z m1587
-1114 c3 -5 1 -10 -4 -10 -6 0 -11 5 -11 10 0 6 2 10 4 10 3 0 8 -4 11 -10z
m395 -234 c0 -8 -4 -18 -10 -21 -5 -3 -10 3 -10 14 0 12 5 21 10 21 6 0 10 -6
10 -14z m-1610 -1336 c0 -5 -4 -10 -10 -10 -5 0 -10 5 -10 10 0 6 5 10 10 10
6 0 10 -4 10 -10z m1225 -40 c3 -5 -1 -10 -9 -10 -9 0 -16 5 -16 10 0 6 4 10
9 10 6 0 13 -4 16 -10z"/>
<path d="M4495 1466 c-5 -10 -19 -30 -31 -44 -13 -14 -24 -31 -24 -38 0 -7
-17 -26 -37 -41 -21 -15 -41 -32 -44 -36 -3 -5 -15 -8 -25 -7 -58 6 -73 -18
-68 -110 2 -57 -12 -97 -49 -137 -17 -19 -20 -37 -21 -107 -1 -82 0 -84 27
-100 26 -14 31 -14 58 -1 18 10 29 23 29 36 0 11 7 27 15 35 8 9 15 24 15 35
0 10 4 19 9 19 4 0 14 20 21 45 7 25 16 45 21 45 5 0 11 11 15 25 3 14 10 25
15 25 5 0 9 11 9 25 0 14 4 25 10 25 5 0 13 12 16 28 4 15 13 36 20 47 8 11
14 25 14 32 0 7 9 22 20 33 24 24 26 95 5 150 -11 30 -14 32 -20 16z"/>
<path d="M2650 1425 c0 -8 2 -15 4 -15 2 0 6 7 10 15 3 8 1 15 -4 15 -6 0 -10
-7 -10 -15z"/>
</g>
</svg>
