<?xml version="1.0" standalone="no"?>
<!DOCTYPE svg PUBLIC "-//W3C//DTD SVG 20010904//EN"
 "http://www.w3.org/TR/2001/REC-SVG-20010904/DTD/svg10.dtd">
<svg version="1.0" xmlns="http://www.w3.org/2000/svg"
 width="600.000000pt" height="451.000000pt" viewBox="0 0 600.000000 451.000000"
 preserveAspectRatio="xMidYMid meet">

<g transform="translate(0.000000,451.000000) scale(0.100000,-0.100000)"
fill="#000000" stroke="none">
<path d="M3560 4186 c-26 -7 -57 -20 -70 -28 -14 -9 -63 -21 -110 -27 -131
-17 -147 -54 -40 -92 48 -17 60 -18 95 -7 22 7 45 18 50 25 8 11 245 73 277
73 5 0 4 -9 -2 -20 -9 -17 -21 -20 -70 -20 -78 0 -82 -22 -7 -39 69 -15 111
-57 133 -131 16 -53 15 -55 -5 -71 -12 -10 -30 -14 -47 -11 l-27 5 7 -49 c10
-68 43 -132 80 -155 l31 -19 30 34 c17 19 39 49 50 67 16 26 33 38 75 52 30 9
60 24 66 32 14 19 45 29 134 44 109 18 124 27 128 81 4 55 16 70 54 70 42 0
68 17 68 44 0 22 42 68 70 78 6 2 8 11 5 20 -6 16 -54 30 -90 26 -11 -1 -96
-1 -190 -1 -93 1 -224 2 -290 2 -103 0 -191 7 -330 26 -16 2 -50 -2 -75 -9z"/>
<path d="M2571 3966 c-17 -11 -31 -24 -31 -28 0 -9 61 -29 71 -22 5 3 9 -6 9
-19 0 -39 18 -46 115 -42 128 4 147 12 150 59 2 36 1 37 -24 30 -92 -24 -112
-22 -156 16 -33 29 -98 32 -134 6z"/>
<path d="M3200 3945 c-20 -21 -21 -27 -9 -42 7 -10 15 -20 16 -22 2 -2 11 4
22 13 18 16 23 16 74 1 50 -14 57 -20 71 -57 19 -45 13 -59 -33 -81 -38 -18
-32 -37 18 -64 55 -29 107 -32 96 -5 -12 32 -10 37 18 34 31 -3 32 -1 12 39
-16 29 -16 30 10 23 23 -6 25 -3 25 24 0 16 -7 35 -15 42 -8 7 -19 26 -23 43
-6 23 -16 33 -37 39 -17 4 -44 15 -62 25 -27 14 -39 15 -80 6 -29 -7 -52 -8
-57 -2 -15 13 -20 12 -46 -16z"/>
<path d="M3038 3913 c-9 -2 -28 -24 -43 -48 -33 -58 -55 -69 -92 -50 -17 9
-56 15 -101 15 -58 0 -75 -4 -88 -19 -15 -17 -19 -17 -43 -5 -14 8 -36 14 -49
14 -12 0 -25 7 -28 15 -4 9 -19 15 -38 15 -17 0 -67 5 -112 11 -69 10 -92 9
-160 -6 -145 -32 -147 -32 -175 10 l-24 37 -90 -6 c-176 -11 -300 -31 -367
-57 -31 -13 -34 -19 -16 -37 21 -21 -5 -35 -46 -24 -29 8 -40 7 -57 -7 -20
-16 -20 -18 -4 -31 14 -11 20 -11 37 -1 28 17 36 5 12 -19 -11 -10 -36 -20
-59 -21 -50 -3 -71 -13 -91 -44 -18 -28 -7 -60 25 -70 12 -3 18 -12 15 -20 -8
-19 110 17 138 42 15 14 21 14 27 4 7 -10 14 -10 39 3 17 9 44 16 59 16 46 -1
157 -28 161 -39 2 -6 10 -11 17 -11 26 0 36 -39 33 -123 -2 -45 1 -101 5 -124
7 -35 6 -43 -6 -43 -9 0 -20 -15 -26 -33 -10 -29 -47 -85 -111 -169 -40 -53
-22 -190 32 -232 28 -22 32 -32 39 -95 8 -73 40 -161 59 -161 13 0 6 33 -22
112 -11 32 -17 66 -13 75 6 16 8 16 26 -6 10 -13 19 -33 20 -45 0 -20 9 -38
86 -183 18 -34 31 -74 31 -92 -1 -17 1 -33 3 -35 2 -2 31 -21 64 -44 68 -45
116 -61 163 -54 24 3 39 -1 55 -16 29 -26 81 -52 106 -52 23 0 71 -54 71 -79
0 -21 33 -52 79 -75 46 -22 52 -12 13 24 -35 32 -36 34 -36 135 l-1 70 -52 3
-52 3 25 67 c13 36 22 72 20 79 -3 7 -19 13 -36 13 -24 0 -32 -6 -44 -34 -26
-64 -97 -76 -147 -27 -36 36 -37 61 -4 165 23 73 30 84 68 108 45 28 117 47
117 30 0 -5 12 -12 26 -15 19 -3 29 2 41 19 19 29 56 31 99 5 25 -15 33 -28
38 -64 4 -24 13 -52 20 -62 13 -17 14 -17 30 7 13 20 15 36 7 89 -6 43 -5 68
2 77 6 7 48 40 94 73 45 33 83 66 83 72 0 7 29 42 65 80 46 47 72 67 90 67 14
0 25 6 25 13 0 26 61 73 127 98 23 8 26 8 16 -2 -13 -13 -18 -59 -7 -59 4 0
22 14 41 30 18 17 44 30 56 30 30 0 62 24 53 39 -5 8 -13 8 -26 1 -23 -13 -50
-13 -70 0 -13 8 -12 12 8 25 38 28 27 38 -33 30 -36 -4 -55 -3 -55 4 0 21 75
42 169 48 93 6 96 7 136 44 34 32 38 41 29 56 -7 10 -18 17 -26 16 -23 -5 -51
61 -45 107 3 22 1 43 -4 46 -5 3 -30 -6 -55 -20 -52 -29 -64 -27 -64 13 0 34
-12 45 -65 60 -38 10 -41 9 -75 -23 -19 -18 -41 -31 -47 -29 -10 3 -13 -13
-13 -61 0 -51 -3 -66 -15 -66 -8 0 -30 -7 -48 -16 -26 -12 -38 -27 -46 -55
-12 -41 -20 -45 -52 -29 -21 12 -25 41 -9 70 9 17 4 20 -47 30 -76 16 -113 44
-113 86 0 27 8 39 44 67 24 18 76 44 116 58 62 21 72 28 77 52 5 25 7 26 22
13 14 -13 19 -12 39 5 13 10 43 24 65 30 51 13 67 26 67 50 0 22 -4 23 -33 7
-12 -7 -37 -18 -54 -24 -29 -10 -33 -10 -33 6 0 10 -7 20 -15 24 -8 3 -15 17
-15 31 0 25 -2 26 -32 18z"/>
<path d="M2820 2205 c0 -9 -8 -18 -17 -22 -10 -3 -35 -23 -55 -44 -38 -39 -48
-75 -27 -96 18 -18 -5 -67 -88 -195 -23 -34 -24 -38 -9 -61 15 -22 15 -26 1
-37 -23 -19 -18 -53 13 -92 15 -19 45 -73 66 -119 32 -71 48 -93 101 -139 36
-30 77 -60 93 -67 16 -7 33 -20 37 -30 4 -10 9 -79 10 -153 4 -218 26 -480 42
-496 8 -7 25 -39 39 -70 23 -52 24 -58 9 -80 -15 -23 -14 -28 25 -93 40 -70
88 -111 128 -111 18 0 21 4 16 28 -3 15 1 42 9 60 18 44 11 92 -14 92 -23 0
-24 18 -4 44 8 11 15 29 15 41 0 12 -7 30 -15 41 -21 28 -18 34 15 28 21 -5
30 -3 31 7 1 8 2 25 2 39 2 21 6 25 32 23 24 -2 35 4 58 35 l28 37 -35 28
c-46 37 -46 50 -1 31 42 -17 67 -8 89 35 8 15 22 33 30 40 9 8 16 23 16 35 0
11 11 43 24 70 17 34 23 58 19 82 l-5 33 68 21 c38 11 74 24 81 28 22 14 51
99 58 168 11 106 32 177 70 234 20 29 35 64 35 81 0 25 -9 34 -77 74 -65 37
-86 45 -129 45 -41 0 -55 5 -74 25 -13 14 -34 25 -46 25 -13 0 -26 5 -30 11
-4 7 -20 8 -43 4 -35 -7 -35 -6 -18 12 21 24 21 40 2 85 -15 39 -53 68 -85 68
-12 0 -42 20 -68 44 -26 24 -58 47 -72 51 -34 11 -69 37 -70 53 0 8 -17 12
-53 12 -33 0 -69 8 -95 20 -50 24 -52 24 -52 3 -1 -10 -7 -29 -15 -43 -14 -25
-14 -25 -15 -2 0 25 -27 72 -41 72 -5 0 -9 -7 -9 -15z"/>
</g>
</svg>
