<?xml version="1.0" standalone="no"?>
<!DOCTYPE svg PUBLIC "-//W3C//DTD SVG 20010904//EN"
 "http://www.w3.org/TR/2001/REC-SVG-20010904/DTD/svg10.dtd">
<svg version="1.0" xmlns="http://www.w3.org/2000/svg"
 width="600.000000pt" height="451.000000pt" viewBox="0 0 600.000000 451.000000"
 preserveAspectRatio="xMidYMid meet">

<g transform="translate(0.000000,451.000000) scale(0.100000,-0.100000)"
fill="#000000" stroke="none">
<path d="M4930 4300 c-25 -26 -46 -52 -46 -58 -1 -7 -2 -23 -3 -36 -1 -18 -8
-26 -28 -31 -16 -4 -43 -26 -63 -50 -19 -24 -42 -46 -50 -49 -17 -7 -83 -68
-116 -108 -12 -14 -25 -41 -29 -59 -8 -43 -26 -82 -43 -92 -24 -16 21 -48 56
-41 17 3 32 1 36 -5 8 -12 -44 -41 -74 -41 -16 0 -20 -6 -20 -30 0 -17 -9 -39
-20 -50 -11 -11 -22 -31 -26 -45 -3 -14 -10 -28 -16 -31 -5 -3 -6 -14 -3 -24
8 -25 -30 -37 -51 -16 -18 19 -22 19 -62 5 -33 -11 -72 -63 -72 -95 -1 -28
-24 -54 -49 -54 -12 0 -30 -6 -41 -12 -17 -11 -22 -10 -30 2 -8 12 -13 12 -44
-3 -20 -9 -36 -23 -36 -32 0 -8 -6 -15 -14 -15 -8 0 -35 -16 -60 -35 -26 -19
-50 -35 -54 -35 -4 0 -8 -18 -9 -40 -1 -22 3 -40 8 -40 6 0 18 -7 26 -16 13
-13 14 -17 3 -24 -7 -4 -10 -15 -7 -23 4 -12 -2 -17 -26 -19 -24 -2 -33 -8
-35 -25 -4 -26 -27 -36 -53 -23 -24 14 -25 -4 -3 -50 13 -24 14 -34 5 -40 -19
-11 -62 1 -69 19 -8 22 -72 86 -100 101 -21 10 -27 9 -44 -10 -12 -13 -28 -20
-39 -17 -29 8 -44 -18 -27 -46 14 -20 14 -24 -6 -38 -11 -9 -36 -19 -53 -22
-26 -5 -33 -3 -33 10 0 21 -54 11 -93 -18 -27 -20 -29 -20 -48 -3 -16 15 -19
15 -19 2 0 -12 -9 -15 -32 -13 -46 4 -46 3 -19 25 13 11 20 20 17 20 -4 0 1
13 10 29 17 29 17 31 -2 66 -17 33 -54 66 -54 49 0 -3 -6 -2 -12 3 -7 6 -44 9
-82 7 -52 -2 -66 0 -57 9 14 14 14 24 -1 24 -7 0 -20 4 -28 7 -21 9 -64 -66
-55 -94 5 -16 2 -20 -14 -20 -12 0 -21 -6 -21 -14 0 -22 -24 -38 -38 -24 -10
10 -20 8 -47 -6 -19 -11 -35 -25 -35 -32 0 -7 -17 -18 -37 -24 -47 -16 -75
-39 -68 -58 3 -10 0 -12 -10 -8 -16 6 -20 -5 -6 -19 4 -6 11 -23 14 -40 l5
-30 -61 -2 c-103 -4 -107 -7 -107 -59 0 -37 4 -47 19 -51 23 -6 36 -43 16 -43
-8 0 -20 9 -27 19 -8 10 -30 29 -49 40 -31 18 -38 19 -48 8 -9 -11 -8 -17 4
-27 8 -7 15 -17 15 -23 0 -7 -4 -7 -12 1 -7 7 -18 12 -25 12 -17 0 -17 -42 0
-59 10 -10 9 -11 -4 -6 -20 7 -32 55 -18 70 12 12 12 65 0 65 -5 0 -11 -14
-15 -30 -3 -20 -14 -34 -30 -40 -34 -13 -38 -24 -26 -70 8 -32 8 -44 -4 -62
-8 -13 -16 -39 -18 -58 -3 -34 -2 -35 34 -35 21 -1 40 -4 44 -8 4 -4 -7 -7
-24 -7 -35 0 -54 -24 -46 -58 7 -26 -29 -76 -76 -105 -35 -22 -76 -24 -95 -5
-7 6 -1 7 18 3 23 -6 34 -1 72 38 25 24 45 53 45 64 0 10 5 24 11 30 8 8 7 16
-2 30 -10 16 -9 34 6 92 9 39 15 81 12 93 -3 12 3 38 14 61 26 51 19 82 -22
96 -18 6 -33 11 -35 11 -2 0 -19 -25 -39 -55 -20 -31 -47 -60 -61 -65 -20 -8
-25 -15 -21 -32 4 -12 -1 -37 -10 -55 -13 -27 -13 -36 -2 -49 7 -8 13 -25 14
-37 1 -12 4 -28 6 -36 6 -22 -25 -24 -36 -3 -25 48 -87 119 -117 135 -20 11
-40 34 -52 58 -16 36 -20 39 -33 26 -13 -12 -12 -19 1 -52 22 -52 21 -88 -2
-83 -9 2 -16 11 -16 21 2 20 0 20 -45 7 -23 -6 -39 -6 -47 1 -7 6 -23 10 -36
9 -13 -1 -28 -2 -35 -1 -17 1 -4 31 13 31 8 0 14 5 14 10 0 7 -39 10 -112 7
-90 -2 -119 -7 -142 -22 -34 -22 -57 -12 -62 27 -3 30 18 43 46 28 15 -8 20
-6 24 8 9 33 1 60 -26 82 l-28 21 0 -25 c0 -17 -10 -33 -30 -48 -17 -12 -30
-31 -30 -41 0 -11 -10 -28 -22 -38 -25 -22 -29 -23 -22 -6 8 21 -31 51 -52 39
-9 -5 -25 -7 -35 -5 -37 10 -67 -6 -74 -37 -4 -16 -12 -30 -19 -30 -15 0 -36
42 -36 70 0 26 -15 33 -41 20 -17 -10 -20 -18 -14 -46 4 -26 2 -34 -8 -34 -8
0 -18 8 -22 18 -12 28 -16 92 -6 92 5 0 12 9 16 19 3 11 15 23 26 26 15 5 19
16 19 57 0 44 2 49 15 38 8 -7 15 -20 15 -29 0 -25 56 -108 85 -127 22 -14 32
-15 65 -5 57 17 77 51 62 105 -6 23 -14 66 -18 96 -4 36 -15 65 -31 84 -18 21
-23 36 -18 54 4 18 0 30 -15 44 -11 10 -25 16 -30 13 -5 -3 -23 1 -41 10 -27
14 -33 15 -47 2 -10 -8 -25 -17 -34 -20 -13 -5 -18 -17 -18 -42 0 -25 -5 -37
-17 -41 -44 -13 -68 -32 -76 -59 -8 -28 -64 -75 -88 -75 -6 0 -7 -9 -4 -20 4
-14 1 -22 -10 -26 -9 -4 -14 -12 -11 -20 3 -8 -4 -14 -17 -16 -18 -2 -22 -9
-22 -43 0 -51 -25 -65 -121 -65 -106 0 -133 -7 -126 -34 3 -11 12 -31 20 -43
18 -28 9 -30 -18 -3 -34 34 -73 22 -142 -42 -7 -7 -20 -14 -28 -16 -22 -5 -69
-55 -70 -73 0 -9 -7 -22 -15 -29 -19 -16 -19 -34 -1 -50 8 -6 12 -18 9 -26 -3
-7 2 -17 11 -20 22 -9 20 -24 -9 -54 -26 -27 -47 -106 -38 -141 4 -14 0 -19
-15 -19 -11 0 -22 7 -26 15 -9 25 -30 17 -55 -20 -27 -39 -24 -45 30 -74 40
-22 42 -55 7 -83 -21 -16 -22 -17 -5 -36 21 -23 22 -41 1 -56 -14 -11 -14 -15
3 -47 11 -19 29 -35 41 -37 18 -3 21 -8 16 -27 -4 -14 0 -26 8 -32 8 -4 23
-22 33 -39 l18 -32 -51 -51 c-38 -38 -53 -47 -61 -38 -13 16 -58 15 -74 -2 -9
-10 -8 -15 7 -27 27 -19 1 -19 -36 0 -24 13 -28 13 -29 0 -3 -29 -4 -34 -9
-31 -3 1 -18 -6 -32 -15 -29 -19 -58 -15 -58 9 0 8 -6 13 -12 10 -18 -6 -11
-74 13 -144 10 -31 19 -66 19 -79 0 -14 8 -25 20 -29 11 -4 27 -20 35 -36 9
-16 31 -43 50 -61 20 -17 39 -45 43 -62 5 -21 18 -36 40 -46 29 -14 58 -62 47
-80 -3 -4 4 -19 15 -32 10 -14 22 -38 26 -54 10 -41 22 -54 53 -54 46 0 53 12
46 73 -6 50 -5 58 17 82 21 23 24 32 18 66 -7 37 -6 39 32 59 29 15 54 19 98
18 65 -3 101 14 68 33 -10 6 -18 15 -18 20 0 6 5 7 10 4 6 -4 10 13 10 44 0
36 -5 53 -16 59 -9 5 -18 25 -20 44 -2 29 1 37 22 46 16 8 24 20 24 36 0 17 7
26 24 30 13 3 31 9 40 12 12 5 16 0 16 -19 0 -35 23 -52 44 -32 8 9 13 22 10
30 -5 11 1 15 18 15 14 0 27 3 31 6 3 3 28 7 56 9 41 3 51 1 51 -12 0 -11 7
-14 25 -11 19 4 25 1 25 -13 0 -10 9 -21 21 -24 21 -7 43 -50 35 -71 -3 -7 1
-17 8 -24 10 -8 16 -6 21 7 7 16 9 15 14 -7 6 -22 12 -25 54 -25 29 0 51 -5
56 -14 5 -8 16 -11 30 -6 14 4 21 2 21 -7 0 -22 25 -51 46 -53 10 -1 29 -7 41
-13 29 -16 48 -15 67 3 13 14 12 19 -10 53 l-25 37 31 8 c26 6 31 12 27 28 -7
25 17 36 38 19 19 -16 30 -7 20 17 -4 10 -9 31 -11 46 -4 26 -2 27 18 16 21
-11 124 -23 178 -21 14 1 49 1 78 1 29 0 69 5 89 12 25 8 38 8 46 0 6 -6 22
-11 35 -11 22 0 24 -3 20 -47 -3 -46 -2 -48 25 -51 15 -2 27 -7 27 -12 0 -4
11 -11 24 -14 18 -4 23 -11 19 -26 -5 -19 -2 -20 48 -15 29 3 60 12 69 20 21
19 40 19 40 0 0 -8 11 -25 24 -38 32 -33 72 -111 92 -186 18 -62 41 -81 51
-41 7 27 17 25 38 -6 14 -21 22 -25 46 -20 96 20 88 21 100 -13 6 -17 17 -31
25 -31 7 0 21 -14 30 -31 14 -28 19 -31 51 -26 26 5 43 1 62 -13 27 -18 27
-18 84 8 31 14 57 32 57 39 0 7 5 13 10 13 6 0 34 16 63 35 50 34 85 46 72 25
-8 -13 8 -13 40 2 23 10 29 9 49 -13 20 -22 33 -26 89 -27 63 -2 67 -1 87 28
20 29 21 32 6 55 -20 31 -21 69 -1 85 8 7 15 19 15 27 0 8 4 12 9 8 6 -3 42
-9 81 -14 65 -8 74 -13 103 -46 38 -43 81 -49 121 -17 33 26 101 38 121 22 8
-6 23 -9 33 -6 10 4 31 0 46 -8 18 -9 37 -11 54 -7 15 5 32 6 39 4 6 -2 14 1
18 6 3 6 17 11 30 11 12 0 25 7 29 15 3 8 21 22 40 32 22 10 37 26 41 42 11
45 44 72 80 65 22 -4 35 -1 45 10 10 13 23 15 60 10 43 -6 49 -4 60 16 6 12
21 31 32 42 18 18 18 21 4 37 -12 13 -16 38 -16 90 0 76 -11 111 -35 111 -8 0
-15 6 -15 13 1 13 55 77 67 77 4 0 17 9 29 21 17 16 36 20 94 22 51 1 75 -2
77 -10 3 -7 9 -13 14 -13 9 0 89 -58 114 -83 7 -8 28 -20 45 -27 26 -11 36
-11 53 -1 11 7 46 15 76 18 51 5 59 3 81 -21 14 -14 33 -26 44 -26 18 0 66 43
66 60 0 4 11 31 25 59 l25 50 23 -22 c13 -12 21 -30 19 -40 -3 -9 7 -32 22
-51 15 -20 26 -48 26 -65 0 -16 5 -33 10 -36 22 -14 10 -45 -19 -51 -24 -5
-30 -12 -34 -41 -5 -30 -2 -39 21 -58 15 -13 36 -39 46 -59 19 -35 19 -37 1
-50 -18 -13 -18 -14 2 -20 36 -11 52 2 50 42 -2 31 1 37 18 37 34 1 59 15 84
46 20 26 24 43 26 112 2 109 -11 240 -31 302 -29 92 -34 111 -34 137 0 32 -38
88 -95 142 -56 52 -89 130 -46 106 11 -5 28 -10 38 -10 10 0 61 -43 113 -95
52 -52 100 -95 107 -95 15 0 106 -87 122 -117 12 -23 69 -59 78 -49 3 3 -4 20
-16 39 l-21 34 25 11 c15 7 27 8 30 2 8 -13 25 -13 25 0 0 19 -51 63 -61 53
-6 -6 -25 -6 -53 1 -44 12 -75 40 -112 104 -19 33 -19 34 0 48 11 8 33 14 49
14 40 0 30 23 -14 31 -19 3 -79 29 -134 57 -56 29 -107 52 -114 52 -16 0 -42
26 -34 34 11 11 -19 36 -44 36 -13 0 -22 4 -18 9 3 5 -11 15 -31 21 -19 7 -38
18 -41 26 -7 19 -39 18 -47 -2 -9 -23 -8 -24 13 -24 29 0 47 -26 30 -46 -11
-14 -10 -18 5 -30 10 -7 22 -15 26 -16 4 -2 11 -14 15 -28 l7 -25 -25 27 c-20
23 -33 28 -80 29 -76 3 -97 -15 -90 -74 l6 -42 -22 28 c-28 34 -45 35 -38 2 4
-25 4 -25 -14 -9 -18 16 -20 16 -37 1 -10 -10 -27 -17 -36 -17 -14 0 -17 5
-12 23 10 32 13 150 5 162 -4 6 -9 46 -12 90 -2 44 -7 110 -11 146 -6 61 -4
68 24 111 24 37 35 45 52 40 18 -4 20 -2 14 13 -5 14 3 27 29 51 33 29 35 35
25 55 -10 18 -10 23 3 31 9 5 23 15 31 23 16 17 41 20 31 5 -3 -5 4 -10 15
-10 13 0 24 8 27 20 3 11 10 20 15 20 6 0 7 7 4 16 -3 9 3 27 14 41 11 14 20
30 20 34 0 13 -38 11 -46 -2 -7 -12 -44 37 -44 58 0 19 -34 93 -42 93 -12 0
-9 58 3 65 6 4 8 13 5 21 -3 8 1 14 9 14 8 0 15 7 15 15 0 19 17 19 28 0 4 -9
20 -18 35 -21 21 -3 27 0 27 14 0 10 -4 22 -9 27 -14 15 -31 85 -20 85 5 0 9
5 9 10 0 6 -7 10 -15 10 -26 0 -56 35 -49 55 6 16 8 15 19 -5 6 -12 29 -32 51
-44 30 -16 40 -28 42 -51 3 -34 37 -111 102 -227 19 -35 22 -69 7 -84 -12 -12
-8 -22 12 -29 10 -3 24 -19 31 -35 25 -61 138 -130 304 -186 38 -13 74 -28 80
-32 17 -14 66 -24 66 -14 0 29 -36 103 -65 134 -35 37 -44 65 -25 84 7 7 -1
14 -23 23 -36 15 -65 67 -47 85 20 20 11 45 -17 52 -53 11 -58 14 -71 35 -11
18 -11 23 5 34 28 21 2 40 -52 37 -36 -1 -45 2 -50 18 -8 26 -35 26 -42 0 -7
-28 -23 -21 -54 25 -14 21 -38 44 -52 52 -31 16 -33 25 -11 48 14 13 15 21 5
41 -14 33 -14 33 9 27 21 -6 27 6 11 22 -9 10 -15 53 -13 88 1 11 17 24 38 33
l36 15 -21 20 c-11 11 -24 32 -27 47 -4 15 -17 43 -29 62 -12 19 -32 68 -44
108 -22 73 -22 74 -3 106 25 42 9 59 -45 51 -21 -3 -56 -7 -78 -9 -21 -2 -41
-9 -43 -15 -7 -22 -18 -10 -15 17 6 38 -57 113 -80 94 -12 -10 -16 -10 -21 3
-3 9 -2 14 3 10 17 -10 62 14 60 32 -4 45 1 55 24 50 18 -5 28 3 54 41 48 70
35 94 -49 93 -11 0 -18 8 -18 19 0 10 -7 25 -15 34 -8 8 -15 19 -15 25 0 23
-17 14 -60 -29z m-3 -116 c-3 -3 -12 -4 -19 -1 -8 3 -5 6 6 6 11 1 17 -2 13
-5z m-1629 -1302 c-9 -2 -19 -14 -22 -28 -4 -13 -13 -24 -21 -24 -12 0 -12 5
3 33 13 26 22 33 37 28 16 -4 17 -6 3 -9z m-628 -297 c0 -8 -4 -15 -10 -15 -5
0 -10 7 -10 15 0 8 5 15 10 15 6 0 10 -7 10 -15z m2 -67 c-6 -6 -7 0 -4 19 5
21 7 23 10 9 2 -10 0 -22 -6 -28z m-172 -131 c0 -18 -2 -19 -10 -7 -13 20 -13
43 0 35 6 -3 10 -16 10 -28z m-13 -69 c-3 -7 -5 -2 -5 12 0 14 2 19 5 13 2 -7
2 -19 0 -25z"/>
<path d="M3793 3443 c-13 -2 -23 -11 -23 -18 0 -7 -10 -15 -22 -17 -53 -7 -22
-90 39 -103 28 -6 34 -3 47 22 8 15 24 36 36 46 14 12 20 27 18 45 -3 23 -8
27 -38 28 -19 1 -45 0 -57 -3z"/>
<path d="M2866 3405 c-3 -9 -10 -14 -14 -11 -5 3 -14 -11 -20 -31 -9 -29 -9
-39 1 -45 8 -5 7 -8 -4 -8 -12 0 -16 -8 -15 -25 1 -19 5 -23 19 -19 10 3 17 0
17 -7 0 -7 3 -10 6 -6 4 3 14 -3 23 -15 12 -14 30 -21 57 -22 38 -1 39 0 40
34 2 45 -11 70 -37 70 -17 0 -20 5 -15 23 7 31 -47 89 -58 62z"/>
<path d="M3920 3330 c-8 -5 -23 -7 -32 -4 -13 4 -18 0 -18 -15 0 -14 6 -21 20
-21 13 0 20 -7 20 -20 0 -26 2 -25 51 7 32 21 37 29 27 39 -20 18 -51 25 -68
14z"/>
<path d="M3001 3281 c-8 -6 -12 -19 -9 -35 3 -15 1 -29 -3 -32 -15 -9 -10 -54
5 -54 25 0 96 53 96 71 0 10 -13 23 -30 31 -16 7 -30 16 -30 20 0 10 -12 10
-29 -1z"/>
<path d="M2345 3089 c-4 -5 -32 -10 -63 -9 -78 2 -102 -2 -140 -23 -18 -10
-37 -15 -42 -12 -6 3 -10 0 -10 -8 0 -17 -38 -53 -67 -62 -13 -3 -23 -14 -23
-25 0 -12 -10 -20 -35 -24 -24 -5 -35 -12 -35 -24 0 -23 -19 -42 -35 -35 -8 2
-19 -6 -26 -18 -10 -20 -9 -25 10 -41 13 -9 20 -22 16 -28 -14 -23 5 -56 38
-68 18 -7 36 -12 40 -12 4 0 4 27 1 59 l-7 59 44 44 c50 49 133 108 154 108 8
0 17 5 20 11 10 15 54 30 102 35 77 8 136 45 117 75 -7 12 -51 11 -59 -2z"/>
</g>
</svg>
