<?xml version="1.0" standalone="no"?>
<!DOCTYPE svg PUBLIC "-//W3C//DTD SVG 20010904//EN"
 "http://www.w3.org/TR/2001/REC-SVG-20010904/DTD/svg10.dtd">
<svg version="1.0" xmlns="http://www.w3.org/2000/svg"
 width="600.000000pt" height="451.000000pt" viewBox="0 0 600.000000 451.000000"
 preserveAspectRatio="xMidYMid meet">

<g transform="translate(0.000000,451.000000) scale(0.100000,-0.100000)"
fill="#000000" stroke="none">
<path d="M1682 4392 c-38 -11 -30 -27 16 -30 23 -2 40 -7 37 -13 -4 -5 0 -9 7
-9 7 -1 54 -7 103 -14 50 -8 94 -12 98 -9 16 10 -27 44 -53 42 -31 -3 -69 9
-88 27 -14 14 -79 17 -120 6z"/>
<path d="M1997 4334 c-4 -4 -7 -15 -7 -25 0 -15 8 -17 63 -15 79 4 79 4 73 15
-3 5 -27 12 -52 16 -26 3 -52 9 -58 11 -7 3 -15 1 -19 -2z"/>
<path d="M2107 4274 c-4 -4 -7 -16 -7 -26 0 -11 -5 -16 -10 -13 -6 4 -17 2
-24 -5 -13 -10 -100 -15 -141 -7 -11 3 -24 1 -30 -3 -5 -4 -32 -10 -60 -13
-27 -3 -63 -11 -80 -17 l-30 -12 34 -17 34 -18 -63 -6 c-35 -4 -78 -7 -96 -7
-19 0 -34 -3 -34 -6 0 -12 35 -33 55 -34 11 0 31 -7 45 -16 24 -14 22 -14 -30
-9 -30 4 -70 10 -87 15 -20 5 -33 5 -33 -1 0 -5 -9 -9 -20 -9 -14 0 -18 -5
-13 -16 10 -26 -30 -13 -42 14 -11 26 -14 26 -40 6 -20 -15 -20 -16 8 -38 15
-12 27 -26 27 -32 0 -6 11 -21 25 -34 20 -19 31 -22 63 -16 49 7 96 -8 117
-40 8 -13 11 -24 6 -24 -6 0 -15 9 -20 19 -13 24 -60 40 -94 34 -25 -5 -39
-23 -17 -23 6 0 10 -12 10 -28 0 -21 -7 -30 -31 -41 -37 -16 -45 -10 -25 21
18 27 11 65 -13 73 -9 3 -34 27 -54 55 -21 27 -42 50 -47 50 -6 0 -10 9 -10
19 0 22 -17 29 -75 31 -61 3 -65 2 -58 -16 4 -10 -1 -22 -12 -30 -16 -12 -16
-14 -1 -29 9 -9 16 -23 16 -31 0 -8 4 -14 10 -14 22 0 90 -35 86 -45 -2 -5
-10 -8 -17 -6 -84 22 -100 22 -80 -3 16 -20 9 -30 -39 -57 -22 -13 -40 -26
-40 -29 0 -3 9 -24 19 -46 21 -43 71 -224 71 -256 0 -12 12 -36 26 -55 34 -44
29 -74 -14 -85 -43 -11 -50 -33 -22 -64 29 -29 68 -31 103 -4 32 25 42 13 50
-60 5 -42 3 -61 -9 -78 -20 -28 -40 -28 -111 3 -71 32 -108 30 -108 -5 0 -26
-23 -37 -83 -39 -26 -1 -37 -8 -54 -37 -18 -31 -24 -34 -49 -29 -25 6 -29 3
-29 -14 0 -11 9 -29 21 -39 11 -11 22 -34 24 -52 5 -40 12 -47 27 -32 7 7 22
12 34 12 12 0 27 7 34 15 9 11 17 12 30 5 10 -6 29 -9 42 -7 19 2 24 -3 26
-30 3 -30 1 -33 -26 -33 -35 0 -45 -9 -31 -27 9 -10 6 -13 -12 -13 -23 0 -23
-1 8 -30 18 -17 37 -30 42 -30 6 0 11 -4 11 -10 0 -5 6 -10 13 -10 6 0 20 -19
31 -43 17 -38 19 -40 25 -19 7 28 17 27 56 -4 24 -20 27 -26 16 -33 -9 -6 -22
-6 -33 0 -10 6 -23 7 -28 4 -15 -10 -12 -35 5 -35 9 0 15 -9 15 -25 0 -14 8
-29 19 -34 10 -6 22 -23 25 -38 4 -16 9 -36 12 -45 5 -16 -3 -18 -64 -18 -49
0 -73 4 -82 15 -7 8 -27 17 -45 21 -24 4 -35 12 -40 31 -7 31 14 91 34 96 13
3 12 6 -4 12 -11 4 -29 16 -40 26 -11 10 -52 22 -95 28 -50 8 -87 20 -111 37
-26 18 -44 23 -62 19 -17 -5 -34 -1 -49 9 -12 9 -38 16 -57 16 l-34 0 27 -25
c55 -51 23 -77 -95 -74 -59 1 -85 6 -96 18 -24 23 -159 22 -196 -2 -14 -9 -45
-17 -67 -17 -28 0 -39 -4 -34 -11 10 -17 -16 -29 -67 -29 -38 0 -48 -4 -52
-20 -3 -13 1 -21 15 -26 30 -9 18 -39 -16 -37 -23 2 -26 0 -16 -13 7 -7 23
-14 35 -14 21 0 37 -19 39 -45 1 -5 16 -12 34 -16 19 -4 39 -12 45 -18 16 -16
52 -14 67 4 16 19 40 19 68 -1 15 -10 34 -14 50 -10 15 3 49 9 75 14 l48 9 -5
-81 c-3 -45 -14 -103 -24 -131 -18 -50 -18 -50 -65 -53 -26 -2 -47 -5 -47 -7
0 -8 60 -120 75 -139 8 -10 21 -16 29 -13 34 13 115 -61 152 -139 9 -18 25
-36 36 -40 27 -8 58 -63 58 -104 1 -38 26 -76 55 -81 11 -3 26 -18 35 -34 8
-17 36 -58 63 -92 49 -66 55 -79 35 -85 -9 -3 -8 -13 4 -39 9 -19 20 -47 23
-64 13 -55 27 -57 130 -20 52 18 96 30 99 28 3 -3 18 3 33 13 15 10 55 28 88
39 41 14 61 27 64 40 5 29 30 43 89 51 41 5 52 10 52 24 0 11 10 20 25 24 14
4 25 11 25 16 0 6 11 20 25 31 13 12 27 35 30 50 4 16 11 29 17 29 11 0 50 45
59 68 7 20 -44 72 -71 72 -47 0 -124 89 -105 120 4 6 2 10 -4 10 -5 0 -23 -17
-38 -37 -43 -58 -52 -63 -113 -58 -30 2 -56 4 -58 4 -1 1 -1 18 0 38 2 29 -1
38 -14 41 -14 3 -18 -3 -18 -24 l0 -27 -21 28 c-18 22 -20 29 -8 36 11 7 11 9
-3 9 -10 0 -18 5 -18 11 0 6 -11 20 -24 30 -14 11 -35 36 -47 57 -13 20 -27
40 -32 43 -4 3 2 13 15 21 40 26 73 12 110 -46 17 -28 33 -53 35 -55 2 -2 11
-5 21 -6 9 -1 43 -14 75 -29 40 -18 63 -23 74 -17 9 4 24 6 34 4 13 -4 19 0
19 12 0 10 6 15 16 13 15 -3 24 -14 44 -58 7 -15 141 -42 205 -42 116 0 182 4
194 12 16 9 41 3 41 -11 0 -20 97 -100 145 -119 19 -8 19 -9 -2 -9 -31 -1 -29
-5 15 -46 56 -52 104 -46 114 15 4 23 5 23 12 5 4 -11 12 -28 17 -38 5 -9 7
-28 3 -42 -3 -14 3 -47 15 -80 12 -31 21 -65 21 -76 0 -12 20 -47 44 -78 30
-40 45 -71 50 -104 4 -26 13 -50 21 -54 15 -9 65 -109 65 -133 2 -50 68 -69
88 -25 6 14 16 25 21 25 5 0 12 11 15 25 4 14 12 25 20 25 13 0 15 18 14 140
0 25 0 59 -1 75 -2 22 4 32 21 40 12 5 22 16 22 23 0 7 5 10 10 7 6 -4 39 23
73 60 34 37 83 83 110 102 34 25 47 42 47 59 0 27 10 33 61 38 62 5 100 18
111 39 10 20 11 20 24 2 8 -10 14 -33 14 -50 0 -41 32 -79 60 -72 22 6 62 -24
41 -31 -19 -6 -12 -22 10 -22 25 0 53 -62 45 -101 -3 -16 0 -32 7 -38 25 -20
107 11 107 41 0 10 3 18 8 18 14 0 51 -78 58 -121 4 -24 13 -52 21 -61 8 -9
13 -30 11 -48 -2 -19 3 -34 12 -40 12 -7 12 -12 2 -22 -16 -16 -16 -45 1 -51
10 -4 10 -7 0 -18 -7 -7 -13 -27 -13 -44 0 -23 6 -33 28 -43 33 -14 92 -93 92
-123 0 -11 12 -46 28 -78 19 -42 38 -66 68 -85 54 -34 84 -35 84 -1 0 14 -7
28 -15 31 -10 4 -15 20 -15 51 0 24 -6 57 -14 72 -16 30 -69 74 -101 84 -20 7
-75 84 -75 106 0 6 -7 11 -15 11 -23 0 -29 45 -11 81 9 18 16 45 16 60 0 55
31 83 43 39 3 -11 12 -20 20 -20 26 0 87 -41 87 -57 0 -19 28 -42 51 -43 25 0
49 -33 42 -58 -9 -37 22 -37 61 -1 20 18 36 38 36 46 0 7 11 13 24 13 14 0 38
12 55 26 25 21 31 33 31 66 0 37 -17 90 -41 128 -5 8 -12 23 -15 32 -4 10 -11
18 -16 18 -16 0 -98 62 -98 74 0 6 -9 17 -20 24 -23 14 -26 55 -8 93 14 29 68
59 108 59 25 0 30 -4 30 -25 0 -13 7 -28 15 -32 13 -7 10 -13 -15 -31 -33 -24
-39 -56 -14 -66 33 -13 55 -5 73 25 20 33 18 59 -5 59 -10 0 -12 9 -7 33 8 41
8 41 47 43 18 0 47 8 66 17 18 9 43 17 55 17 11 0 30 7 41 15 10 8 25 15 31
15 15 0 46 24 82 64 14 16 32 35 39 42 6 7 12 30 12 52 0 25 9 52 24 75 22 32
30 60 27 95 -1 6 -12 12 -26 12 -27 0 -32 9 -14 27 18 18 -7 80 -36 87 -13 3
-39 27 -57 52 -18 25 -46 53 -61 61 -16 8 -27 17 -25 21 20 40 47 72 63 74 11
2 21 10 23 19 2 13 -8 19 -48 24 -34 5 -56 3 -63 -4 -16 -16 -33 -14 -52 6
-10 9 -31 24 -48 32 -36 19 -51 47 -20 37 25 -8 54 2 51 18 -4 17 31 63 52 69
27 7 38 -12 35 -60 -1 -31 2 -43 11 -43 8 0 14 5 14 11 0 20 67 39 107 31 36
-7 38 -10 41 -50 3 -41 4 -42 40 -42 48 0 66 -12 58 -38 -5 -14 0 -28 13 -41
13 -13 21 -34 21 -54 0 -18 5 -38 12 -45 16 -16 41 -15 35 1 -9 23 8 37 54 45
67 11 64 36 -15 116 -35 36 -70 66 -76 66 -7 0 -22 10 -35 22 l-23 22 30 28
c29 27 29 29 14 52 -13 21 -13 26 -1 36 8 7 15 18 15 26 0 22 16 25 52 10 74
-31 120 34 123 175 1 30 5 60 9 67 9 14 -17 66 -55 110 -16 18 -29 42 -29 53
0 19 1 20 29 3 16 -9 46 -42 67 -72 22 -31 48 -65 60 -77 11 -13 33 -43 48
-69 27 -46 39 -55 51 -36 3 6 18 10 32 10 24 0 22 3 -20 31 -25 17 -53 44 -61
60 -13 27 -13 29 4 29 10 0 22 -4 25 -10 3 -5 14 -10 23 -10 21 1 -26 42 -80
70 -20 11 -39 29 -43 40 -3 11 -22 27 -40 36 -19 9 -37 23 -40 32 -6 20 -113
97 -122 88 -3 -3 0 -12 7 -21 20 -24 5 -29 -31 -11 -48 24 -106 31 -124 16
-12 -10 -19 -10 -27 -2 -7 7 -20 12 -29 12 -9 0 -22 7 -29 15 -7 8 -25 15 -41
15 -32 0 -40 23 -14 38 9 4 17 21 18 36 1 15 9 31 17 36 8 5 14 23 15 41 0 28
5 34 30 41 17 4 72 5 123 2 60 -4 92 -3 92 4 0 15 83 2 95 -15 10 -13 68 -13
82 0 3 4 18 7 32 8 23 1 23 2 -8 10 -28 9 -32 14 -27 32 3 12 6 32 6 45 0 20
5 22 52 22 30 0 58 -6 67 -14 9 -8 28 -18 43 -21 23 -6 29 -3 40 20 10 22 9
28 -3 36 -11 7 -10 9 7 9 12 0 33 -14 47 -31 23 -28 24 -33 11 -57 -8 -15 -14
-43 -14 -63 0 -23 -6 -39 -14 -42 -18 -7 -15 -43 5 -75 13 -22 95 -89 196
-159 25 -17 57 -43 72 -57 15 -14 30 -26 34 -26 12 0 8 49 -5 71 -10 17 -10
23 0 26 14 6 16 33 2 33 -5 0 -10 7 -10 15 0 8 9 15 20 15 28 0 25 12 -10 32
-32 18 -40 38 -15 38 25 0 17 19 -10 26 -14 3 -34 18 -45 31 -11 14 -35 28
-52 32 -20 4 -37 15 -43 29 -5 12 -13 22 -17 22 -5 0 -8 7 -8 16 0 11 6 13 19
9 13 -4 23 0 29 12 9 15 12 15 27 3 15 -12 18 -12 26 3 12 21 68 23 95 2 24
-18 55 -20 48 -2 -6 18 13 67 26 67 6 0 20 8 31 19 15 14 30 17 69 13 28 -2
50 -2 50 1 0 12 -154 110 -364 231 -87 51 -107 58 -165 62 -151 10 -281 11
-281 3 0 -5 9 -9 19 -9 26 0 51 -10 51 -21 0 -4 -14 -3 -31 3 -16 6 -33 8 -36
5 -10 -10 -44 13 -37 25 5 8 -4 9 -32 4 -21 -5 -46 -8 -54 -8 -189 3 -217 5
-237 18 -42 27 -154 46 -258 43 -98 -2 -214 14 -225 30 -9 15 -87 24 -95 11
-5 -8 -10 -9 -14 -2 -3 6 -52 16 -108 22 -87 10 -105 10 -123 -3 -21 -14 -21
-14 0 -20 11 -3 20 -9 20 -14 0 -10 -189 -9 -212 1 -14 6 -18 4 -18 -12 0 -17
-4 -18 -37 -11 -53 11 -83 20 -113 36 -14 7 -38 13 -55 13 -25 1 -27 2 -12 11
29 17 9 30 -46 28 -29 -1 -69 2 -89 6 -36 7 -55 -6 -25 -18 6 -3 -22 -5 -63
-5 -45 0 -86 6 -104 15 -19 10 -54 14 -105 13 -42 -1 -78 -1 -81 0 -17 7 -126
8 -134 1 -17 -13 -56 -23 -56 -14 0 8 14 17 78 47 29 13 31 17 20 35 -15 25
-60 34 -176 35 -50 1 -92 4 -92 9 0 4 -16 7 -35 7 -20 0 -38 6 -40 13 -6 13
-97 22 -108 11z m-517 -232 c0 -5 -13 -7 -30 -4 -16 2 -30 6 -30 8 0 2 14 4
30 4 17 0 30 -4 30 -8z m-44 -1097 c-4 -13 2 -26 15 -36 17 -12 19 -20 11 -35
-6 -10 -13 -27 -16 -37 -5 -16 -12 -18 -48 -12 -49 9 -67 27 -68 71 0 26 5 33
25 38 14 4 25 13 25 21 0 10 10 14 30 12 26 -2 30 -5 26 -22z"/>
<path d="M3291 4216 c6 -29 74 -46 164 -41 44 2 86 4 93 5 6 0 12 4 12 9 0 9
-64 21 -149 27 -25 1 -63 6 -85 10 -33 6 -38 5 -35 -10z"/>
<path d="M5324 3136 c-8 -22 -2 -27 16 -16 12 7 12 12 3 21 -10 10 -14 9 -19
-5z"/>
<path d="M5266 2931 c-4 -7 -5 -15 -2 -18 9 -9 19 4 14 18 -4 11 -6 11 -12 0z"/>
<path d="M4957 2894 c-3 -4 5 -21 18 -39 26 -33 32 -55 15 -55 -5 0 -10 -9
-10 -20 0 -11 -4 -20 -10 -20 -5 0 -10 -4 -10 -9 0 -11 56 -41 76 -41 26 0 25
20 -2 32 l-26 12 27 8 c21 5 35 2 53 -12 34 -27 52 -25 52 5 0 18 5 25 19 25
15 0 19 7 19 33 l0 32 -57 0 c-46 0 -66 5 -99 28 -43 28 -54 32 -65 21z"/>
<path d="M5196 2883 c-11 -29 10 -36 28 -9 16 25 16 26 -3 26 -10 0 -22 -8
-25 -17z"/>
<path d="M5060 2702 c-8 -3 -18 -9 -21 -14 -10 -15 2 -59 17 -65 18 -7 19 -94
2 -111 -15 -15 -42 -16 -32 -1 4 7 1 10 -7 7 -7 -2 -17 -22 -21 -44 l-8 -39
-54 -1 c-44 0 -60 -5 -89 -30 -20 -16 -36 -34 -36 -40 -1 -6 -8 -17 -16 -24
-8 -7 -15 -19 -15 -26 0 -17 27 -19 32 -2 8 23 28 -4 23 -31 -7 -38 17 -70 42
-55 13 8 17 21 15 47 -3 31 -1 36 13 31 10 -4 21 -1 25 7 5 7 19 14 32 14 17
0 24 7 26 24 4 23 2 24 -40 17 -39 -6 -41 -5 -23 7 11 8 34 14 52 15 25 0 32
-4 35 -21 4 -31 43 -35 58 -6 10 17 9 23 -1 30 -19 12 -2 11 21 -1 24 -13 80
-1 80 17 0 10 6 12 19 8 26 -8 35 10 18 37 -16 25 -27 66 -32 116 -4 41 -29
80 -61 94 -13 6 -24 17 -24 24 0 17 -11 23 -30 16z m-160 -349 c-1 -18 -18
-35 -24 -24 -4 6 -17 12 -29 12 -17 1 -15 3 8 9 42 11 45 11 45 3z"/>
<path d="M443 2427 c-18 -6 -33 -15 -33 -19 0 -15 38 -8 61 12 26 21 21 23
-28 7z"/>
<path d="M4638 2333 c7 -3 16 -2 19 1 4 3 -2 6 -13 5 -11 0 -14 -3 -6 -6z"/>
<path d="M4875 2190 c-3 -5 -1 -10 4 -10 6 0 11 5 11 10 0 6 -2 10 -4 10 -3 0
-8 -4 -11 -10z"/>
<path d="M4845 2080 c-3 -5 1 -10 9 -10 9 0 16 5 16 10 0 6 -4 10 -9 10 -6 0
-13 -4 -16 -10z"/>
<path d="M4810 2000 c0 -5 5 -10 10 -10 6 0 10 5 10 10 0 6 -4 10 -10 10 -5 0
-10 -4 -10 -10z"/>
<path d="M4516 1911 c-22 -41 -20 -84 4 -106 19 -17 20 -17 29 8 13 34 9 119
-6 124 -6 2 -19 -9 -27 -26z"/>
<path d="M4564 1606 c-3 -9 -4 -34 -2 -55 3 -32 0 -41 -14 -45 -17 -4 -17 -6
-1 -35 10 -16 27 -32 39 -35 12 -3 24 -15 27 -27 4 -14 11 -20 20 -16 8 3 26
-1 41 -8 15 -8 33 -12 41 -9 11 5 14 -2 11 -31 -2 -30 2 -38 18 -45 17 -6 22
-3 26 19 9 43 -16 79 -58 87 -69 12 -88 49 -55 105 17 28 17 31 -1 64 -11 20
-27 35 -37 35 -9 0 -24 3 -33 6 -10 4 -18 0 -22 -10z"/>
<path d="M3297 1373 c-12 -20 -16 -69 -8 -83 14 -20 19 -12 22 37 3 41 -4 63
-14 46z"/>
<path d="M4600 1371 c0 -5 6 -14 14 -21 8 -6 12 -18 9 -26 -3 -10 0 -12 10 -8
24 9 30 37 11 51 -20 15 -44 17 -44 4z"/>
<path d="M4789 1300 c-9 -28 -18 -40 -31 -40 -10 0 -18 5 -18 10 0 6 -11 15
-25 20 -14 5 -25 14 -25 20 0 5 -3 10 -7 10 -5 0 -9 -18 -10 -40 -1 -36 1 -40
24 -40 18 0 24 -4 19 -15 -3 -8 -8 -21 -11 -28 -3 -6 5 -18 17 -26 19 -12 23
-11 34 3 7 10 18 16 26 15 40 -5 54 16 18 29 -14 5 -17 11 -10 22 8 12 10 12
16 -3 12 -33 30 -18 32 30 3 76 -30 99 -49 33z"/>
<path d="M4507 1196 c-59 -68 -44 -86 18 -20 41 43 57 74 38 74 -5 0 -29 -25
-56 -54z"/>
<path d="M2716 1122 c0 -85 6 -102 32 -97 9 2 22 4 28 4 6 1 16 11 23 24 11
21 8 31 -24 85 -20 34 -41 62 -48 62 -8 0 -12 -24 -11 -78z"/>
<path d="M4849 1197 c-1 -4 -3 -11 -4 -17 -1 -5 -3 -14 -4 -18 -2 -13 -51 -34
-51 -22 0 16 -34 11 -52 -7 -9 -10 -24 -24 -33 -31 -17 -15 -16 -33 3 -40 7
-2 12 3 12 12 0 9 6 16 13 16 6 0 30 3 52 7 34 5 38 4 28 -8 -17 -21 -6 -55
23 -68 39 -18 46 -14 39 22 -5 29 -4 30 8 15 20 -25 24 -23 32 12 4 20 2 37
-6 46 -7 9 -14 23 -15 32 -3 16 -43 61 -45 49z"/>
<path d="M3360 1070 c0 -5 5 -10 10 -10 6 0 10 5 10 10 0 6 -4 10 -10 10 -5 0
-10 -4 -10 -10z"/>
<path d="M4453 1059 c-12 -4 -24 -17 -28 -28 -3 -12 -10 -21 -15 -21 -4 0 -10
-9 -13 -21 -3 -11 -12 -19 -21 -17 -8 2 -37 -21 -65 -51 -29 -31 -54 -50 -61
-46 -15 9 -50 -23 -50 -47 0 -21 0 -21 -36 -8 -36 14 -61 4 -67 -27 -5 -26 15
-87 32 -97 5 -3 14 -29 21 -57 12 -50 13 -51 46 -47 24 3 34 0 34 -10 0 -11 8
-13 33 -8 43 8 97 -3 97 -20 0 -26 20 -24 54 7 26 22 36 39 36 60 0 20 9 35
30 51 24 17 30 29 30 60 0 37 1 38 35 38 26 0 33 4 29 15 -3 8 -14 17 -25 20
-11 4 -19 16 -19 28 0 12 -7 31 -15 41 -21 28 -19 45 9 57 14 7 22 17 19 24
-2 7 5 16 17 20 26 8 12 30 -25 39 -14 4 -25 12 -25 19 0 20 -33 35 -57 26z"/>
<path d="M3450 990 c0 -20 37 -61 84 -93 14 -10 26 -26 26 -37 0 -11 12 -25
27 -32 18 -8 31 -26 37 -48 6 -19 20 -43 31 -52 12 -9 36 -45 54 -80 32 -64
73 -118 88 -118 5 0 25 -16 45 -36 30 -28 43 -35 70 -32 32 3 33 5 31 41 -3
44 11 77 32 77 20 0 19 25 -1 55 -19 29 -39 32 -53 8 -8 -14 -12 -15 -25 -4
-9 7 -16 19 -16 27 0 7 -9 18 -21 24 -16 9 -19 17 -14 41 6 25 4 29 -14 29
-14 0 -21 6 -21 20 0 11 -8 24 -17 27 -10 4 -21 12 -25 19 -4 6 -23 15 -42 18
-22 4 -46 20 -65 41 -17 19 -35 35 -40 35 -6 0 -22 16 -37 35 -22 29 -33 35
-65 35 -21 0 -41 5 -44 10 -10 17 -25 11 -25 -10z"/>
<path d="M4831 796 c-17 -18 -30 -23 -54 -19 -101 14 -115 14 -121 4 -4 -6
-16 -11 -27 -11 -15 0 -19 -7 -19 -34 0 -18 -6 -39 -14 -45 -8 -6 -16 -24 -19
-39 -3 -15 -9 -39 -13 -54 -5 -24 -3 -28 16 -28 20 0 22 -4 18 -37 -3 -21 -7
-45 -9 -53 -3 -10 4 -15 21 -15 24 0 25 3 28 73 2 57 6 72 19 72 11 0 14 -6 9
-24 -4 -15 0 -28 10 -36 8 -7 13 -19 10 -27 -3 -8 4 -17 17 -23 12 -5 18 -9
13 -9 -13 -1 15 -31 29 -31 7 0 15 8 19 18 3 9 9 23 12 30 3 7 -1 12 -11 12
-9 0 -14 4 -11 9 3 5 -1 14 -9 21 -7 6 -12 17 -9 24 3 7 -4 21 -16 31 -37 34
-21 55 43 55 22 0 28 3 18 9 -9 6 -10 11 -2 15 6 4 9 12 6 17 -10 15 -42 10
-81 -12 l-36 -20 -17 23 c-32 46 -24 52 84 54 89 2 101 5 117 24 19 23 24 50
10 50 -5 0 -19 -11 -31 -24z"/>
<path d="M4971 799 c-5 -14 -5 -31 1 -41 5 -12 5 -25 -2 -38 -6 -12 -7 -20 -1
-20 5 0 16 -2 24 -5 10 -5 13 1 9 25 -3 22 0 30 11 30 8 0 18 12 21 26 8 31 9
30 -26 39 -23 6 -29 3 -37 -16z"/>
<path d="M3600 677 c0 -8 7 -18 16 -21 11 -4 14 -1 12 11 -4 21 -28 30 -28 10z"/>
<path d="M4820 651 c0 -15 16 -22 34 -15 25 9 19 24 -9 24 -14 0 -25 -4 -25
-9z"/>
<path d="M5084 649 c-8 -13 25 -24 37 -12 7 7 3 12 -10 16 -12 3 -24 1 -27 -4z"/>
<path d="M4032 608 c-18 -18 -15 -28 7 -28 26 0 34 15 18 29 -10 8 -17 7 -25
-1z"/>
<path d="M5007 594 c-20 -20 -5 -34 37 -34 25 0 48 -4 51 -10 3 -5 13 -10 21
-10 20 0 18 36 -3 45 -29 11 -98 17 -106 9z"/>
<path d="M4912 573 c4 -22 48 -31 48 -10 0 14 -20 27 -42 27 -5 0 -8 -8 -6
-17z"/>
<path d="M5281 444 c-25 -31 -26 -44 -6 -44 17 0 49 56 36 65 -5 3 -19 -7 -30
-21z"/>
<path d="M3928 430 c-25 -27 -22 -40 6 -40 13 0 26 -4 28 -10 2 -5 39 -13 83
-16 44 -4 91 -12 105 -19 14 -7 61 -14 105 -16 80 -4 80 -4 80 21 0 21 -4 25
-27 23 -22 -2 -28 2 -28 18 0 11 -4 18 -9 15 -5 -3 -26 0 -48 8 -32 11 -42 11
-57 1 -18 -14 -56 -7 -100 16 -10 6 -42 13 -70 15 -42 3 -54 0 -68 -16z"/>
<path d="M5124 365 c-9 -14 -15 -28 -12 -30 7 -7 58 34 58 46 0 19 -30 8 -46
-16z"/>
<path d="M4472 333 c-19 -13 -25 -14 -32 -3 -10 16 -40 6 -40 -15 0 -17 28
-19 104 -9 29 4 46 12 46 20 0 8 -6 14 -14 14 -8 0 -20 2 -28 4 -7 3 -23 -2
-36 -11z"/>
<path d="M4594 326 c-12 -6 -19 -17 -17 -23 3 -7 -2 -13 -11 -13 -25 0 -19
-13 14 -32 35 -20 51 -6 25 22 -16 18 -16 19 17 18 32 0 108 22 108 32 0 11
-116 8 -136 -4z"/>
<path d="M4840 318 c-19 -12 -48 -29 -64 -38 -17 -9 -32 -22 -34 -28 -9 -27
29 -21 84 12 32 19 71 38 87 42 15 3 26 11 24 17 -7 21 -61 18 -97 -5z"/>
</g>
</svg>
