<?xml version="1.0" standalone="no"?>
<!DOCTYPE svg PUBLIC "-//W3C//DTD SVG 20010904//EN"
 "http://www.w3.org/TR/2001/REC-SVG-20010904/DTD/svg10.dtd">
<svg version="1.0" xmlns="http://www.w3.org/2000/svg"
 width="600.000000pt" height="451.000000pt" viewBox="0 0 600.000000 451.000000"
 preserveAspectRatio="xMidYMid meet">

<g transform="translate(0.000000,451.000000) scale(0.100000,-0.100000)"
fill="#000000" stroke="none">
<path d="M4033 4312 c-12 -7 -6 -62 7 -62 4 0 12 -11 18 -24 8 -19 8 -26 -1
-29 -8 -2 -6 -12 7 -31 17 -27 26 -29 66 -12 9 4 24 -1 35 -12 20 -19 75 -19
75 0 0 6 11 19 25 30 26 20 26 42 0 32 -23 -9 -104 33 -144 76 -36 38 -63 48
-88 32z"/>
<path d="M4527 4270 c-20 -4 -48 -17 -60 -28 -13 -12 -29 -22 -35 -22 -7 0
-12 -4 -12 -9 0 -6 -20 -8 -45 -6 -25 3 -45 1 -45 -3 1 -20 20 -32 51 -30 18
1 51 -4 73 -11 35 -12 38 -16 32 -42 -3 -16 -1 -29 4 -29 6 0 10 -4 10 -10 0
-5 -7 -10 -15 -10 -8 0 -15 7 -15 16 0 10 -7 14 -22 12 -17 -2 -24 -11 -26
-33 -2 -16 -15 -40 -29 -53 -14 -13 -23 -30 -21 -40 3 -10 -1 -24 -9 -31 -12
-11 -17 -10 -28 5 -8 11 -15 23 -15 27 0 5 -5 7 -12 5 -10 -4 -37 -70 -55
-133 -3 -11 -12 -35 -20 -53 -12 -27 -12 -39 -2 -69 11 -33 10 -37 -12 -53
-14 -12 -28 -15 -38 -10 -9 5 -24 11 -33 14 -22 7 -19 45 4 57 23 12 17 23
-24 43 -28 14 -34 15 -54 1 -13 -8 -31 -15 -41 -15 -12 0 -8 -6 14 -20 22 -13
35 -31 43 -60 6 -22 17 -40 24 -40 18 0 43 -31 48 -61 4 -24 2 -25 -36 -25
-37 1 -41 -2 -47 -29 -3 -16 -13 -47 -22 -67 -17 -41 -11 -54 34 -78 10 -6 19
-18 19 -26 0 -8 -4 -13 -9 -9 -5 3 -12 1 -16 -5 -3 -5 -16 -8 -28 -6 -12 3
-40 7 -62 10 -38 5 -41 4 -40 -19 0 -29 36 -58 60 -49 21 9 38 -16 23 -33 -13
-16 -64 -17 -73 -3 -4 6 -14 10 -23 9 -31 -3 -42 1 -42 14 0 7 -9 23 -19 34
-11 11 -21 33 -23 49 -2 22 -12 33 -40 46 -46 22 -57 38 -26 39 98 2 176 11
194 20 52 27 70 109 32 151 -27 29 -48 39 -102 45 -22 2 -53 12 -70 20 -38 20
-148 23 -154 5 -2 -6 -8 -12 -13 -12 -6 0 -7 5 -4 10 4 6 -8 10 -27 11 -26 0
-29 2 -14 8 19 7 19 8 -1 13 -13 3 -24 1 -27 -7 -6 -16 -64 -25 -69 -11 -2 6
5 19 15 30 17 19 17 20 -10 38 -16 10 -28 13 -30 7 -3 -6 -9 -6 -18 2 -8 6
-14 8 -14 4 0 -4 -7 -2 -16 6 -19 15 -33 -1 -35 -41 -1 -17 -3 -19 -6 -7 -7
25 -20 21 -32 -10 -10 -26 -11 -26 -6 10 3 20 3 37 0 37 -9 0 -40 -32 -41 -42
-1 -4 -2 -12 -3 -18 -1 -11 -23 -9 -31 2 -3 4 -12 2 -20 -3 -11 -8 -12 -12 -2
-16 19 -8 14 -21 -10 -25 -17 -2 -22 -9 -20 -25 3 -19 -2 -23 -25 -24 -15 -1
-34 0 -42 1 -9 1 -12 -4 -8 -14 3 -8 2 -18 -3 -21 -6 -4 -10 -15 -10 -25 0
-10 -5 -20 -11 -22 -5 -2 -13 -22 -16 -46 -4 -27 -11 -42 -20 -42 -20 0 -40
-22 -37 -42 1 -11 -3 -15 -14 -11 -11 5 -14 2 -9 -10 3 -9 2 -19 -3 -22 -6 -4
-10 -17 -10 -30 0 -19 -4 -23 -17 -18 -12 5 -15 2 -10 -10 4 -11 1 -17 -7 -17
-17 0 -24 -17 -21 -50 1 -14 -2 -27 -6 -30 -5 -4 -11 -22 -15 -40 -4 -27 -3
-31 5 -20 9 13 11 13 11 -1 0 -9 -11 -21 -25 -27 -14 -7 -25 -20 -25 -31 0
-13 -5 -18 -14 -15 -9 3 -20 -7 -31 -28 -10 -18 -24 -45 -32 -60 -8 -16 -21
-28 -30 -28 -9 0 -13 -6 -10 -14 6 -15 1 -16 -56 -17 -20 -1 -27 -5 -23 -15 3
-8 -1 -17 -9 -20 -8 -4 -15 -12 -15 -20 0 -8 -7 -14 -15 -14 -8 0 -15 -5 -15
-11 0 -6 -6 -9 -13 -6 -35 13 -44 -136 -12 -207 5 -11 4 -26 -3 -37 -16 -25
-15 -30 3 -23 20 8 20 -20 0 -40 -23 -22 -18 -38 19 -74 34 -32 69 -41 81 -22
4 6 10 8 15 5 5 -3 25 15 46 39 21 26 43 42 50 39 8 -3 17 3 21 14 7 17 11 18
33 6 14 -7 20 -13 14 -13 -7 0 -9 -13 -5 -37 5 -28 11 -37 24 -35 13 2 15 -2
8 -20 -4 -13 -5 -30 -1 -38 4 -8 14 -28 21 -45 7 -16 19 -37 27 -47 16 -20 1
-50 -35 -69 -13 -7 -23 -16 -23 -21 0 -4 -6 -8 -14 -8 -19 0 -8 -50 13 -58 24
-11 24 -32 -1 -32 -15 0 -19 -3 -12 -10 6 -6 18 -8 27 -5 17 7 40 62 31 76 -3
5 0 9 5 9 6 0 11 9 11 21 0 11 5 17 10 14 6 -3 10 -15 10 -25 0 -25 12 -31 50
-24 26 6 31 10 26 28 -7 29 25 56 64 56 23 0 30 5 30 19 0 10 7 21 15 25 16 6
21 36 6 36 -4 0 -7 37 -4 82 4 77 6 83 38 117 19 19 35 43 35 52 0 9 7 22 15
29 14 12 14 15 0 30 -8 9 -15 21 -15 26 0 6 -16 17 -35 24 -23 9 -37 22 -40
37 -3 13 -7 34 -10 48 -3 14 -1 25 3 25 5 0 6 18 2 40 -5 27 -4 40 4 40 6 0
17 14 25 31 7 17 29 47 48 67 19 20 43 55 53 77 16 36 16 42 2 57 -11 14 -12
21 -3 32 6 7 9 21 5 30 -3 9 -2 16 4 16 5 0 12 10 15 22 4 12 9 19 13 15 4 -4
12 -3 18 2 15 13 48 15 69 6 28 -12 41 -54 23 -74 -8 -9 -20 -35 -27 -58 -6
-24 -20 -50 -31 -59 -10 -10 -18 -26 -18 -36 0 -12 -9 -22 -21 -25 -13 -4 -18
-11 -14 -21 3 -8 1 -20 -4 -26 -10 -12 1 -55 25 -101 6 -11 10 -36 8 -55 -3
-44 11 -70 37 -70 11 0 33 -10 50 -22 26 -20 32 -21 52 -8 12 7 39 23 60 34
20 11 37 23 37 28 0 4 9 8 20 8 11 0 20 5 20 10 0 6 8 10 19 10 10 0 24 6 30
14 11 13 15 12 32 -5 11 -11 28 -18 37 -15 9 3 24 1 32 -4 12 -8 9 -10 -12
-10 -17 0 -28 -5 -28 -14 0 -8 -11 -17 -24 -20 -18 -4 -23 -11 -19 -26 5 -18
0 -20 -50 -20 -31 0 -59 -4 -62 -10 -3 -5 -15 -10 -25 -10 -10 0 -31 -11 -45
-24 -24 -22 -25 -26 -12 -62 9 -29 18 -39 34 -38 18 0 22 -7 27 -55 5 -42 3
-58 -9 -70 -13 -13 -18 -12 -46 17 -17 18 -37 32 -44 32 -44 0 -65 -103 -41
-197 21 -79 21 -80 -12 -86 -19 -4 -31 -15 -39 -36 -14 -38 -53 -43 -75 -9
-15 22 -15 22 -56 4 -23 -10 -49 -27 -57 -37 -9 -9 -41 -27 -71 -39 -30 -12
-54 -26 -54 -31 0 -5 -4 -9 -10 -9 -5 0 -10 7 -10 15 0 8 -5 15 -10 15 -6 0
-8 11 -4 25 5 19 2 25 -9 25 -9 0 -18 -4 -22 -10 -3 -5 -12 -7 -19 -4 -7 3
-16 -2 -19 -10 -4 -9 -12 -16 -20 -16 -7 0 -18 -5 -25 -12 -20 -20 -44 -19
-37 2 4 14 -1 20 -22 24 -29 7 -53 43 -53 80 0 19 1 19 13 2 18 -24 53 -17 49
9 -5 25 -20 35 -41 28 -13 -5 -14 -3 -3 8 6 7 12 21 12 30 0 9 9 19 21 22 21
6 21 34 0 29 -11 -2 -17 22 -11 43 2 6 4 24 6 41 2 27 -1 31 -18 26 -11 -2
-22 -11 -25 -19 -3 -7 -20 -20 -38 -27 -24 -10 -34 -22 -40 -47 -4 -19 -9 -40
-10 -46 -2 -7 1 -16 6 -19 6 -3 5 -12 -3 -21 -10 -12 -9 -17 4 -27 8 -6 18
-27 21 -46 3 -19 8 -51 12 -71 5 -28 3 -38 -9 -42 -9 -4 -16 -16 -16 -27 0
-11 -4 -20 -10 -20 -5 0 -10 7 -10 15 0 17 -31 20 -58 6 -9 -5 -35 -13 -57
-18 -42 -8 -44 -14 -33 -78 2 -13 -3 -20 -12 -20 -9 0 -15 10 -16 28 -1 15 -4
30 -7 33 -10 10 -27 -6 -27 -25 0 -9 -17 -40 -37 -68 -37 -49 -96 -83 -144
-83 -19 0 -29 -20 -29 -55 0 -26 -25 -45 -59 -45 -10 0 -28 -11 -38 -25 -17
-23 -20 -24 -50 -13 -18 7 -33 18 -33 24 0 6 -9 14 -20 17 -19 5 -26 -5 -20
-28 2 -5 3 -24 4 -41 1 -27 -2 -31 -21 -31 -13 0 -23 3 -23 7 0 5 -8 6 -19 3
-10 -2 -21 2 -24 9 -6 17 -94 22 -117 7 -13 -8 -13 -10 -1 -18 7 -5 11 -13 7
-19 -9 -15 4 -41 18 -36 7 3 19 -2 26 -11 7 -8 19 -15 27 -15 7 0 16 -7 19
-15 4 -8 12 -15 20 -15 8 0 11 -6 8 -15 -3 -8 0 -17 7 -20 8 -3 15 -19 15 -37
1 -19 10 -37 24 -48 27 -20 25 -47 -10 -183 -19 -72 -27 -91 -47 -100 -19 -8
-30 -7 -51 5 -15 8 -32 13 -39 11 -6 -2 -14 1 -18 6 -3 6 -25 11 -48 11 -26 0
-58 10 -85 25 -24 14 -62 25 -88 26 -32 2 -50 8 -58 21 -13 21 -42 23 -76 3
-14 -8 -35 -14 -46 -15 -29 0 -38 -27 -14 -40 15 -8 17 -15 11 -28 -15 -28
-33 -120 -26 -131 7 -12 -59 -146 -78 -158 -22 -14 -38 -62 -27 -83 5 -10 14
-20 20 -22 10 -3 1 -73 -14 -108 -8 -20 55 -46 102 -41 41 3 68 -18 76 -63 4
-19 15 -43 26 -56 17 -20 21 -21 47 -7 55 28 91 35 133 26 23 -5 62 -11 88
-14 42 -4 49 -1 72 27 20 23 34 31 58 30 23 0 29 3 25 14 -3 8 0 14 5 14 6 0
14 9 17 21 4 11 22 27 40 36 l34 16 -20 25 c-10 14 -19 31 -19 38 0 16 78 108
96 112 7 2 11 9 8 17 -6 13 4 18 65 30 18 4 54 19 80 34 46 27 46 28 44 77 -3
55 0 62 40 87 27 17 30 17 54 2 13 -9 27 -14 30 -11 3 3 23 -4 45 -15 44 -23
66 -19 105 17 15 13 38 27 52 31 14 3 38 19 53 34 28 28 45 30 77 5 7 -5 22
-15 33 -21 18 -9 53 -84 44 -93 -5 -4 54 -62 63 -62 4 0 21 -15 37 -33 39 -44
84 -73 114 -75 14 0 32 -10 42 -22 9 -11 21 -20 27 -20 6 0 11 -4 11 -10 0 -5
7 -7 15 -4 10 4 18 -3 25 -20 5 -14 14 -27 20 -27 5 -1 15 -2 22 -3 7 0 21
-19 31 -41 11 -22 23 -48 28 -57 6 -12 4 -20 -5 -25 -8 -4 -15 -17 -17 -27 -6
-30 -144 -65 -180 -45 -11 5 -25 6 -32 2 -6 -4 -19 -8 -27 -8 -23 0 -25 -44
-3 -51 10 -3 36 -14 58 -25 22 -10 47 -19 56 -19 9 0 19 -7 23 -15 8 -22 62
-20 69 4 2 10 1 25 -4 33 -9 16 9 88 23 88 4 0 8 -4 8 -10 0 -5 6 -10 13 -10
18 0 57 55 57 80 0 11 6 20 14 20 37 0 29 56 -9 70 -21 8 -23 12 -15 41 5 18
13 36 17 40 11 11 83 -13 83 -27 0 -14 25 -26 34 -17 14 14 4 42 -21 59 -42
28 -116 64 -134 64 -24 0 -54 26 -41 34 28 17 11 31 -32 28 -39 -3 -49 0 -80
29 -20 18 -41 50 -48 72 -9 29 -23 46 -60 70 -51 33 -69 67 -48 92 10 11 9 18
-4 30 -21 21 -22 20 20 44 45 27 67 28 59 2 -6 -19 13 -71 26 -71 4 0 12 14
18 32 11 30 12 31 31 13 11 -10 20 -26 20 -36 0 -10 5 -21 10 -24 6 -3 10 -13
10 -22 0 -27 64 -78 102 -81 21 -1 40 -11 53 -27 12 -14 28 -25 36 -25 9 0 41
-18 73 -40 31 -22 60 -40 64 -40 4 0 8 -31 8 -69 1 -64 3 -73 30 -99 16 -15
54 -56 84 -90 30 -34 63 -62 73 -62 16 0 16 -2 -2 -22 l-20 -21 23 -21 c13
-12 27 -36 31 -54 7 -33 25 -45 25 -16 0 22 23 12 35 -14 11 -24 28 -31 19 -8
-6 17 12 31 21 16 3 -5 10 -10 15 -10 13 0 3 40 -15 60 -18 20 -19 31 -2 29
32 -4 39 1 23 17 -9 8 -16 19 -16 24 0 14 32 21 47 9 18 -16 21 -11 25 36 3
36 1 40 -22 43 -33 4 -90 31 -90 42 0 5 7 7 15 4 22 -9 18 0 -18 39 -37 41
-48 101 -11 68 5 -4 27 -11 49 -14 24 -4 34 -3 26 2 -7 5 -11 13 -7 19 3 6 2
13 -4 17 -17 10 -11 25 10 25 11 0 20 5 20 10 0 6 8 10 18 10 10 0 22 3 26 8
10 10 86 10 86 0 0 -5 15 -7 33 -6 35 2 67 23 67 45 0 7 9 13 19 13 11 0 23 5
26 11 4 6 13 8 20 5 18 -7 50 18 41 32 -4 7 -18 12 -31 12 -33 0 -55 10 -55
26 0 7 -11 24 -24 37 -16 17 -21 28 -15 38 5 8 9 29 9 47 0 20 5 32 14 32 11
0 13 17 11 78 -2 74 -1 78 19 78 17 -1 21 5 22 29 0 17 -4 36 -9 43 -5 7 -6
12 0 12 13 0 43 55 45 85 2 18 10 30 25 36 24 9 53 3 53 -12 0 -13 38 -11 77
3 46 17 52 3 15 -35 -18 -18 -32 -35 -32 -38 0 -3 15 -5 34 -6 45 -1 56 -9 56
-38 0 -34 26 -38 50 -8 11 14 20 29 20 34 0 4 9 10 19 14 11 3 23 15 26 26 4
11 12 18 19 16 19 -8 39 9 41 32 2 26 -12 26 -45 1 -25 -19 -25 -19 -52 7 -19
18 -24 30 -18 42 4 9 13 28 21 43 7 16 18 28 26 28 7 0 13 5 13 10 0 6 6 10
13 10 6 0 23 16 36 35 13 19 28 35 34 35 5 0 25 11 42 25 58 44 48 12 -17 -57
-23 -23 -22 -28 0 -28 26 0 34 -11 21 -27 -7 -7 -9 -28 -6 -47 5 -31 3 -36
-24 -45 -33 -11 -39 -31 -10 -31 11 0 22 -4 25 -9 3 -5 34 -12 68 -15 35 -4
85 -17 111 -28 38 -18 50 -19 56 -9 5 7 33 15 62 17 30 3 70 11 89 18 37 14
98 14 120 1 9 -6 19 -1 28 13 8 12 21 22 28 22 8 0 14 3 14 8 0 4 14 7 30 7
17 0 30 -5 30 -12 0 -15 28 -21 66 -12 19 4 40 1 55 -7 49 -27 73 -14 84 46 5
30 3 37 -17 46 -85 41 -106 58 -118 95 -11 32 -19 39 -55 50 l-42 13 5 65 c2
36 9 71 14 78 22 28 46 86 41 99 -3 8 0 21 7 29 15 18 47 73 56 98 4 12 17 17
41 17 29 0 34 3 30 18 -21 66 -37 130 -37 149 0 13 -16 40 -35 62 -24 26 -35
48 -35 68 0 18 -10 41 -25 57 -30 33 -31 38 -4 62 17 15 23 16 40 5 19 -11 20
-10 14 8 -6 19 -2 21 29 21 20 0 37 3 37 8 1 4 3 16 4 27 4 35 25 67 41 61 9
-4 18 4 24 20 13 34 13 44 -3 44 -17 0 -50 36 -69 75 -8 17 -21 40 -29 53 -12
20 -12 26 4 53 9 17 17 39 17 49 0 26 -32 95 -74 160 -61 97 -62 97 -113 105
-64 9 -122 36 -154 71 -14 16 -59 76 -99 134 -41 58 -106 137 -144 175 -38 39
-84 91 -102 118 -27 41 -32 57 -32 115 -1 37 -4 120 -8 185 -7 129 -7 129 -77
141 -44 8 -107 59 -107 87 0 20 -4 21 -63 9z m-767 -842 c0 -6 -6 -5 -15 2 -8
7 -15 14 -15 16 0 2 7 1 15 -2 8 -4 15 -11 15 -16z m-84 -435 c-10 -10 -19 5
-10 18 6 11 8 11 12 0 2 -7 1 -15 -2 -18z m-746 -3 c0 -5 -4 -10 -10 -10 -5 0
-10 5 -10 10 0 6 5 10 10 10 6 0 10 -4 10 -10z m697 -20 c1 -11 -2 -20 -8 -20
-10 0 -12 23 -2 33 9 9 9 10 10 -13z m48 -10 c3 -5 1 -10 -4 -10 -6 0 -11 5
-11 10 0 6 2 10 4 10 3 0 8 -4 11 -10z m92 -22 c2 -12 -6 -30 -17 -40 -16 -15
-18 -23 -10 -33 14 -17 2 -24 -33 -18 -31 6 -35 20 -9 30 21 8 42 35 36 45 -3
5 -14 8 -25 8 -10 0 -19 4 -19 9 0 5 14 7 30 5 24 -4 30 -2 30 12 0 23 13 9
17 -18z m110 -25 c56 -25 73 -43 73 -75 0 -21 -5 -28 -20 -28 -14 0 -20 -7
-20 -21 0 -18 -9 -13 -53 32 -45 46 -51 56 -40 70 7 8 13 21 13 27 0 15 2 15
47 -5z m-283 -49 c3 -8 2 -12 -4 -9 -6 3 -10 10 -10 16 0 14 7 11 14 -7z
m-333 -284 c5 0 9 -4 9 -9 0 -12 -38 -2 -47 12 -4 7 0 8 11 4 10 -4 22 -7 27
-7z m-181 -43 c0 -19 -29 -57 -45 -57 -7 0 -16 -6 -18 -12 -3 -7 -6 -1 -6 15
-1 15 7 36 17 46 20 22 52 27 52 8z m36 -78 c-9 -19 -15 -29 -16 -22 0 18 20
66 25 61 3 -3 -1 -20 -9 -39z m-286 -148 c0 -12 -20 -25 -27 -18 -7 7 6 27 18
27 5 0 9 -4 9 -9z m1080 -1691 c8 -5 11 -10 5 -10 -5 0 -17 5 -25 10 -8 5 -10
10 -5 10 6 0 17 -5 25 -10z m-32 -66 c-2 -1 -16 0 -33 3 -25 5 -27 7 -10 13
17 6 52 -7 43 -16z"/>
<path d="M4143 3925 c-15 -11 -15 -17 -5 -39 18 -41 62 -27 62 20 0 26 -32 37
-57 19z"/>
<path d="M1630 3549 c0 -5 -4 -8 -10 -4 -9 6 -43 -10 -67 -31 -10 -9 -5 -15
20 -25 18 -8 38 -12 44 -11 18 4 5 -25 -15 -34 -9 -4 -33 -6 -52 -5 l-35 1 25
-14 c41 -23 47 -86 9 -86 -30 0 -22 -19 16 -37 19 -9 35 -23 35 -30 0 -21 52
-62 78 -63 12 0 22 3 22 8 0 4 19 8 43 8 23 0 56 2 72 4 60 6 125 46 111 69
-3 5 0 11 6 14 10 3 10 7 -1 21 -8 9 -15 26 -16 39 -1 12 -3 28 -4 35 0 7 -5
10 -11 7 -5 -3 -10 3 -10 14 0 25 -18 37 -26 18 -6 -15 -54 -18 -54 -3 0 4 -7
6 -15 2 -8 -3 -15 -1 -15 5 0 6 -10 9 -22 7 -13 -2 -29 4 -35 12 -11 13 -13
12 -19 -6 -4 -14 -14 -21 -29 -21 -16 0 -22 4 -18 13 3 8 9 14 13 14 8 0 -3
60 -14 79 -9 14 -26 14 -26 0z m10 -40 c0 -6 -4 -7 -10 -4 -5 3 -10 11 -10 16
0 6 5 7 10 4 6 -3 10 -11 10 -16z"/>
<path d="M3509 2572 c-1 -4 -1 -14 0 -24 1 -9 -3 -19 -9 -23 -15 -9 -12 -35 4
-35 16 0 46 26 46 41 0 5 -7 9 -16 9 -13 0 -14 3 -5 14 9 10 8 15 -4 20 -8 3
-16 2 -16 -2z"/>
<path d="M2110 2545 c0 -8 -4 -15 -9 -15 -5 0 -12 -11 -15 -25 -4 -14 -11 -25
-17 -25 -6 0 -7 -5 -4 -10 10 -16 -5 -50 -21 -50 -8 0 -14 -3 -14 -7 0 -5 -3
-19 -7 -32 -5 -19 -3 -23 9 -18 14 5 14 0 2 -39 -7 -25 -16 -50 -19 -57 -4 -7
1 -3 9 7 9 11 16 25 16 32 0 6 7 14 15 18 20 7 15 -62 -7 -95 -15 -24 -15 -26
1 -36 9 -6 31 -9 50 -8 24 2 30 0 22 -8 -15 -15 -14 -43 4 -60 12 -12 12 -21
4 -46 -9 -25 -17 -31 -39 -31 -16 0 -32 5 -35 10 -4 6 -11 8 -16 4 -5 -3 -7
-10 -3 -15 3 -5 0 -16 -6 -24 -10 -12 -9 -15 4 -15 19 0 21 -33 3 -49 -8 -6
-28 -14 -45 -17 -35 -7 -43 -31 -14 -40 34 -11 67 -29 78 -43 6 -8 16 -11 22
-7 7 4 12 2 12 -4 0 -8 -12 -10 -37 -6 -34 6 -43 2 -83 -34 -25 -22 -49 -40
-53 -40 -5 0 -6 -4 -2 -9 3 -6 17 -6 35 0 20 7 35 7 49 0 27 -15 41 -14 41 4
0 24 22 27 63 10 20 -8 37 -11 37 -7 0 9 92 6 119 -3 7 -3 31 0 52 5 29 8 39
16 39 31 0 11 -4 18 -9 14 -5 -3 -12 -1 -15 4 -3 5 10 25 29 45 21 22 35 46
35 61 0 29 -32 49 -66 41 -24 -6 -33 7 -14 19 6 4 7 11 4 17 -4 6 -9 22 -11
35 -1 12 -5 35 -7 49 -2 14 -15 38 -30 53 -19 19 -26 38 -26 65 0 45 -31 93
-63 99 -22 4 -22 4 2 6 15 1 21 6 18 15 -3 8 2 21 11 29 9 9 26 32 36 52 25
46 14 57 -55 58 -29 1 -47 3 -41 5 7 2 12 9 12 16 0 7 11 19 24 26 22 11 42
39 34 45 -2 1 -27 5 -55 8 -42 5 -53 3 -53 -8z"/>
<path d="M3314 2418 c-11 -26 -7 -68 6 -68 11 0 23 29 25 63 3 33 -18 36 -31
5z"/>
<path d="M1850 2255 c0 -8 -5 -15 -11 -15 -8 0 -8 -4 1 -15 10 -12 7 -15 -14
-21 -15 -4 -32 -1 -41 6 -22 18 -49 5 -36 -17 7 -14 4 -21 -17 -35 -27 -18
-27 -18 -5 -24 12 -3 24 -13 27 -21 7 -17 -31 -71 -56 -79 -10 -3 -18 -12 -18
-20 0 -8 -4 -14 -10 -14 -5 0 -7 -7 -4 -15 4 -8 12 -15 20 -15 8 0 14 -7 14
-15 0 -11 11 -15 40 -15 22 0 40 4 40 8 0 8 13 11 78 16 37 3 47 9 68 39 16
24 24 50 24 79 0 38 4 46 31 62 32 19 33 28 9 92 -9 23 -15 26 -40 21 -16 -4
-32 -2 -35 3 -10 16 -65 12 -65 -5z"/>
<path d="M2831 935 c-1 -6 -11 -15 -23 -20 -30 -13 -38 -84 -12 -110 16 -16
19 -16 30 -1 17 24 25 91 15 118 -6 13 -10 18 -10 13z"/>
<path d="M4095 830 c-3 -5 -1 -10 4 -10 6 0 11 5 11 10 0 6 -2 10 -4 10 -3 0
-8 -4 -11 -10z"/>
<path d="M2797 758 c-15 -11 -34 -17 -42 -14 -17 6 -22 -29 -5 -39 5 -3 8 -32
7 -63 -3 -55 8 -102 24 -102 4 0 14 9 22 20 9 12 20 18 30 14 12 -4 17 4 22
41 4 25 5 49 2 52 -4 3 -2 13 3 23 10 19 -7 77 -25 84 -6 2 -23 -5 -38 -16z"/>
<path d="M2327 667 c-33 -11 -33 -17 -1 -40 20 -15 28 -16 39 -7 32 27 4 61
-38 47z"/>
<path d="M2415 670 c3 -5 13 -10 21 -10 8 0 12 5 9 10 -3 6 -13 10 -21 10 -8
0 -12 -4 -9 -10z"/>
<path d="M2287 624 c-9 -10 4 -34 19 -34 8 0 14 3 14 6 0 10 -27 33 -33 28z"/>
<path d="M3985 580 c3 -5 11 -10 16 -10 6 0 7 5 4 10 -3 6 -11 10 -16 10 -6 0
-7 -4 -4 -10z"/>
<path d="M3690 545 c0 -8 4 -15 10 -15 5 0 7 7 4 15 -4 8 -8 15 -10 15 -2 0
-4 -7 -4 -15z"/>
<path d="M3970 316 c0 -23 3 -25 41 -20 22 3 46 0 53 -5 16 -13 118 19 124 38
3 10 0 10 -16 2 -11 -6 -22 -7 -24 -2 -2 5 -29 5 -62 0 -34 -4 -69 -4 -83 2
-33 12 -33 12 -33 -15z"/>
</g>
</svg>
