<?xml version="1.0" standalone="no"?>
<!DOCTYPE svg PUBLIC "-//W3C//DTD SVG 20010904//EN"
 "http://www.w3.org/TR/2001/REC-SVG-20010904/DTD/svg10.dtd">
<svg version="1.0" xmlns="http://www.w3.org/2000/svg"
 width="600.000000pt" height="451.000000pt" viewBox="0 0 600.000000 451.000000"
 preserveAspectRatio="xMidYMid meet">

<g transform="translate(0.000000,451.000000) scale(0.100000,-0.100000)"
fill="#000000" stroke="none">
<path d="M1242 3218 c3 -21 9 -23 71 -26 l67 -3 0 -824 0 -824 -67 -3 c-62 -3
-68 -5 -71 -25 l-3 -23 380 0 381 0 0 25 c0 24 -2 25 -65 25 l-65 0 0 825 0
825 65 0 c63 0 65 1 65 25 l0 25 -381 0 -380 0 3 -22z"/>
<path d="M2120 3215 c0 -24 2 -25 75 -25 l75 0 0 -825 0 -825 -75 0 c-73 0
-75 -1 -75 -25 l0 -25 684 0 684 0 6 28 c3 15 8 136 12 270 l6 242 -23 0 c-21
0 -28 -10 -48 -66 -50 -141 -178 -289 -304 -353 -84 -42 -152 -59 -274 -67
l-103 -7 0 408 0 408 74 -6 c154 -11 232 -84 292 -272 17 -54 27 -71 43 -73
l21 -3 0 370 c0 357 -1 371 -19 371 -13 0 -21 -9 -25 -32 -10 -56 -63 -155
-107 -203 -60 -65 -108 -87 -201 -93 l-78 -5 0 393 0 393 100 -7 c128 -8 192
-22 260 -56 91 -47 166 -138 242 -295 34 -72 44 -85 64 -85 20 0 24 4 20 23
-3 12 -8 94 -11 182 -3 88 -8 188 -11 223 l-6 62 -649 0 -649 0 0 -25z"/>
<path d="M3670 3215 c0 -25 1 -25 80 -25 l80 0 0 -825 0 -825 -80 0 c-79 0
-80 0 -80 -25 l0 -25 480 0 480 0 0 25 0 25 -155 0 -155 0 0 335 0 335 78 0
c256 0 506 69 615 169 175 161 183 539 15 701 -78 76 -228 129 -428 150 -52 5
-283 10 -512 10 l-418 0 0 -25z m812 -35 c52 -15 92 -51 116 -108 30 -69 46
-239 38 -406 -14 -304 -69 -394 -248 -412 l-68 -7 0 472 0 471 63 0 c34 0 79
-5 99 -10z"/>
</g>
</svg>
