<?xml version="1.0" standalone="no"?>
<!DOCTYPE svg PUBLIC "-//W3C//DTD SVG 20010904//EN"
 "http://www.w3.org/TR/2001/REC-SVG-20010904/DTD/svg10.dtd">
<svg version="1.0" xmlns="http://www.w3.org/2000/svg"
 width="600.000000pt" height="451.000000pt" viewBox="0 0 600.000000 451.000000"
 preserveAspectRatio="xMidYMid meet">

<g transform="translate(0.000000,451.000000) scale(0.100000,-0.100000)"
fill="#000000" stroke="none">
<path d="M662 3108 c3 -21 9 -23 71 -26 l67 -3 0 -824 0 -824 -67 -3 c-62 -3
-68 -5 -71 -25 l-3 -23 170 0 171 0 0 25 c0 24 -2 25 -70 25 l-70 0 0 779 c0
429 4 782 8 785 4 2 107 -360 227 -805 l220 -809 156 0 155 0 184 788 c100
433 186 796 191 807 4 11 8 -332 8 -762 l1 -783 -65 0 c-63 0 -65 -1 -65 -25
l0 -25 381 0 380 0 -3 23 c-3 20 -9 22 -70 25 l-68 3 0 824 0 825 70 0 c68 0
70 1 70 25 l0 25 -334 0 -334 0 -35 -147 c-19 -82 -86 -367 -148 -635 -63
-269 -116 -488 -119 -488 -3 0 -79 286 -170 635 l-163 635 -339 0 -339 0 3
-22z"/>
<path d="M2762 3108 c3 -21 9 -23 71 -26 l67 -3 0 -824 0 -824 -67 -3 c-62 -3
-68 -5 -71 -25 l-3 -23 380 0 381 0 0 25 c0 24 -2 25 -65 25 l-65 0 0 825 0
825 65 0 c63 0 65 1 65 25 l0 25 -381 0 -380 0 3 -22z"/>
<path d="M3580 3105 c0 -23 3 -24 67 -27 l67 -3 233 -410 c129 -225 246 -431
260 -457 l26 -47 -218 -366 -218 -365 -83 0 c-83 0 -84 0 -84 -25 l0 -25 255
0 255 0 0 25 0 25 -130 0 -129 0 195 325 c107 179 198 325 202 325 4 -1 88
-146 188 -323 l181 -322 -79 -3 c-75 -3 -78 -4 -78 -27 l0 -25 425 0 425 0 0
25 c0 24 -2 25 -74 25 l-74 0 -282 486 c-250 432 -281 489 -270 508 6 11 100
163 208 336 l198 315 82 3 c80 3 82 4 82 27 l0 25 -255 0 -255 0 0 -25 0 -24
130 -3 131 -3 -187 -298 c-102 -164 -190 -295 -194 -290 -8 8 -330 584 -330
590 0 2 38 3 85 3 84 0 85 0 85 25 l0 25 -420 0 -420 0 0 -25z"/>
</g>
</svg>
