<?xml version="1.0" encoding="UTF-8" standalone="no"?>
<svg
   xmlns:dc="http://purl.org/dc/elements/1.1/"
   xmlns:cc="http://creativecommons.org/ns#"
   xmlns:rdf="http://www.w3.org/1999/02/22-rdf-syntax-ns#"
   xmlns:svg="http://www.w3.org/2000/svg"
   xmlns="http://www.w3.org/2000/svg"
   xmlns:sodipodi="http://sodipodi.sourceforge.net/DTD/sodipodi-0.dtd"
   xmlns:inkscape="http://www.inkscape.org/namespaces/inkscape"
   width="1200"
   height="600"
   version="1.1"
   id="svg17"
   sodipodi:docname="Government_Ensign_of_the_United_Kingdom.svg"
   inkscape:version="0.92.2 (5c3e80d, 2017-08-06)">
  <metadata
     id="metadata23">
    <rdf:RDF>
      <cc:Work
         rdf:about="">
        <dc:format>image/svg+xml</dc:format>
        <dc:type
           rdf:resource="http://purl.org/dc/dcmitype/StillImage" />
        <dc:title></dc:title>
      </cc:Work>
    </rdf:RDF>
  </metadata>
  <defs
     id="defs21" />
  <sodipodi:namedview
     pagecolor="#ffffff"
     bordercolor="#666666"
     borderopacity="1"
     objecttolerance="10"
     gridtolerance="10"
     guidetolerance="10"
     inkscape:pageopacity="0"
     inkscape:pageshadow="2"
     inkscape:window-width="1920"
     inkscape:window-height="1057"
     id="namedview19"
     showgrid="false"
     inkscape:zoom="0.66939442"
     inkscape:cx="702.48693"
     inkscape:cy="121.50769"
     inkscape:window-x="-8"
     inkscape:window-y="-8"
     inkscape:window-maximized="1"
     inkscape:current-layer="svg17" />
  <clipPath
     id="c">
    <path
       d="M0,0V150H700V300H600zM0,300V350H300V0H600z"
       id="path2" />
  </clipPath>
  <rect
     width="1200"
     height="600"
     fill="#00247d"
     id="rect5"
     style="stroke:none" />
  <path
     d="M0,0 600,300M600,0 0,300"
     stroke="#fff"
     stroke-width="60"
     id="path7"
     style="fill:none" />
  <path
     d="M0,0 600,300M600,0 0,300"
     stroke="#cf142b"
     stroke-width="40"
     clip-path="url(#c)"
     id="path9"
     style="fill:none" />
  <path
     d="M0,150H700M300,0V350"
     stroke="#fff"
     stroke-width="100"
     id="path11"
     style="fill:none" />
  <path
     d="M0,150H700M300,0V350"
     stroke="#cf142b"
     stroke-width="60"
     id="path13"
     style="fill:none" />
  <path
     d="M0,300H600V0H1200V600H0z"
     id="path15"
     style="stroke:none"
     fill="#00247d" />
  <circle
     style="opacity:1;fill:#fcd116;fill-opacity:1;fill-rule:nonzero;stroke:none;stroke-width:2.14644289;stroke-linecap:round;stroke-linejoin:miter;stroke-miterlimit:4;stroke-dasharray:none;stroke-opacity:1;paint-order:stroke fill markers"
     id="path1373"
     cx="900"
     cy="300"
     r="140" />
  <g
     id="g2395"
     transform="matrix(37.395231,0,0,37.395063,239.96129,160.40636)">
    <path
       inkscape:connector-curvature="0"
       style="fill:#ee0000"
       d="m 19.336508,5.9641944 c -0.01289,-0.033609 -0.01417,-0.090317 -0.0028,-0.1260153 0.02145,-0.067641 -0.03375,-0.090853 -0.07133,-0.029994 -0.03563,0.057694 -0.07373,0.039942 -0.116662,-0.054365 -0.07782,-0.1709216 0.06585,-0.2947622 0.34196,-0.2947622 0.140576,0 0.175892,-0.038556 0.175892,-0.1920286 0,-0.069784 -0.03405,-0.092789 -0.235481,-0.159103 -0.293678,-0.096684 -0.546352,-0.2215708 -0.711347,-0.3515925 -0.119701,-0.094328 -0.13267,-0.097147 -0.225413,-0.048994 -0.05412,0.028101 -0.134333,0.042068 -0.178245,0.031038 -0.09795,-0.024604 -0.100013,7.542e-4 -0.01031,0.1268295 0.03824,0.053748 0.07357,0.1345109 0.07849,0.1794723 0.0082,0.074482 -0.0081,0.083866 -0.182913,0.1055732 -0.560385,0.069583 -0.708706,0.098456 -0.764266,0.148775 -0.09337,0.084566 -0.118907,0.066956 -0.09718,-0.067021 0.01878,-0.1158335 0.01531,-0.1211762 -0.0656,-0.1008543 -0.0723,0.01816 -0.08188,0.011471 -0.0623,-0.043521 0.01273,-0.035739 0.04493,-0.090478 0.07156,-0.1216412 0.04237,-0.049583 0.03844,-0.059467 -0.03147,-0.079127 -0.07913,-0.022253 -0.07922,-0.022976 -0.01012,-0.075779 0.132303,-0.1010897 0.23062,-0.1011162 0.423385,-1.139e-4 0.179289,0.093942 0.256894,0.09562 0.256894,0.00555 0,-0.024694 -0.03265,-0.074465 -0.07255,-0.1106033 -0.05155,-0.046679 -0.06719,-0.092493 -0.05405,-0.1582437 0.0177,-0.088561 0.01069,-0.093533 -0.162931,-0.1155285 -0.09979,-0.012642 -0.277464,-0.054427 -0.394842,-0.092857 l -0.213414,-0.069872 -0.257548,0.08532 c -0.141651,0.046925 -0.469481,0.1123984 -0.72851,0.1454956 -0.266231,0.034017 -0.494904,0.080968 -0.526038,0.1080067 -0.03029,0.026307 -0.06561,0.047829 -0.07849,0.047829 -0.03698,0 -0.02726,-0.1331556 0.01147,-0.1571061 0.06712,-0.041516 0.03708,-0.090916 -0.03259,-0.053597 -0.0973,0.052111 -0.117433,0.045107 -0.09684,-0.033685 0.0225,-0.086103 -0.03841,-0.091362 -0.101089,-0.00873 -0.04129,0.05444 -0.04647,0.047423 -0.04745,-0.064414 -0.0015,-0.1718808 0.09213,-0.2489397 0.326119,-0.2683586 0.160926,-0.013356 0.193783,-0.00523 0.238773,0.059051 0.0658,0.094011 0.144496,0.069112 0.297429,-0.094102 0.06236,-0.066551 0.113379,-0.1260083 0.113379,-0.1321274 0,-0.00612 -0.05504,-0.070914 -0.122306,-0.1439903 C 15.950504,3.6859338 15.82099,3.51741 15.729964,3.3845126 15.509691,3.0629178 15.334529,2.8905991 15.200663,2.8638058 c -0.08007,-0.016027 -0.122598,-0.051911 -0.156147,-0.1317623 -0.02775,-0.066043 -0.05578,-0.094078 -0.07039,-0.07041 -0.03723,0.060279 -0.07981,0.046937 -0.10029,-0.031419 -0.01174,-0.044935 0.01363,-0.1089349 0.06953,-0.1754266 0.09102,-0.1082591 0.111791,-0.1106983 0.416488,-0.048917 0.04096,0.00831 0.134873,0.094355 0.208687,0.1912207 0.07381,0.096865 0.222554,0.2455799 0.330532,0.330477 l 0.196323,0.1543575 0.04739,-0.094473 c 0.07913,-0.157759 0.07985,-0.1665919 0.0084,-0.1032018 -0.03789,0.033603 -0.07943,0.061097 -0.09231,0.061097 -0.04409,0 -0.02343,-0.1248561 0.04187,-0.2530485 0.03844,-0.075457 0.05074,-0.133017 0.0299,-0.1399675 -0.02179,-0.00727 -0.01443,-0.058131 0.01915,-0.1323375 0.03,-0.066292 0.06496,-0.1567068 0.07769,-0.2009216 0.01786,-0.062006 0.03374,-0.071599 0.06944,-0.041946 0.03375,0.028027 0.05283,0.027862 0.07041,-6.087e-4 0.04688,-0.075914 0.170833,-0.099197 0.25246,-0.047424 0.09232,0.058552 0.102504,0.027856 0.02076,-0.062542 -0.05401,-0.059731 -0.05345,-0.063832 0.0087,-0.063631 0.03655,1.184e-4 0.107066,0.021422 0.156698,0.047341 0.07581,0.039589 0.100587,0.039555 0.154934,-2.145e-4 0.07015,-0.051333 0.225788,-0.064713 0.225788,-0.019411 0,0.015361 -0.01962,0.048706 -0.04361,0.074099 -0.03598,0.038095 -0.02994,0.039131 0.03457,0.00592 0.06174,-0.031784 0.09989,-0.029012 0.181419,0.013182 0.130397,0.067482 0.141172,0.066907 0.143498,-0.00767 0.001,-0.033604 0.0415,0.046365 0.08989,0.1777063 0.08604,0.2335265 0.08799,0.3216694 0.0053,0.2389179 -0.05043,-0.050465 -0.0971,-0.053542 -0.0971,-0.0064 0,0.019202 0.02282,0.034913 0.0507,0.034913 0.02789,0 0.07891,0.037562 0.11338,0.083472 l 0.06268,0.083472 0.146204,-0.1346583 c 0.164792,-0.1517775 0.271612,-0.1896853 0.44355,-0.157405 0.174082,0.032683 0.299841,0.1447952 0.299841,0.2673033 0,0.066408 0.01787,0.1022039 0.05102,0.1022039 0.126088,0 0.445068,0.1550181 0.582777,0.2832176 0.128428,0.1195589 0.138034,0.1371613 0.06393,0.1171387 -0.04797,-0.012961 -0.284233,-0.033717 -0.525033,-0.046126 -0.484097,-0.024945 -0.604042,-0.069918 -0.672819,-0.2522684 -0.04385,-0.1162637 -0.116408,-0.1549023 -0.18457,-0.09829 -0.0804,0.066778 -0.05433,0.1558463 0.08882,0.3034672 0.119436,0.1231649 0.162454,0.1439208 0.340139,0.1641167 0.485368,0.055168 0.862337,0.1277736 0.98183,0.1891017 0.32336,0.1659598 0.388303,0.3951357 0.188878,0.6665181 -0.119764,0.1629805 -0.137354,0.2757618 -0.07695,0.4933879 0.03614,0.13019 0.09822,0.1680136 0.278338,0.1695537 0.06548,5.593e-4 0.108581,0.037653 0.172955,0.1488553 0.116311,0.2009204 0.135095,0.6239383 0.03345,0.7532596 -0.03677,0.046784 -0.06686,0.1143655 -0.06686,0.1501802 0,0.035814 -0.01256,0.065117 -0.02791,0.065117 -0.0498,0 -0.111635,-0.082155 -0.111635,-0.1483106 0,-0.056376 -0.01965,-0.050987 -0.155694,0.042682 -0.08563,0.05896 -0.169636,0.1321325 -0.186676,0.1626045 -0.02773,0.049583 -0.03344,0.048984 -0.05441,-0.0057 z m 0.08281,-2.1598696 c 0,-0.026813 -0.05224,-0.094654 -0.116088,-0.1507567 C 19.175293,3.5411552 18.845633,3.4563948 18.372734,3.414325 L 18.111088,3.3910496 17.860265,3.1332865 C 17.606966,2.8729781 17.50271,2.7959059 17.63977,2.9702809 c 0.05608,0.071347 0.07203,0.1338832 0.06458,0.253117 -0.0098,0.1570985 -0.0085,0.1591055 0.1629,0.2521577 0.218274,0.1184827 0.516435,0.1937547 0.942712,0.237991 0.183882,0.019082 0.376588,0.057654 0.428235,0.085714 0.119795,0.065088 0.181119,0.066802 0.181119,0.00506 z"
       id="path2176" />
    <path
       inkscape:connector-curvature="0"
       style="fill:#980500"
       d="m 19.332754,5.9544049 c -0.01082,-0.028225 -0.01041,-0.080527 9.07e-4,-0.1162258 0.02318,-0.073104 0.0045,-0.079933 -0.08612,-0.031419 -0.04996,0.02676 -0.07057,0.015835 -0.102525,-0.054364 -0.07716,-0.1694682 0.06752,-0.2933386 0.342608,-0.2933386 0.140576,0 0.175892,-0.038556 0.175892,-0.1920286 0,-0.069784 -0.03405,-0.092789 -0.235481,-0.159103 -0.293681,-0.096683 -0.546355,-0.2215704 -0.71135,-0.3515921 -0.119701,-0.094328 -0.13267,-0.097147 -0.225413,-0.048994 -0.05412,0.028101 -0.134333,0.042068 -0.178245,0.031038 -0.09795,-0.024604 -0.100013,7.542e-4 -0.01031,0.1268295 0.03824,0.053748 0.07357,0.1345109 0.07849,0.1794723 0.0082,0.074482 -0.0081,0.083866 -0.182913,0.1055732 -0.560385,0.069583 -0.708706,0.098456 -0.764266,0.148775 -0.09337,0.084566 -0.118907,0.066956 -0.09718,-0.067021 0.01878,-0.1158335 0.01531,-0.1211762 -0.0656,-0.1008543 -0.0723,0.01816 -0.08188,0.011471 -0.0623,-0.043521 0.01273,-0.035739 0.04493,-0.090478 0.07156,-0.1216412 0.04237,-0.049583 0.03844,-0.059467 -0.03147,-0.079127 -0.07913,-0.022253 -0.07922,-0.022976 -0.01012,-0.075779 0.132303,-0.1010897 0.23062,-0.1011162 0.423385,-1.139e-4 0.179289,0.093942 0.256894,0.09562 0.256894,0.00555 0,-0.024694 -0.0314,-0.073333 -0.06977,-0.1080889 -0.0766,-0.069369 -0.09013,-0.1576717 -0.03294,-0.2149085 C 17.842337,4.467652 17.792937,4.449742 17.650778,4.433448 17.53938,4.42068 17.352201,4.378549 17.234823,4.339824 l -0.213414,-0.070408 -0.257548,0.08532 c -0.141651,0.046925 -0.469481,0.1123984 -0.72851,0.1454956 -0.266231,0.034017 -0.494904,0.080968 -0.526038,0.1080067 -0.03029,0.026307 -0.06561,0.047829 -0.07849,0.047829 -0.03925,0 -0.02609,-0.123008 0.01786,-0.1669981 0.0227,-0.022722 0.03029,-0.052311 0.01686,-0.065752 -0.01343,-0.013442 -0.043,-0.00585 -0.0657,0.016874 -0.06343,0.063477 -0.107274,0.049107 -0.08699,-0.028512 0.0225,-0.086103 -0.03841,-0.091362 -0.101089,-0.00873 -0.04129,0.05444 -0.04647,0.047423 -0.04745,-0.064414 -0.0015,-0.1690538 0.0859,-0.2406896 0.323567,-0.265238 0.170247,-0.017585 0.197662,-0.011324 0.238752,0.054519 0.02553,0.040912 0.06681,0.074386 0.09174,0.074386 0.04208,0 0.321644,-0.2604863 0.321644,-0.2996918 0,-0.00966 -0.04094,-0.060089 -0.09097,-0.1120561 -0.05003,-0.051965 -0.18272,-0.2201692 -0.294858,-0.3737846 -0.333623,-0.4570275 -0.377748,-0.5024875 -0.526702,-0.5426262 -0.104978,-0.02829 -0.15017,-0.063783 -0.184131,-0.1446142 -0.02717,-0.064673 -0.05463,-0.091538 -0.0693,-0.067796 -0.03723,0.060279 -0.07981,0.046937 -0.10029,-0.031419 -0.01174,-0.044935 0.01363,-0.1089349 0.06953,-0.1754266 0.09102,-0.1082591 0.111791,-0.1106983 0.416488,-0.048917 0.04096,0.00831 0.134873,0.094355 0.208687,0.1912207 0.07381,0.096865 0.222554,0.2455799 0.330532,0.330477 l 0.196323,0.1543575 0.04739,-0.094473 c 0.07913,-0.157759 0.07985,-0.1665919 0.0084,-0.1032018 -0.03789,0.033603 -0.07943,0.061097 -0.09231,0.061097 -0.04409,0 -0.02343,-0.1248561 0.04187,-0.2530485 0.03844,-0.075457 0.05074,-0.133017 0.0299,-0.1399675 -0.02179,-0.00727 -0.01443,-0.058131 0.01915,-0.1323375 0.03,-0.066292 0.06496,-0.1567068 0.07769,-0.2009216 0.01786,-0.062006 0.03374,-0.071599 0.06944,-0.041946 0.03375,0.028027 0.05283,0.027862 0.07041,-6.087e-4 0.04688,-0.075914 0.170833,-0.099197 0.25246,-0.047424 0.04317,0.027382 0.07849,0.034864 0.07849,0.016627 0,-0.018236 0.01962,-0.03991 0.04361,-0.048162 0.02398,-0.00825 0.01671,-0.011027 -0.01616,-0.00616 -0.03287,0.00486 -0.07797,-0.013103 -0.100208,-0.039924 -0.05445,-0.065653 0.05563,-0.06639 0.180444,-0.00121 0.07581,0.039589 0.100587,0.039555 0.154934,-2.145e-4 0.07015,-0.051333 0.225788,-0.064713 0.225788,-0.019411 0,0.015361 -0.01962,0.048706 -0.04361,0.074099 -0.03598,0.038095 -0.02994,0.039131 0.03457,0.00592 0.06174,-0.031784 0.09989,-0.029012 0.181419,0.013182 0.130397,0.067482 0.141172,0.066907 0.143498,-0.00767 0.001,-0.033604 0.0415,0.046365 0.08989,0.1777063 0.08604,0.2335265 0.08799,0.3216694 0.0053,0.2389179 -0.05043,-0.050465 -0.0971,-0.053542 -0.0971,-0.0064 0,0.019202 0.02282,0.034913 0.0507,0.034913 0.02788,0 0.07891,0.037562 0.11338,0.083472 l 0.06268,0.083472 0.146204,-0.1346583 c 0.08041,-0.074062 0.186482,-0.1447749 0.235711,-0.1571403 0.222299,-0.055835 0.50768,0.089622 0.50768,0.2587628 0,0.083409 0.02051,0.099772 0.183152,0.1461112 0.100734,0.0287 0.183393,0.067774 0.183687,0.086829 2.94e-4,0.019055 0.01396,0.055853 0.03038,0.08177 0.02422,0.03825 0.01591,0.039662 -0.04414,0.0075 -0.05173,-0.027705 -0.07398,-0.028292 -0.07398,-0.00195 0,0.020719 -0.01962,0.033896 -0.04361,0.029282 -0.02398,-0.00461 -0.116854,0.00332 -0.206377,0.017624 -0.116702,0.018651 -0.200626,0.010765 -0.296531,-0.027865 l -0.133763,-0.053878 0.08236,0.069636 c 0.07001,0.059191 0.133451,0.069636 0.422994,0.069636 0.187349,0 0.393618,0.00954 0.458376,0.021192 l 0.11774,0.021188 -0.130964,-0.096693 C 19.09422,3.0124164 19.0423,2.9618905 19.050866,2.9533177 c 0.02078,-0.020799 0.194042,0.1043944 0.281239,0.2032177 l 0.06977,0.079073 -0.08722,-0.02656 c -0.04797,-0.014608 -0.284233,-0.036713 -0.525032,-0.049122 -0.484098,-0.024945 -0.604043,-0.069918 -0.67282,-0.2522684 -0.04385,-0.1162637 -0.116408,-0.1549023 -0.18457,-0.09829 -0.08045,0.066815 -0.05431,0.1558691 0.08916,0.3038216 0.111514,0.1149951 0.168429,0.145226 0.305254,0.1621362 0.588129,0.072689 0.899995,0.1310081 1.014327,0.1896838 0.325469,0.167034 0.39082,0.3955342 0.190919,0.6675645 -0.119763,0.1629758 -0.137353,0.2757571 -0.07695,0.4933832 0.03613,0.13019 0.09822,0.1680136 0.278338,0.1695537 0.06548,5.593e-4 0.108581,0.037653 0.172954,0.1488553 0.116312,0.2009204 0.135096,0.6239383 0.03345,0.7532596 -0.03677,0.046784 -0.06686,0.1143655 -0.06686,0.1501802 0,0.035814 -0.01256,0.065117 -0.02791,0.065117 -0.04966,0 -0.111635,-0.082081 -0.111635,-0.1478614 0,-0.081456 -0.08095,-0.042408 -0.257468,0.1242006 -0.0952,0.089853 -0.127887,0.1047374 -0.143069,0.065143 z M 19.57798,5.7562496 19.768178,5.6344894 v 0.1043039 c 0,0.1344217 0.03536,0.131689 0.121406,-0.00938 0.107835,-0.1767871 0.104067,-0.5574093 -0.0074,-0.7504035 -0.06231,-0.107846 -0.10802,-0.1483789 -0.16735,-0.1483789 -0.16434,0 -0.255042,-0.061588 -0.293195,-0.1990855 -0.0617,-0.2223703 -0.04613,-0.3784222 0.04905,-0.4916331 0.146217,-0.1739017 0.169511,-0.2777666 0.09466,-0.4221011 -0.117815,-0.2271974 -0.28989,-0.283072 -1.261561,-0.4096454 -0.278803,-0.036318 -0.553366,-0.3893867 -0.412463,-0.5303976 0.06489,-0.064941 0.158054,-0.049671 0.217804,0.035699 0.04803,0.068619 0.05431,0.070143 0.05431,0.013181 0,-0.046465 0.01215,-0.054899 0.04361,-0.030267 0.02398,0.01878 0.08119,0.04339 0.127126,0.05469 0.116135,0.028569 0.0455,-0.037673 -0.125119,-0.1173463 l -0.13283,-0.062025 0.116063,-0.00283 c 0.08477,-0.00206 0.144278,0.025409 0.220722,0.101911 0.08161,0.08167 0.13288,0.1035858 0.232798,0.099507 0.105338,-0.0043 0.111067,-0.00782 0.0322,-0.019776 -0.07955,-0.012059 -0.09594,-0.032034 -0.09594,-0.1169627 0,-0.2313278 -0.292096,-0.3429771 -0.545429,-0.2084814 -0.185363,0.09841 -0.250861,0.169863 -0.275334,0.3003726 -0.02468,0.1316269 0.0738,0.2932418 0.261683,0.4294496 0.117393,0.085104 0.189014,0.1063799 0.428509,0.1272946 0.455451,0.039772 0.793585,0.1374012 0.906786,0.2618131 0.171548,0.1885435 0.103994,0.287561 -0.129556,0.1899032 -0.07402,-0.030952 -0.285125,-0.071343 -0.469117,-0.089758 C 18.36809,3.7049605 17.914487,3.5764258 17.733183,3.4532945 17.607456,3.3679096 17.60524,3.3676755 17.60524,3.4397852 c 0,0.083849 -0.129101,0.3085543 -0.177276,0.3085543 -0.01762,0 -0.03385,-0.05106 -0.03605,-0.1134658 l -0.004,-0.1134665 -0.02536,0.1308082 c -0.02383,0.1228814 -0.120623,0.270687 -0.177268,0.270687 -0.01398,0 -0.03453,-0.034898 -0.04568,-0.077552 l -0.02026,-0.077552 -0.09909,0.095009 c -0.125276,0.1201127 -0.15608,0.1190415 -0.263883,-0.00917 l -0.0876,-0.10418 -0.03205,0.095451 -0.03206,0.095452 -0.08146,-0.091045 -0.08146,-0.091045 -0.202597,0.1541924 c -0.111427,0.084807 -0.214634,0.1745433 -0.229347,0.1994151 -0.03272,0.055308 -0.160983,0.1252402 -0.229706,0.1252402 -0.0278,0 -0.05876,-0.031422 -0.0688,-0.069826 -0.0102,-0.039023 -0.04758,-0.069825 -0.08476,-0.069825 -0.08084,0 -0.253996,0.1733506 -0.253996,0.254278 0,0.04969 0.01308,0.052476 0.08736,0.018603 0.120716,-0.055043 0.143939,-0.015108 0.05616,0.096571 -0.09054,0.1151931 -0.09713,0.1862367 -0.0099,0.107279 0.03509,-0.031779 0.112656,-0.05778 0.172371,-0.05778 0.05972,0 0.118277,-0.015711 0.130135,-0.034912 0.01186,-0.019202 0.0049,-0.034913 -0.01538,-0.034913 -0.02032,0 -0.03695,-0.016958 -0.03695,-0.037686 0,-0.023823 0.03902,-0.029109 0.106088,-0.014368 0.05835,0.012825 0.125067,0.0078 0.148266,-0.011176 0.0232,-0.018973 0.138313,-0.083205 0.255811,-0.1427388 0.169741,-0.086005 0.257541,-0.1082433 0.427355,-0.1082433 0.117546,0 0.213721,0.014234 0.213721,0.031631 0,0.045626 -0.304581,0.1427717 -0.451012,0.143848 -0.06854,5.03e-4 -0.187403,0.030653 -0.264153,0.066999 l -0.139543,0.066083 0.122101,0.00102 c 0.06716,5.55e-4 0.26339,-0.038677 0.436076,-0.087187 0.390289,-0.1096379 0.425978,-0.1105667 0.758796,-0.019733 0.151066,0.041228 0.447429,0.084386 0.671557,0.097796 l 0.401167,0.024002 0.0044,-0.1535027 0.0044,-0.1535021 0.02371,0.1396505 c 0.01304,0.076808 0.04165,0.1724268 0.06358,0.2124871 0.113335,0.2070811 0.535931,0.4668359 0.959277,0.5896395 0.180063,0.052233 0.200545,0.067762 0.200118,0.1517203 -0.0011,0.2111553 -0.03151,0.2506392 -0.193195,0.2506392 -0.163869,0 -0.32962,0.049799 -0.32962,0.099033 0,0.017015 0.04317,0.023129 0.09594,0.013588 l 0.09594,-0.017348 -0.09777,0.078538 c -0.126976,0.1019952 -0.104621,0.1184258 0.07489,0.055043 0.07974,-0.028156 0.144986,-0.036179 0.144986,-0.01783 0,0.018351 -0.01515,0.033365 -0.03366,0.033365 -0.01851,0 -0.05046,0.031421 -0.071,0.069826 -0.05106,0.095479 -0.02637,0.088856 0.19355,-0.051936 z m 0.252028,-0.1978143 c -0.01219,-0.031751 -0.01372,-0.090075 -0.0034,-0.1296098 0.01033,-0.039535 -0.0064,-0.1459682 -0.03727,-0.2365193 -0.07232,-0.2123973 -0.07185,-0.2141373 0.03116,-0.1172868 0.09037,0.084967 0.111334,0.2549423 0.05597,0.4538645 -0.01952,0.070121 -0.02865,0.075931 -0.04647,0.029551 z M 19.297215,4.904571 C 18.726193,4.738882 18.498625,4.4639197 18.619218,4.0853696 l 0.0462,-0.1450109 0.02151,0.170652 c 0.0278,0.2205601 0.12043,0.3006687 0.347677,0.3006687 0.159133,0 0.165046,0.00357 0.148602,0.089653 -0.01406,0.073603 0.0179,0.123604 0.178527,0.2793016 0.107609,0.1043061 0.184212,0.188528 0.170229,0.1871601 -0.01398,-0.00137 -0.119616,-0.029818 -0.23474,-0.063223 z M 18.058759,4.3242433 c -0.124718,-0.023375 -0.323371,-0.0347 -0.441451,-0.025165 -0.274775,0.022186 -0.535359,-0.08596 -0.535359,-0.222183 0,-0.069719 0.01747,-0.084167 0.101805,-0.084167 0.139726,0 0.212169,-0.032492 0.212169,-0.09516 0,-0.040229 0.02696,-0.03227 0.11338,0.033473 0.182851,0.1391 0.314275,0.1947867 0.561309,0.2378385 0.210677,0.036716 0.23235,0.048299 0.23235,0.1241899 0,0.046033 -0.0039,0.081442 -0.0087,0.078687 -0.0048,-0.00276 -0.110763,-0.024137 -0.235481,-0.047512 z m 0.352036,-1.636911 c -0.02629,-0.031705 -0.09886,-0.056197 -0.166493,-0.056197 -0.07104,0 -0.111104,-0.014224 -0.09833,-0.034913 0.06181,-0.1000799 0.36088,-0.00117 0.32472,0.1073923 -0.0087,0.02608 -0.02945,0.020436 -0.0599,-0.016282 z m -0.49158,2.459426 c 0.4974,-0.056714 0.476561,-0.043712 0.367777,-0.229479 -0.05071,-0.086599 -0.08264,-0.1729419 -0.07094,-0.1918749 0.01169,-0.018933 0.0822,-0.034424 0.156685,-0.034424 0.07448,0 0.142701,-0.011783 0.151591,-0.026184 0.01932,-0.031295 -0.381947,-0.034223 -0.413131,-0.00302 -0.0119,0.011909 0.003,0.08075 0.03319,0.1529801 0.03016,0.072231 0.0507,0.1349405 0.04565,0.1393544 -0.03426,0.029953 -0.166167,-0.063791 -0.166167,-0.1180854 0,-0.036671 -0.02405,-0.086648 -0.05344,-0.1110608 -0.04668,-0.038767 -0.04921,-0.033247 -0.01999,0.043667 0.0672,0.1768875 -0.09045,0.2191807 -0.296192,0.079456 -0.143927,-0.097746 -0.248824,-0.1100048 -0.344183,-0.040224 -0.05849,0.042798 -0.05041,0.049528 0.08927,0.074356 l 0.153575,0.027299 -0.117889,0.026895 c -0.06484,0.014792 -0.131075,0.048102 -0.14719,0.074022 -0.023,0.036997 0.01171,0.049378 0.161496,0.057597 0.10494,0.00576 0.190798,0.025696 0.190798,0.044307 0,0.01861 -0.03699,0.024544 -0.0822,0.013188 -0.05246,-0.013175 -0.10295,1.19e-4 -0.139544,0.036742 -0.08869,0.088757 -0.06783,0.1293631 0.03859,0.075136 0.05277,-0.026885 0.260774,-0.067677 0.462241,-0.090648 z M 17.047062,3.7218878 c 0,-0.070247 0.08022,-0.034329 0.125782,0.056322 0.04674,0.092988 0.101556,0.04472 0.133268,-0.117347 l 0.02046,-0.1045431 -0.03965,0.1009651 -0.03965,0.1009644 -0.04609,-0.1096922 c -0.06263,-0.1490547 -0.125299,-0.1378042 -0.207346,0.037221 -0.03788,0.080803 -0.08625,0.152062 -0.10749,0.1583532 -0.02124,0.00629 -0.06902,-0.058829 -0.106162,-0.144711 -0.07685,-0.1776614 -0.13363,-0.1726489 -0.186497,0.016461 l -0.03347,0.1197399 0.07158,-0.087282 c 0.04576,-0.055806 0.07777,-0.072176 0.08876,-0.045393 0.0095,0.023039 0.04943,0.082913 0.08885,0.1330537 l 0.07165,0.091164 0.08301,-0.078042 c 0.04565,-0.042923 0.08301,-0.1001786 0.08301,-0.1272342 z m 2.372255,0.085353 c 0,-0.083135 -0.191589,-0.2314619 -0.367633,-0.2846196 -0.09521,-0.028749 -0.337938,-0.069822 -0.539406,-0.091273 -0.412531,-0.043926 -0.482192,-0.08004 -0.736444,-0.3817979 -0.151283,-0.1795494 -0.268611,-0.2479026 -0.136064,-0.079269 0.0534,0.067944 0.07201,0.1350335 0.06573,0.2370837 -0.0048,0.078279 0.0038,0.1626241 0.01911,0.1874326 0.07208,0.116718 0.580532,0.2663623 1.081755,0.3183761 0.185858,0.019288 0.38018,0.058027 0.431828,0.086088 0.118101,0.064167 0.181119,0.066944 0.181119,0.00798 z M 16.458408,3.4949891 c 0.05253,0.013748 0.07008,0.00567 0.05913,-0.027203 -0.0086,-0.025714 -0.03323,-0.052645 -0.05482,-0.059846 -0.04708,-0.015705 -0.183153,0.1132741 -0.183153,0.1736044 0,0.023474 0.02343,0.0092 0.05207,-0.031713 0.03596,-0.051378 0.07518,-0.068346 0.126772,-0.054842 z m 1.080578,-0.186467 c -0.02231,-0.061754 -0.03616,-0.1324501 -0.03077,-0.1571004 0.0054,-0.02465 -0.01767,-0.050831 -0.05125,-0.058181 -0.07557,-0.016538 -0.08138,0.071062 -0.0087,0.1314092 0.02878,0.023904 0.05233,0.089561 0.05233,0.145905 0,0.097324 -0.0037,0.099858 -0.07378,0.050728 -0.09001,-0.063093 -0.170426,-0.038216 -0.170426,0.052719 0,0.056241 0.01135,0.06124 0.06898,0.030376 0.05567,-0.029815 0.07741,-0.023425 0.112699,0.033122 0.04259,0.068246 0.04499,0.06764 0.09261,-0.023315 0.03896,-0.074417 0.04065,-0.1161827 0.0083,-0.2056626 z m -1.69702,0.04705 c -0.01348,-0.062406 -0.06209,-0.1880919 -0.108018,-0.279301 -0.04593,-0.091209 -0.07609,-0.1658351 -0.06702,-0.1658351 0.0091,0 0.07431,0.039277 0.145001,0.087282 0.07069,0.048005 0.145166,0.087282 0.165514,0.087282 0.04244,0 0.03073,-0.011342 -0.173724,-0.1682484 -0.07944,-0.060967 -0.204297,-0.1894027 -0.27746,-0.2854141 -0.139927,-0.1836236 -0.23981,-0.2422309 -0.30376,-0.178234 -0.02788,0.027899 -0.01356,0.038381 0.05243,0.038381 0.07024,0 0.09935,0.024598 0.128661,0.1087482 0.04401,0.1263601 0.0264,0.1705528 -0.068,0.1705528 -0.09622,0 -0.08348,0.043146 0.03219,0.1089874 0.05471,0.03114 0.183079,0.176463 0.285273,0.3229412 0.102193,0.1464782 0.192021,0.2663244 0.199617,0.2663244 0.0076,0 0.0028,-0.05106 -0.0107,-0.1134664 z m 1.149914,-0.012463 c 0.06857,-0.026333 0.07251,-0.083547 0.0058,-0.083547 -0.02718,0 -0.05546,-0.018119 -0.06283,-0.040267 -0.0091,-0.027394 -0.04418,-0.020095 -0.109647,0.022836 -0.07203,0.04723 -0.08474,0.070397 -0.05055,0.092101 0.05442,0.034536 0.141213,0.038082 0.217267,0.00888 z m 0.667123,-0.1859619 c -0.01265,-0.020479 -0.03969,-0.037236 -0.06009,-0.037236 -0.02313,0 -0.02049,0.020033 0.007,0.053213 0.04785,0.057696 0.09061,0.044821 0.05306,-0.015978 z m -1.274776,-0.00232 c 0,-0.019202 -0.03232,-0.034913 -0.07183,-0.034913 -0.03951,0 -0.06213,0.015711 -0.05027,0.034913 0.02799,0.04533 0.122101,0.04533 0.122101,0 z M 17.578041,2.970994 c -0.0523,-0.055709 -0.06472,-0.094417 -0.04203,-0.1309227 0.0266,-0.042797 0.04456,-0.044172 0.103052,-0.00789 0.07124,0.044189 0.09175,0.022772 0.04414,-0.046095 -0.0141,-0.020389 -0.07273,-0.036099 -0.130288,-0.034912 -0.09204,0.0019 -0.105977,0.015839 -0.115591,0.1156247 -0.009,0.093911 0.0011,0.1134658 0.05899,0.1134658 0.03846,0 0.07963,0.01571 0.09148,0.034912 0.01186,0.019202 0.03122,0.034913 0.04303,0.034913 0.01181,0 -0.01195,-0.035592 -0.05278,-0.079093 z m -0.810067,-0.02279 c 0,-0.017632 0.0085,-0.054287 0.01894,-0.081456 0.01415,-0.036897 -0.0057,-0.046201 -0.07849,-0.036767 -0.09367,0.012143 -0.218271,-0.037188 -0.183023,-0.072462 0.02935,-0.029369 0.690759,-0.038624 0.719296,-0.010065 0.03627,0.036294 -0.0563,0.091955 -0.154025,0.092621 -0.04484,3.05e-4 -0.07849,0.022105 -0.07849,0.050843 0,0.070755 0.0586,0.099007 0.0815,0.039291 0.01047,-0.027308 0.06314,-0.054711 0.117035,-0.060897 0.08676,-0.00996 0.09738,-0.024517 0.0926,-0.1270118 -0.0058,-0.1247322 -0.104547,-0.2629559 -0.169907,-0.2378557 -0.02209,0.00848 -0.08692,-0.00724 -0.144061,-0.034937 -0.09064,-0.043932 -0.116404,-0.043868 -0.201863,5.023e-4 -0.05388,0.027974 -0.117042,0.043535 -0.140362,0.03458 -0.02332,-0.00896 -0.06151,0.00676 -0.08487,0.034928 -0.03543,0.042724 -0.03057,0.048098 0.0293,0.03243 0.04024,-0.01053 0.07176,-0.00195 0.07176,0.019538 0,0.021076 -0.03811,0.047892 -0.08469,0.059592 -0.153892,0.038653 -0.151985,0.2244463 0.0023,0.2244463 0.04652,0 0.09361,0.023567 0.104659,0.052369 0.02189,0.057089 0.08239,0.072004 0.08239,0.020312 z m -0.03489,-0.3657027 c 0,-0.00755 0.02436,-0.023077 0.05414,-0.034513 0.03104,-0.011922 0.04505,-0.00607 0.03283,0.013721 -0.02049,0.033174 -0.08697,0.049067 -0.08697,0.020792 z m 1.848963,0.3628478 c -0.04797,-0.015374 -0.118613,-0.029278 -0.156988,-0.030899 -0.05748,-0.00243 -0.06055,0.00302 -0.01744,0.030899 0.02878,0.018613 0.09943,0.032518 0.156987,0.030898 0.10256,-0.00289 0.102909,-0.00351 0.01744,-0.030898 z m -2.23271,-0.065551 c 0,-0.08448 -0.07656,-0.1479664 -0.134918,-0.1118745 -0.03519,0.021766 -0.03216,0.033127 0.01351,0.050667 0.03427,0.013159 0.05053,0.044374 0.03891,0.074684 -0.01211,0.03159 1.86e-4,0.052075 0.03127,0.052075 0.02818,0 0.05123,-0.029498 0.05123,-0.065552 z m 0.774035,-0.097949 c -0.02518,-0.010086 -0.05527,-0.00884 -0.06686,0.00276 -0.01159,0.011601 0.009,0.019852 0.04579,0.018336 0.04064,-0.00167 0.04891,-0.00995 0.02108,-0.021092 z M 17.60524,2.6485919 c -0.02389,-0.028804 -0.06898,-0.051813 -0.100208,-0.051132 -0.03907,8.517e-4 -0.02958,0.0168 0.03044,0.051132 0.111955,0.064048 0.122887,0.064048 0.06977,0 z m -2.466132,-0.09807 c -0.01073,-0.017369 -0.0322,-0.011014 -0.04772,0.014122 -0.01552,0.025136 -0.01945,0.059912 -0.0087,0.07728 0.01073,0.017368 0.0322,0.011013 0.04773,-0.014123 0.01552,-0.025136 0.01945,-0.059911 0.0087,-0.07728 z m 1.123941,0.052443 c -0.01074,-0.010749 -0.03889,-2.15e-5 -0.06256,0.023839 -0.0342,0.03448 -0.03019,0.03849 0.01953,0.019544 0.03441,-0.013111 0.05377,-0.032633 0.04303,-0.043382 z m -1.274266,-0.043715 c 0,-0.018069 -0.0157,-0.032852 -0.03489,-0.032852 -0.01919,0 -0.03488,0.024493 -0.03488,0.054429 0,0.029936 0.0157,0.04472 0.03488,0.032852 0.01919,-0.011867 0.03489,-0.036361 0.03489,-0.054429 z m 1.40184,-0.07533 c -0.02503,-0.025052 -0.04128,-0.027113 -0.04128,-0.00524 0,0.046601 0.04126,0.087889 0.06454,0.064588 0.0099,-0.00992 -5.52e-4,-0.036628 -0.02326,-0.059351 z m 1.052802,0.025021 c 0.01104,-0.028803 0.0544,-0.052369 0.09635,-0.052369 0.07422,0 0.07456,-0.0019 0.01275,-0.070243 -0.04641,-0.051316 -0.09955,-0.067778 -0.197224,-0.061097 -0.07354,0.00503 -0.128496,0.024856 -0.122131,0.044059 0.0064,0.019202 0.02596,0.030299 0.04355,0.024659 0.128459,-0.041189 0.198911,-0.046129 0.228961,-0.016055 0.02326,0.023275 0.005,0.042429 -0.05488,0.05746 -0.04937,0.012401 -0.08977,0.045815 -0.08977,0.074252 0,0.067241 0.05652,0.066785 0.08239,-6.66e-4 z m -1.192201,-0.076218 c -0.02518,-0.010086 -0.05527,-0.00884 -0.06686,0.00276 -0.01159,0.011601 0.009,0.019852 0.04579,0.018336 0.04064,-0.00167 0.04891,-0.00995 0.02108,-0.021093 z m 0.70664,-0.1245297 c -0.03336,-0.1086065 -0.04905,-0.1194956 -0.08659,-0.060086 -0.04198,0.066435 -0.04254,0.1134266 -0.0011,0.087761 0.01786,-0.011047 0.04234,-0.00412 0.05439,0.015396 0.0388,0.062821 0.0581,0.037818 0.03325,-0.043071 z m -0.53003,0.020519 c -0.02398,-0.00969 -0.06323,-0.00969 -0.08722,0 -0.02398,0.00968 -0.0044,0.017609 0.04361,0.017609 0.04797,0 0.06759,-0.00792 0.04361,-0.017609 z m 0.913501,-0.1550997 c -0.02601,-0.042112 -0.154728,-0.03998 -0.154728,0.00256 0,0.018599 0.02612,0.023785 0.05805,0.011523 0.03877,-0.014889 0.04976,-0.00886 0.03307,0.018152 -0.0163,0.026392 -0.0062,0.033248 0.02896,0.019731 0.02967,-0.011393 0.04526,-0.03478 0.03464,-0.051969 z m -0.800121,0.00366 c 0.06727,-0.028929 0.06703,-0.030094 -0.0067,-0.032459 -0.04204,-0.00135 -0.08614,0.013257 -0.098,0.032459 -0.0255,0.041293 0.0086,0.041293 0.104659,0 z m 0.5229,-0.099312 c -0.0077,-0.00773 -0.04175,-0.00341 -0.07562,0.0096 -0.05175,0.019871 -0.05353,0.028627 -0.01115,0.054839 0.04646,0.028736 0.123039,-0.028133 0.08677,-0.064434 z"
       id="path2174" />
    <path
       inkscape:connector-curvature="0"
       style="fill:#4b0500"
       d="m 19.352299,5.9332884 c -0.0015,-0.036803 0.0067,-0.057424 0.01832,-0.045823 0.01159,0.011601 0.01283,0.041712 0.0027,0.066916 -0.01114,0.027851 -0.0194,0.019578 -0.02108,-0.021094 z m 0.488405,-0.069826 c -0.0015,-0.036803 0.0067,-0.057423 0.01832,-0.045822 0.01159,0.011601 0.01283,0.041714 0.0027,0.066916 -0.01114,0.027851 -0.0194,0.019578 -0.02108,-0.021094 z m -0.11752,-0.1251025 c -0.01004,-0.038404 -0.004,-0.069825 0.01337,-0.069825 0.01739,0 0.03162,0.031421 0.03162,0.069825 0,0.089512 -0.0216,0.089512 -0.04499,0 z m -0.617308,-0.063534 c 9.48e-4,-0.042126 0.06815,-0.1298533 0.0687,-0.089685 3.2e-4,0.023208 0.03909,0.031811 0.09647,0.021411 0.05277,-0.00956 0.08629,-0.0069 0.07451,0.00592 -0.03256,0.035417 -0.240294,0.08946 -0.239684,0.062356 z m 0.726051,-0.1284828 c -0.01291,-0.013032 -0.01576,-0.073351 -0.0063,-0.1340427 0.0094,-0.060692 -0.0079,-0.1802353 -0.03848,-0.2656537 l -0.0556,-0.155306 0.08811,0.082838 c 0.06015,0.05655 0.0868,0.1169141 0.08398,0.1902184 -0.006,0.1573048 -0.04466,0.3092162 -0.07167,0.2819458 z M 19.669028,5.2844954 c 0,-0.048005 0.0079,-0.067643 0.0176,-0.043641 0.0097,0.024002 0.0097,0.063279 0,0.087281 -0.0097,0.024003 -0.0176,0.00436 -0.0176,-0.04364 z m -2.037624,-0.092947 c 0.02398,-0.00969 0.06323,-0.00969 0.08722,0 0.02398,0.00969 0.0044,0.017609 -0.04361,0.017609 -0.04797,0 -0.06759,-0.00792 -0.04361,-0.017609 z m -0.248096,-0.06416 c 0.01104,-0.028802 0.03602,-0.052369 0.05551,-0.052369 0.02042,0 0.01703,0.022184 -0.008,0.052369 -0.05533,0.066717 -0.07308,0.066717 -0.0475,0 z m 0.0039,-0.2151408 c 0.02398,-0.00969 0.06323,-0.00969 0.08721,0 0.02398,0.00969 0.0044,0.017609 -0.04361,0.017609 -0.04797,0 -0.06759,-0.00792 -0.04361,-0.017609 z m 0.682707,-0.037975 c -0.03472,-0.098467 -0.154402,-0.2145872 -0.202232,-0.1962198 -0.06449,0.024765 -0.0938,-0.08346 -0.04416,-0.1630151 0.0373,-0.059766 0.08261,-0.068446 0.357347,-0.068446 0.269683,0 0.320461,0.00934 0.35542,0.065358 0.03471,0.055623 0.02792,0.071223 -0.04558,0.1047386 -0.107755,0.049133 -0.20714,0.05013 -0.295209,0.00296 -0.09832,-0.052658 -0.126261,0.047216 -0.05503,0.1966981 0.04986,0.1046306 0.05032,0.1190212 0.0038,0.1190212 -0.02907,0 -0.06256,-0.027494 -0.07441,-0.061096 z m 0.119677,-0.3819212 c -0.03358,-0.00878 -0.08852,-0.00878 -0.122101,0 -0.03358,0.00878 -0.0061,0.015967 0.06105,0.015967 0.06715,0 0.09463,-0.00718 0.06105,-0.015967 z m 1.09019,0.3933406 C 18.792859,4.7509804 18.551699,4.4832836 18.61686,4.1498347 l 0.02047,-0.104738 0.0236,0.1123756 c 0.03793,0.1806169 0.137368,0.2542071 0.343488,0.2542071 0.147243,0 0.174531,0.00947 0.157235,0.054581 -0.03061,0.079827 0.06141,0.2350666 0.212599,0.3586427 0.145448,0.1188857 0.136446,0.1246783 -0.09448,0.060789 z M 17.189524,4.855665 c 0.008,-0.00543 0.04593,-0.032927 0.08431,-0.061097 0.06454,-0.047376 0.06618,-0.046636 0.02189,0.00988 -0.02633,0.033603 -0.06427,0.061097 -0.08431,0.061097 -0.02004,0 -0.02989,-0.00445 -0.02189,-0.00988 z m 1.562517,-0.08613 c -0.04339,-0.055374 -0.04216,-0.056609 0.01317,-0.013182 0.05811,0.045609 0.07659,0.074279 0.04788,0.074279 -0.0072,0 -0.03472,-0.027494 -0.06105,-0.061097 z m -0.21417,-0.1177989 c 0.02367,-0.02386 0.05182,-0.034587 0.06255,-0.023838 0.01074,0.010749 -0.0086,0.030271 -0.04303,0.043382 -0.04972,0.018946 -0.05373,0.014936 -0.01953,-0.019544 z m -3.114437,-0.032903 c -0.01265,-0.020479 -0.01357,-0.046664 -0.0021,-0.058188 0.01151,-0.011523 0.02094,-6.991e-4 0.02094,0.024054 0,0.035625 0.01273,0.035019 0.06105,-0.00291 0.05533,-0.043426 0.05656,-0.042191 0.01317,0.013182 -0.05606,0.071534 -0.06262,0.073216 -0.0931,0.023862 z M 15.822009,4.443349 c -0.03357,-0.021278 -0.0145,-0.030763 0.0626,-0.031135 0.06432,-3.1e-4 0.199781,-0.053533 0.32258,-0.1267398 0.166336,-0.099162 0.260315,-0.1301102 0.438577,-0.14443 0.398015,-0.031974 0.24065,0.1045678 -0.174314,0.151247 -0.115125,0.012951 -0.255496,0.04707 -0.311938,0.075822 -0.158557,0.080773 -0.28448,0.1088425 -0.337506,0.075236 z M 16.07971,4.460412 C 16.0913,4.448811 16.12139,4.44757 16.14657,4.457652 16.1744,4.468797 16.16613,4.47707 16.12549,4.478745 16.08872,4.480265 16.06811,4.472005 16.0797,4.460409 Z M 15.163213,4.3562952 c 0,-0.058209 0.02004,-0.133265 0.04454,-0.1667944 0.04299,-0.058835 0.305459,-0.1428761 0.303217,-0.097087 -0.0019,0.039642 -0.168703,0.2145277 -0.204562,0.2145277 -0.01902,0 -0.05902,0.034917 -0.08889,0.077594 -0.05426,0.077526 -0.05431,0.077502 -0.05431,-0.02824 z m 2.502414,0.067397 c 0.02362,-0.00956 0.07071,-0.010146 0.104658,-0.00129 0.03394,0.00885 0.01462,0.016677 -0.04294,0.017388 -0.05756,7.118e-4 -0.08533,-0.00653 -0.06171,-0.016094 z m -0.190483,-0.033106 c 0.01159,-0.011601 0.04168,-0.012841 0.06686,-0.00276 0.02783,0.011145 0.01956,0.019418 -0.02108,0.021092 -0.03677,0.00152 -0.05738,-0.00673 -0.04579,-0.018337 z m 0.531286,-0.088143 c -0.09594,-0.017158 -0.263253,-0.021791 -0.371815,-0.010295 -0.155359,0.016453 -0.23158,0.00577 -0.357994,-0.050196 -0.244097,-0.1080579 -0.252939,-0.2473066 -0.01579,-0.2486904 0.05042,-2.936e-4 0.111643,-0.024624 0.13606,-0.054066 0.03949,-0.047626 0.05252,-0.045889 0.118086,0.01575 0.112419,0.1056928 0.370198,0.2077297 0.59015,0.2336006 0.161381,0.018982 0.197838,0.035252 0.197838,0.088288 0,0.071533 -0.02681,0.073849 -0.296532,0.025609 z m -1.019691,-0.051508 c 0.01159,-0.011602 0.04168,-0.012841 0.06686,-0.00276 0.02783,0.011145 0.01956,0.019418 -0.02108,0.021093 -0.03678,0.00152 -0.05738,-0.00673 -0.04579,-0.018337 z m -0.22401,-0.4034769 c -0.09936,-0.1064426 -0.103708,-0.1076808 -0.122723,-0.034912 -0.02556,0.097793 -0.06337,0.095325 -0.140771,-0.00919 L 16.436556,3.7187229 16.32334,3.8275015 16.210125,3.9362814 16.1023,3.833582 C 16.043,3.777098 15.977877,3.6994622 15.957591,3.6610577 c -0.02029,-0.038403 0.0294,8.732e-4 0.110411,0.087282 L 16.215296,3.9054462 16.056281,3.7023854 C 15.968823,3.5907019 15.879604,3.4336838 15.858018,3.3534556 15.836431,3.2732274 15.788881,3.1489566 15.752351,3.0772974 l -0.06642,-0.1302881 0.165464,0.088045 c 0.09734,0.051797 0.1705,0.072926 0.177696,0.051322 0.0067,-0.020198 0.02659,-0.027844 0.04414,-0.01699 0.01755,0.010854 0.03191,0.0031 0.03191,-0.017239 0,-0.020336 0.01177,-0.034231 0.02616,-0.030881 0.01439,0.00335 0.0701,-0.01523 0.123803,-0.041292 0.07509,-0.036444 0.09523,-0.068082 0.08721,-0.1370151 -0.0087,-0.075251 -0.02848,-0.089821 -0.12296,-0.090822 -0.0662,-7.017e-4 -0.120405,0.019325 -0.131645,0.048638 -0.0279,0.072752 0.0074,0.091642 0.07157,0.038327 0.04661,-0.038709 0.06086,-0.038221 0.08629,0.00295 0.03059,0.049534 -0.0621,0.1933238 -0.100105,0.1552914 -0.01003,-0.010038 3.38e-4,-0.036842 0.02304,-0.059565 0.07097,-0.071022 0.04501,-0.1113696 -0.0287,-0.044611 -0.03849,0.034862 -0.08025,0.053108 -0.09281,0.040549 -0.02867,-0.028688 0.04837,-0.2924262 0.09358,-0.3203907 0.01885,-0.011659 0.02424,0.00349 0.01231,0.034602 -0.01856,0.048398 -0.0092,0.049859 0.0746,0.011647 L 16.323308,2.61589 16.214222,2.587601 c -0.06,-0.015559 -0.109012,-0.031767 -0.108923,-0.036018 0.0013,-0.060353 0.170793,-0.4028024 0.182612,-0.3688725 0.01314,0.037727 0.02932,0.03599 0.0825,-0.00886 0.101981,-0.086012 0.175476,-0.1009043 0.245413,-0.049727 0.0416,0.030443 0.08417,0.035962 0.121829,0.015792 0.07294,-0.039066 0.148655,0.042871 0.121689,0.1316908 -0.01402,0.046179 0.01326,0.078923 0.10321,0.1238697 0.06725,0.033603 0.15188,0.061097 0.188074,0.061097 0.101877,0 0.210415,0.1645083 0.210415,0.3189221 0,0.1175336 -0.01035,0.1349417 -0.08024,0.1349417 -0.138543,0 -0.168817,0.066086 -0.0833,0.1818412 l 0.07594,0.1027848 -0.121908,0.1011366 c -0.06705,0.055625 -0.14938,0.1015585 -0.182958,0.1020755 -0.05126,7.883e-4 -0.06105,0.034547 -0.06105,0.210415 0,0.1152115 -0.01399,0.209476 -0.0311,0.209476 -0.0171,0 -0.0567,-0.064036 -0.08799,-0.1423009 -0.06362,-0.1591106 -0.118623,-0.1635643 -0.190707,-0.015442 l -0.04815,0.098947 -0.04924,-0.084069 -0.04924,-0.084069 0.02317,0.087282 c 0.04239,0.1597085 0.09162,0.1903703 0.144246,0.089851 0.05013,-0.095752 0.114586,-0.1202581 0.114586,-0.043567 0,0.046192 0.141207,0.1981047 0.184143,0.1981047 0.01246,0 0.06111,-0.05663 0.108106,-0.1258438 l 0.08545,-0.1258438 0.05008,0.095646 0.05008,0.095646 0.05761,-0.082309 c 0.03168,-0.045269 0.05761,-0.1259444 0.05761,-0.179278 0,-0.1172483 0.08874,-0.1323508 0.124016,-0.021107 l 0.02406,0.075862 0.04683,-0.084591 c 0.05735,-0.103596 0.06172,-0.2230664 0.01159,-0.3168083 -0.05213,-0.09747 -0.01198,-0.1236868 0.07238,-0.047277 0.06859,0.06212 0.06999,0.061281 0.06999,-0.042055 0,-0.057993 -0.03242,-0.1466845 -0.07204,-0.1970936 -0.08667,-0.1102655 -0.06176,-0.1802189 0.04399,-0.1235749 0.06577,0.035224 0.07043,0.030981 0.05101,-0.046456 -0.01514,-0.060362 -0.0069,-0.085222 0.02813,-0.085222 0.03646,0 0.04412,0.02837 0.02908,0.1076474 -0.0271,0.1428901 -0.03327,0.1468054 -0.114842,0.072928 -0.09006,-0.081561 -0.09018,-0.036898 -2.13e-4,0.077561 0.06807,0.086605 0.09103,0.2625851 0.04867,0.3730537 -0.0116,0.030263 -0.03324,0.047514 -0.04808,0.038335 -0.01484,-0.00918 -0.036,0.028451 -0.04703,0.083623 -0.01103,0.055172 -0.06119,0.1452532 -0.111467,0.2001807 l -0.09142,0.099868 0.02013,-0.09387 c 0.01107,-0.051627 0.0044,-0.103614 -0.01488,-0.115525 -0.02032,-0.01257 -0.03501,0.020395 -0.03501,0.078558 0,0.094594 -0.107525,0.2530315 -0.171721,0.2530315 -0.0162,0 -0.03826,-0.033674 -0.04901,-0.074832 -0.0187,-0.071543 -0.02361,-0.070009 -0.111829,0.034912 -0.05075,0.06036 -0.108129,0.1097448 -0.127505,0.1097448 -0.01938,0 -0.08159,-0.04966 -0.138242,-0.1103552 z M 16.439385,3.5189984 c 0.06839,0.017177 0.08439,0.00783 0.08439,-0.049295 0,-0.086481 -0.09181,-0.092949 -0.180405,-0.01271 -0.06043,0.054727 -0.0638,0.052372 -0.0638,-0.044601 0,-0.056309 0.02446,-0.1373245 0.05435,-0.1800353 0.05785,-0.082658 0.04127,-0.1550922 -0.0293,-0.1279907 -0.07303,0.028045 -0.09108,0.4071107 -0.0233,0.4893655 0.04751,0.057659 0.05129,0.056609 0.06214,-0.017268 0.0094,-0.064087 0.02718,-0.074734 0.09594,-0.057465 z m -0.03408,0.02932 c -0.01159,-0.011601 -0.01984,0.00902 -0.01832,0.045822 0.0017,0.040672 0.0099,0.048944 0.02108,0.021094 0.01008,-0.025203 0.0088,-0.055315 -0.0028,-0.066916 z m 0.647487,-0.2496125 c 0.03087,-0.036077 0.07753,-0.073334 0.103689,-0.082793 0.03871,-0.013997 0.03941,-0.029408 0.0037,-0.082784 -0.07938,-0.1187864 -0.08657,-0.153161 -0.04302,-0.2056816 0.02368,-0.028558 0.08039,-0.051924 0.126005,-0.051924 0.06803,0 0.08294,-0.01798 0.08294,-0.1000292 0,-0.1277813 -0.121859,-0.2840098 -0.221529,-0.2840098 -0.04231,0 -0.110128,-0.023277 -0.150716,-0.051727 -0.06519,-0.045695 -0.0788,-0.045695 -0.116692,0 -0.02359,0.02845 -0.08693,0.051727 -0.140752,0.051727 -0.120875,0 -0.242463,0.1424212 -0.242463,0.2840098 0,0.083332 0.01451,0.1000292 0.08692,0.1000292 0.04914,0 0.10586,0.030352 0.130493,0.069826 0.05027,0.080562 0.09656,0.091252 0.09656,0.022297 0,-0.032387 0.02896,-0.041986 0.09093,-0.030132 0.05507,0.010534 0.104518,-0.0017 0.125392,-0.031026 0.02724,-0.038269 0.03053,-0.036084 0.01569,0.010421 -0.01033,0.032363 -0.0018,0.064499 0.01892,0.071414 0.02073,0.00691 -0.0035,0.039597 -0.05389,0.072625 -0.07326,0.048036 -0.104698,0.051855 -0.15713,0.019086 -0.03605,-0.022532 -0.09153,-0.030989 -0.12329,-0.018793 -0.0765,0.029377 -0.116768,0.1373715 -0.05847,0.1568176 0.02482,0.00828 0.07038,0.04457 0.101244,0.080647 0.07302,0.085348 0.252411,0.085348 0.325432,-10e-8 z M 16.793483,2.8084971 c -0.01517,-0.058073 -0.01063,-0.071703 0.01525,-0.045795 0.02027,0.020288 0.02999,0.057495 0.02161,0.082682 -0.0087,0.026147 -0.02452,0.010322 -0.03686,-0.036887 z m 0.148921,0.00132 c 0,-0.019201 0.0157,-0.044622 0.03489,-0.05649 0.01919,-0.011867 0.03489,-0.00587 0.03489,0.013336 0,0.019202 -0.0157,0.044622 -0.03489,0.056489 -0.01919,0.011867 -0.03489,0.00587 -0.03489,-0.013335 z M 16.523771,2.6517707 c 0,-0.00665 0.02355,-0.031644 0.05233,-0.055548 0.03016,-0.025052 0.05233,-0.028445 0.05233,-0.00801 0,0.019499 -0.02355,0.044495 -0.05233,0.055548 -0.02878,0.011052 -0.05233,0.014658 -0.05233,0.00801 z m 1.081469,0.6077918 c -0.02054,-0.038404 -0.04519,-0.069826 -0.05478,-0.069826 -0.0096,0 -6.4e-4,0.031422 0.0199,0.069826 0.02054,0.038404 0.04519,0.069826 0.05478,0.069826 0.0096,0 6.39e-4,-0.031421 -0.0199,-0.069826 z m -1.381669,-0.044401 c 0.01364,0.013649 0.01429,-0.0026 0.0014,-0.036107 -0.01818,-0.047413 -0.03406,-0.052036 -0.07162,-0.020846 -0.02654,0.022044 -0.04826,0.055789 -0.04826,0.074991 0,0.021302 0.01825,0.019754 0.04682,-0.00397 0.02575,-0.021387 0.05798,-0.027717 0.07162,-0.014067 z m 0.195542,-0.7024354 c 0,-0.026721 -0.03989,-0.058604 -0.08864,-0.070849 -0.141657,-0.035581 -0.06186,-0.1007202 0.09302,-0.075935 0.07434,0.011896 0.135163,0.00894 0.135163,-0.00656 0,-0.056917 -0.252379,-0.045878 -0.318412,0.013926 -0.08487,0.076867 -0.08318,0.1163086 0.004,0.09349 0.04399,-0.011511 0.07725,0.00245 0.09095,0.038182 0.02648,0.069062 0.08391,0.074363 0.08391,0.00775 z m 0.08748,-0.2949735 c -0.01343,-0.035015 0.0012,-0.043671 0.05159,-0.030489 0.03869,0.010125 0.06154,0.00416 0.05079,-0.013249 -0.01075,-0.017411 -0.05955,-0.031656 -0.108439,-0.031656 -0.06296,0 -0.08328,0.014639 -0.06965,0.050181 0.01117,0.029131 -0.0056,0.056788 -0.03988,0.06593 -0.03251,0.00866 -0.01559,0.014045 0.03761,0.011963 0.06771,-0.00265 0.0911,-0.01845 0.07798,-0.05268 z m 0.226491,0.027283 c 0,-0.020335 -0.0157,-0.027263 -0.03489,-0.015395 -0.0447,0.027649 -0.0447,0.052369 0,0.052369 0.01919,0 0.03489,-0.016638 0.03489,-0.036974 z M 15.8216,3.5126795 c -0.04339,-0.055373 -0.04216,-0.056609 0.01317,-0.013182 0.05811,0.045609 0.07659,0.074279 0.04788,0.074279 -0.0072,0 -0.03472,-0.027494 -0.06105,-0.061097 z m 2.979216,-0.064735 c 0.01159,-0.011601 0.04168,-0.012841 0.06686,-0.00276 0.02783,0.011145 0.01956,0.019418 -0.02108,0.021093 -0.03677,0.00152 -0.05738,-0.00674 -0.04579,-0.018337 z M 15.647169,3.2682909 c -0.04339,-0.055374 -0.04216,-0.056609 0.01317,-0.013182 0.05811,0.045608 0.07659,0.074279 0.04788,0.074279 -0.0072,0 -0.03472,-0.027494 -0.06105,-0.061097 z m 2.235282,-0.104738 -0.120224,-0.130922 0.130823,0.1203144 c 0.121767,0.1119859 0.146863,0.1415297 0.120224,0.1415297 -0.0058,0 -0.0647,-0.058915 -0.130823,-0.1309221 z m 0.26377,0.09641 c -0.01222,-0.01979 0.0018,-0.025644 0.03283,-0.013721 0.06044,0.02321 0.07149,0.048234 0.02131,0.048234 -0.01805,0 -0.04242,-0.01553 -0.05414,-0.034512 z m 1.11891,-0.1324191 -0.06697,-0.094912 0.09314,0.084638 c 0.09787,0.088942 0.109931,0.1080845 0.06697,0.1062838 -0.01439,-6.036e-4 -0.0563,-0.043808 -0.09314,-0.09601 z M 15.477188,3.015174 c -0.02054,-0.038404 -0.02949,-0.069825 -0.0199,-0.069825 0.0096,0 0.03425,0.031421 0.05478,0.069825 0.02054,0.038404 0.02949,0.069826 0.0199,0.069826 -0.0096,0 -0.03425,-0.031422 -0.05478,-0.069826 z m 2.930432,0.0274 c -0.06716,-0.018342 -0.146923,-0.055611 -0.177261,-0.08282 -0.03034,-0.027208 -0.06359,-0.041037 -0.07389,-0.03073 -0.0103,0.010308 -0.01099,-0.021743 -0.0015,-0.071223 0.01627,-0.085161 0.02063,-0.086841 0.08176,-0.031481 0.04797,0.043444 0.135708,0.059533 0.341227,0.062569 0.152161,0.00225 0.258511,-0.00745 0.236333,-0.021561 -0.04913,-0.031256 -0.0139,-0.034478 0.06128,-0.00561 0.03024,0.011613 0.04465,0.037848 0.03202,0.058302 -0.01454,0.023546 -0.001,0.028755 0.0369,0.014198 0.03556,-0.013655 0.05121,-0.00898 0.03855,0.011524 -0.01172,0.018982 -0.04486,0.034513 -0.07364,0.034513 -0.02878,0 -0.04505,0.011783 -0.03616,0.026184 0.0089,0.014401 -0.01765,0.026762 -0.05899,0.027468 -0.04134,7.055e-4 -0.122258,0.010447 -0.17982,0.021645 -0.05756,0.011199 -0.159604,0.00536 -0.22676,-0.012986 z M 18.718241,2.980472 C 18.633711,2.93101 18.347553,2.893526 18.390177,2.937496 c 0.04218,0.043508 0.138494,0.068552 0.279089,0.072567 0.08055,0.0023 0.09183,-0.00452 0.04897,-0.029591 z M 15.250429,2.8755235 c -0.07675,-0.035555 -0.127267,-0.065812 -0.112259,-0.067236 0.04131,-0.00392 0.269246,0.095825 0.269246,0.1178234 0,0.023651 0.01071,0.027103 -0.156987,-0.050587 z m 0.434198,-0.09601 -0.120223,-0.130922 0.130822,0.1203144 c 0.121768,0.1119859 0.146863,0.1415296 0.120224,0.1415296 -0.0058,0 -0.0647,-0.058915 -0.130823,-0.130922 z m 2.589041,-0.016539 c -0.167464,-0.074539 -0.172899,-0.1162454 -0.0105,-0.080549 0.09561,0.021017 0.208557,0.1087849 0.175585,0.1364482 -0.0075,0.00632 -0.08182,-0.018837 -0.165088,-0.055899 z m -3.14534,-0.063109 c 0,-0.039007 0.02527,-0.080625 0.05615,-0.092485 0.05022,-0.019287 0.04963,-0.025211 -0.0056,-0.056156 -0.04445,-0.024894 -0.07246,-0.020989 -0.09988,0.01393 -0.0594,0.075632 -0.120264,0.072565 -0.09999,-0.00504 0.01065,-0.040766 5.1e-4,-0.068632 -0.02498,-0.068632 -0.02767,0 -0.03755,0.036556 -0.02782,0.1028943 0.0083,0.056592 0.0022,0.094942 -0.01348,0.085221 -0.05825,-0.036026 -0.02586,-0.1707673 0.05848,-0.2432914 0.09726,-0.083639 0.270899,-0.07897 0.238163,0.0064 -0.01241,0.032354 0.0063,0.048772 0.05567,0.048772 0.04851,0 0.08669,0.032447 0.109814,0.093302 0.05132,0.1350929 0.01758,0.1859988 -0.123294,0.1859988 -0.100574,0 -0.123196,-0.013023 -0.123196,-0.07092 z m 2.461523,-0.087297 c -0.03724,-0.028192 -0.04809,-0.051258 -0.02411,-0.051258 0.02399,0 0.03391,-0.015711 0.02205,-0.034913 -0.01186,-0.019201 -0.04511,-0.034913 -0.07389,-0.034913 -0.02878,0 -0.04263,0.015711 -0.03077,0.034913 0.01186,0.019202 0.0036,0.034913 -0.01829,0.034913 -0.02192,0 -0.0329,-0.019639 -0.02441,-0.043641 0.0085,-0.024003 0.05693,-0.040679 0.107646,-0.037057 0.0809,0.00578 0.0878,-0.00166 0.05623,-0.060685 -0.04039,-0.075534 -0.174268,-0.1200797 -0.278723,-0.092744 -0.08924,0.023355 -0.08905,-0.027308 3.39e-4,-0.089968 0.03825,-0.026814 0.05918,-0.059125 0.04651,-0.071805 -0.04341,-0.043447 -0.188018,-0.023077 -0.208108,0.029316 -0.0358,0.093357 -0.07425,0.055494 -0.07091,-0.069826 0.002,-0.074764 0.02071,-0.1221943 0.04822,-0.1221943 0.05696,0 0.05753,0.042557 0.0014,0.1020293 -0.03598,0.038095 -0.02994,0.039131 0.03457,0.00592 0.06174,-0.031784 0.09989,-0.029012 0.18142,0.013182 0.130424,0.067496 0.141315,0.066911 0.142851,-0.00767 6.92e-4,-0.033604 0.03347,0.025311 0.07285,0.130922 0.107209,0.2875682 0.112741,0.3142141 0.06524,0.3142141 -0.03429,0 -0.03425,0.010828 2.03e-4,0.052369 0.05432,0.065507 0.03723,0.06513 -0.05028,-0.00111 z m 0.716767,0.015604 c -0.04596,-0.018397 -0.07528,-0.041732 -0.06517,-0.051855 0.02768,-0.027704 0.201055,0.022829 0.201055,0.058603 0,0.038012 -0.02748,0.036647 -0.135888,-0.00675 z m -2.866956,-0.127959 -0.08458,-0.09601 0.09594,0.08464 c 0.08967,0.079108 0.111935,0.1073802 0.08457,0.1073802 -0.0062,0 -0.04942,-0.043205 -0.09594,-0.09601 z m 3.020287,0.023816 c -0.05756,-0.0369 -0.08677,-0.067173 -0.06492,-0.067274 0.02186,-1.006e-4 0.0768,0.030715 0.122101,0.06848 0.103718,0.086472 0.07877,0.085945 -0.05719,-0.00121 z m -0.540734,0.023559 c 0,-0.00755 0.02436,-0.023077 0.05414,-0.034513 0.03105,-0.011922 0.04505,-0.00607 0.03283,0.013721 -0.02049,0.033174 -0.08697,0.049068 -0.08697,0.020792 z M 16.820303,2.107445 c -0.03473,-0.038404 -0.04594,-0.069825 -0.02491,-0.069825 0.02103,0 0.04796,0.015753 0.05985,0.035007 0.01418,0.022955 0.04791,0.021206 0.098,-0.00508 0.07583,-0.039803 0.0759,-0.039556 0.0099,0.034818 -0.08007,0.090246 -0.06629,0.089756 -0.142859,0.00508 z M 16.648766,2.077219 c -0.01503,-0.024335 -0.0179,-0.053673 -0.0064,-0.065196 0.03122,-0.031246 0.06526,0.014708 0.0484,0.065337 -0.01182,0.035477 -0.02003,0.03545 -0.04201,-1.405e-4 z"
       id="path2172" />
  </g>
</svg>
