<?xml version="1.0" standalone="no"?>
<!DOCTYPE svg PUBLIC "-//W3C//DTD SVG 20010904//EN"
 "http://www.w3.org/TR/2001/REC-SVG-20010904/DTD/svg10.dtd">
<svg version="1.0" xmlns="http://www.w3.org/2000/svg"
 width="600.000000pt" height="451.000000pt" viewBox="0 0 600.000000 451.000000"
 preserveAspectRatio="xMidYMid meet">

<g transform="translate(0.000000,451.000000) scale(0.100000,-0.100000)"
fill="#000000" stroke="none">
<path d="M3280 4140 c0 -5 7 -10 16 -10 8 0 12 5 9 10 -3 6 -10 10 -16 10 -5
0 -9 -4 -9 -10z"/>
<path d="M2573 3884 l6 -247 73 -2 c50 -1 81 3 97 13 l24 15 -23 17 -23 18 31
7 c18 4 34 15 37 26 4 11 12 18 19 16 7 -3 19 -1 26 3 8 5 25 3 41 -6 16 -8
39 -14 52 -14 21 0 77 -46 77 -63 0 -4 22 -29 49 -56 47 -47 52 -49 123 -56
42 -4 80 -14 90 -22 21 -18 50 -10 42 11 -3 8 -14 18 -25 21 -10 4 -19 13 -19
21 0 8 -8 14 -18 14 -24 0 -42 19 -35 38 5 12 1 14 -17 9 -17 -4 -30 1 -47 19
-13 14 -23 32 -23 40 0 8 -8 18 -17 21 -21 8 -72 64 -73 81 0 7 12 12 29 12
17 0 33 5 36 11 9 14 -20 46 -48 52 -70 17 -102 36 -105 61 -2 19 -18 36 -58
61 -30 19 -60 35 -67 35 -7 0 -22 6 -33 14 -11 8 -38 18 -60 22 -21 3 -60 17
-86 30 -86 43 -81 57 -75 -222z"/>
<path d="M3340 4122 c0 -4 8 -12 19 -17 96 -51 107 -61 125 -118 7 -21 26 -13
26 10 0 19 -66 78 -123 111 -43 24 -47 26 -47 14z"/>
<path d="M3397 3986 c4 -19 1 -26 -10 -26 -8 0 -22 -11 -31 -24 -11 -18 -24
-24 -46 -24 -16 1 -30 5 -30 11 0 5 -7 4 -14 -3 -9 -6 -37 -10 -65 -9 -60 3
-75 -6 -35 -21 16 -6 43 -18 60 -26 17 -8 42 -13 55 -11 36 7 96 33 103 46 4
6 16 11 28 11 15 0 19 5 15 20 -3 12 1 23 10 28 24 14 12 47 -18 50 -23 3 -26
0 -22 -22z"/>
<path d="M3640 3895 c0 -14 7 -28 15 -31 8 -4 15 -12 15 -20 0 -19 39 -39 52
-26 8 8 -4 25 -36 57 -44 45 -46 46 -46 20z"/>
<path d="M3780 3811 c0 -13 41 -41 59 -41 9 0 4 9 -13 25 -28 26 -46 32 -46
16z"/>
<path d="M3937 3741 c24 -23 83 -54 90 -48 6 6 -84 67 -99 67 -7 0 -3 -9 9
-19z"/>
<path d="M3810 3725 c0 -16 6 -20 43 -29 36 -8 28 7 -13 28 -25 12 -30 12 -30
1z"/>
<path d="M4101 3669 c-1 -24 15 -45 48 -64 12 -7 -14 43 -30 55 -3 3 -9 12
-12 20 -3 9 -6 5 -6 -11z"/>
<path d="M3470 3640 c0 -5 7 -10 16 -10 8 0 12 5 9 10 -3 6 -10 10 -16 10 -5
0 -9 -4 -9 -10z"/>
<path d="M3285 3622 c6 -5 21 -13 35 -17 17 -5 22 -4 15 3 -5 5 -21 13 -35 17
-17 5 -22 4 -15 -3z"/>
<path d="M4010 3621 c0 -17 38 -41 63 -41 33 0 35 13 5 27 -32 16 -68 23 -68
14z"/>
<path d="M3340 3575 c0 -8 7 -15 15 -15 8 0 15 4 15 9 0 5 -7 11 -15 15 -9 3
-15 0 -15 -9z"/>
<path d="M4143 3547 c-3 -7 -3 -9 1 -5 4 3 16 -2 27 -13 20 -20 39 -25 39 -10
0 5 -13 16 -30 24 -22 12 -32 12 -37 4z"/>
<path d="M2677 3508 c-9 -5 -17 -20 -17 -34 0 -14 -7 -38 -15 -55 -9 -16 -13
-33 -11 -38 3 -5 0 -32 -8 -60 -9 -35 -11 -66 -5 -97 5 -28 5 -53 -1 -64 -6
-10 -10 -29 -10 -42 0 -13 -13 -48 -28 -78 -25 -50 -31 -55 -63 -58 -29 -2
-42 3 -66 27 -17 16 -43 33 -59 37 -16 4 -38 14 -49 24 -11 9 -28 20 -38 23
-32 12 -157 98 -157 108 0 6 9 23 20 37 15 18 19 34 15 54 -6 25 -4 29 25 34
18 4 29 12 27 18 -3 7 1 20 9 31 16 22 19 39 5 30 -6 -3 -14 3 -20 12 -10 17
-12 16 -15 -7 -1 -12 -6 -13 -28 -5 -10 4 -15 11 -12 16 7 12 -30 -2 -38 -15
-5 -8 -11 -7 -20 2 -6 6 -24 12 -39 12 -15 0 -31 5 -34 10 -3 6 -19 10 -34 10
-16 0 -34 7 -41 15 -7 8 -19 15 -26 15 -8 0 -14 4 -14 8 0 4 -11 8 -25 8 -14
0 -24 -5 -22 -10 2 -6 14 -10 26 -8 19 3 22 0 19 -24 -2 -23 -9 -30 -38 -35
-21 -5 -40 -3 -48 3 -9 8 -17 6 -30 -6 -10 -9 -24 -16 -30 -16 -6 0 -14 -9
-17 -20 -3 -11 -11 -20 -16 -20 -5 0 -9 -9 -9 -20 0 -11 -7 -23 -15 -26 -8 -4
-15 -13 -15 -21 0 -9 -8 -22 -17 -28 -17 -13 -17 -14 0 -33 24 -26 8 -36 -42
-27 -29 5 -42 2 -55 -10 -15 -15 -16 -15 -16 8 0 16 -13 36 -35 56 -36 31 -65
40 -65 20 0 -7 -12 -10 -29 -7 -22 3 -31 0 -34 -14 -3 -10 -14 -18 -25 -18
-20 0 -36 -25 -26 -41 3 -5 -5 -9 -17 -9 -17 0 -19 -3 -10 -13 8 -11 6 -13
-12 -13 -22 1 -23 -2 -26 -62 -1 -13 -5 -20 -11 -17 -6 4 -22 9 -36 11 -25 5
-26 3 -20 -31 11 -56 -4 -63 -30 -14 -21 40 -24 42 -30 22 -3 -12 -14 -25 -25
-28 -23 -8 -32 -37 -24 -75 5 -22 2 -31 -13 -39 -11 -6 -25 -24 -32 -41 -17
-40 -84 -79 -149 -87 -28 -3 -54 -10 -57 -14 -3 -5 -16 -9 -29 -9 -13 0 -30
-6 -37 -13 -21 -21 -47 -27 -74 -17 -19 8 -29 6 -40 -5 -9 -8 -19 -15 -24 -15
-5 0 -22 -12 -37 -26 -15 -14 -42 -32 -60 -39 -17 -7 -36 -23 -43 -34 -12 -23
-35 -18 -26 5 9 23 -10 16 -23 -10 -8 -15 -11 -38 -6 -63 5 -30 2 -43 -9 -53
-17 -14 -21 -60 -7 -88 46 -93 61 -142 41 -142 -5 0 -10 5 -10 10 0 6 -5 10
-11 10 -6 0 -9 -7 -5 -15 3 -8 1 -15 -3 -15 -16 0 -18 24 -4 38 11 12 11 17 1
29 -11 14 -13 13 -19 -8 l-5 -24 -8 23 c-8 24 -18 23 -22 -3 -1 -8 2 -13 7 -9
5 3 9 -3 9 -14 0 -10 8 -27 18 -38 33 -36 52 -68 52 -89 0 -12 13 -46 28 -77
16 -31 31 -80 35 -110 3 -30 17 -83 32 -118 40 -94 36 -220 -6 -220 -29 0 -27
-57 4 -70 12 -5 35 -20 51 -34 28 -25 60 -32 138 -29 14 0 42 13 61 27 18 14
40 26 47 26 7 0 22 11 34 23 17 18 37 25 85 30 35 4 67 4 72 1 8 -4 91 -7 139
-5 8 1 27 21 42 46 15 25 35 45 44 45 10 0 41 14 71 30 34 20 67 30 93 30 44
0 129 18 145 31 14 10 128 29 178 29 21 0 56 -9 78 -20 22 -12 44 -18 49 -15
5 3 22 -1 38 -9 16 -8 32 -13 35 -10 11 11 56 -31 57 -53 0 -12 8 -27 18 -32
30 -16 75 -88 69 -110 -5 -19 9 -37 42 -56 11 -6 13 -4 8 9 -8 21 29 69 79
104 19 12 34 27 34 32 0 6 9 19 19 29 20 20 20 20 17 -12 -2 -18 -11 -47 -20
-65 -10 -18 -16 -45 -14 -60 2 -21 -2 -28 -19 -30 -12 -2 -24 -10 -27 -19 -5
-13 -1 -14 25 -9 17 3 35 6 39 6 4 0 13 21 20 48 l12 47 17 -34 c17 -33 17
-76 0 -87 -20 -12 -8 -26 17 -20 49 13 108 -55 97 -112 -4 -25 0 -39 15 -55
11 -12 25 -32 31 -45 7 -13 21 -22 34 -22 13 0 28 -5 35 -12 7 -7 29 -13 49
-15 21 -1 57 -12 81 -25 29 -15 48 -19 56 -12 64 46 66 47 91 34 14 -7 28 -11
31 -7 4 3 27 -10 52 -31 40 -32 45 -34 40 -15 -5 17 -1 24 16 29 11 3 32 17
46 30 32 29 91 54 129 54 17 0 42 5 56 12 22 10 25 18 25 58 0 52 10 90 45
165 13 28 28 68 35 90 14 48 55 112 88 140 29 25 49 76 67 170 7 39 21 95 31
125 15 45 17 64 9 105 -5 28 -15 56 -22 63 -8 9 -13 40 -13 87 0 40 -3 75 -7
77 -10 4 -67 77 -82 105 -6 12 -17 20 -25 17 -8 -3 -16 4 -20 21 -4 17 -12 25
-24 23 -13 -2 -18 6 -20 37 -2 32 -8 43 -29 52 -19 9 -29 10 -34 2 -7 -12 -39
26 -39 47 0 20 -30 72 -46 78 -10 4 -13 13 -9 26 5 16 -3 23 -44 42 -28 13
-51 29 -51 36 0 6 -6 12 -14 12 -29 0 -76 35 -76 57 0 12 -4 24 -9 27 -4 3
-11 28 -13 56 -4 37 -11 55 -26 66 -15 10 -22 30 -27 78 -6 54 -12 68 -39 94
-23 21 -37 28 -47 21 -26 -17 -38 -9 -44 29 -11 68 -27 122 -37 122 -6 0 -8 9
-5 20 3 10 1 20 -4 22 -6 2 -11 15 -13 30 -4 36 -28 58 -49 46z m213 -2282 c0
-22 -16 -28 -29 -12 -9 11 -9 15 1 19 22 9 28 8 28 -7z"/>
<path d="M1745 3470 c-9 -15 4 -30 26 -30 11 0 22 -7 25 -15 5 -12 10 -10 25
9 26 33 24 39 -11 34 -17 -3 -33 -1 -36 4 -7 11 -21 10 -29 -2z"/>
<path d="M3530 3460 c0 -6 7 -10 15 -10 8 0 15 2 15 4 0 2 -7 6 -15 10 -8 3
-15 1 -15 -4z"/>
<path d="M4557 3184 c-9 -10 6 -44 19 -44 18 0 18 36 0 43 -8 3 -16 3 -19 1z"/>
<path d="M4607 3091 c3 -12 9 -21 14 -21 14 0 11 16 -5 29 -12 10 -13 8 -9 -8z"/>
<path d="M5518 3077 c-27 -11 -48 -25 -48 -30 0 -17 65 3 90 28 29 30 21 30
-42 2z"/>
<path d="M5555 3060 c-3 -5 -1 -10 4 -10 6 0 11 5 11 10 0 6 -2 10 -4 10 -3 0
-8 -4 -11 -10z"/>
<path d="M5393 2988 c-24 -31 -24 -38 2 -48 53 -20 97 14 63 48 -16 16 -53 15
-65 0z"/>
<path d="M4680 2980 c0 -5 5 -10 11 -10 5 0 7 5 4 10 -3 6 -8 10 -11 10 -2 0
-4 -4 -4 -10z"/>
<path d="M4350 2772 c0 -10 77 -82 120 -112 19 -13 37 -27 40 -31 3 -4 18 -12
33 -18 44 -17 34 14 -15 48 -24 16 -50 36 -58 43 -58 50 -120 86 -120 70z"/>
<path d="M4590 2726 c0 -17 14 -29 23 -20 8 8 -3 34 -14 34 -5 0 -9 -6 -9 -14z"/>
<path d="M5025 1550 c3 -5 8 -10 11 -10 2 0 4 5 4 10 0 6 -5 10 -11 10 -5 0
-7 -4 -4 -10z"/>
<path d="M5050 1499 c7 -23 50 -90 70 -109 17 -15 58 -129 54 -150 -14 -85
-17 -91 -46 -106 -40 -21 -33 -43 25 -72 58 -30 68 -57 38 -108 -22 -36 -20
-54 4 -54 7 0 15 -5 17 -11 7 -20 42 10 74 60 57 90 63 106 58 133 -4 20 0 29
16 38 12 7 30 10 40 7 12 -3 17 0 14 8 -3 7 3 21 14 31 11 11 22 38 26 60 8
54 -12 63 -54 27 -31 -25 -31 -25 -75 -8 -46 17 -65 39 -65 73 0 10 -8 27 -19
36 -18 16 -18 16 -15 -14 l4 -30 -30 22 c-17 12 -30 29 -28 38 1 8 -3 25 -10
36 -6 12 -9 24 -6 26 9 9 -17 54 -39 67 -11 8 -33 17 -48 21 -26 8 -27 7 -19
-21z"/>
<path d="M2265 1451 c-43 -9 -39 -36 5 -37 19 0 40 3 45 7 6 4 19 9 30 12 19
4 18 5 -2 6 -12 0 -25 6 -28 11 -3 6 -9 9 -13 9 -4 -1 -20 -4 -37 -8z"/>
<path d="M2800 1044 c0 -14 4 -23 10 -19 6 3 10 15 10 26 0 10 -4 19 -10 19
-5 0 -10 -12 -10 -26z"/>
<path d="M3115 1038 c3 -13 7 -29 7 -35 1 -12 28 -19 28 -8 0 11 -31 65 -36
65 -4 0 -3 -10 1 -22z"/>
<path d="M4992 974 c-14 -9 -22 -26 -22 -43 0 -17 -10 -38 -24 -52 -14 -14
-32 -43 -41 -66 -10 -26 -36 -59 -68 -85 -61 -51 -129 -98 -142 -98 -16 0
-125 -121 -146 -163 l-21 -41 23 -19 c14 -11 31 -16 45 -13 13 4 26 2 29 -4 3
-5 14 -10 25 -10 10 0 20 -6 23 -13 3 -8 23 -14 48 -15 37 -2 47 3 80 38 21
22 43 40 49 40 5 0 10 7 10 16 0 8 9 36 19 62 11 26 22 58 25 72 7 33 77 74
111 66 31 -8 39 6 14 27 -16 14 -17 21 -9 37 6 11 14 20 19 20 4 0 26 28 47
63 27 42 40 75 41 104 2 38 0 41 -22 38 -14 -1 -31 -7 -38 -14 -16 -13 -27 -5
-27 21 0 10 -7 18 -16 18 -10 0 -14 6 -10 15 7 19 6 19 -22 -1z"/>
<path d="M2865 960 c-8 -13 4 -88 15 -95 16 -10 38 -64 28 -67 -11 -4 26 -77
48 -94 7 -6 11 -13 9 -16 -3 -3 11 -8 32 -11 28 -5 40 -3 46 8 4 9 12 13 18
10 5 -4 9 3 9 14 0 25 16 36 24 15 10 -27 24 -6 24 37 1 23 6 47 11 52 13 13
15 133 3 141 -5 3 -39 -5 -76 -16 l-69 -21 -54 27 c-61 30 -60 29 -68 16z"/>
<path d="M4623 311 c-10 -29 -10 -29 18 -19 24 8 27 13 19 29 -15 26 -24 24
-37 -10z"/>
</g>
</svg>
