<?xml version="1.0" standalone="no"?>
<!DOCTYPE svg PUBLIC "-//W3C//DTD SVG 20010904//EN"
 "http://www.w3.org/TR/2001/REC-SVG-20010904/DTD/svg10.dtd">
<svg version="1.0" xmlns="http://www.w3.org/2000/svg"
 width="600.000000pt" height="451.000000pt" viewBox="0 0 600.000000 451.000000"
 preserveAspectRatio="xMidYMid meet">

<g transform="translate(0.000000,451.000000) scale(0.100000,-0.100000)"
fill="#000000" stroke="none">
<path d="M1705 3973 c-64 -2 -112 -9 -133 -19 -26 -12 -36 -13 -47 -4 -21 17
-75 3 -75 -20 0 -11 9 -20 23 -23 12 -2 3 -5 -20 -6 -23 0 -44 3 -48 9 -14 23
-168 -70 -159 -95 5 -13 -8 -15 -80 -15 -49 0 -86 4 -86 10 0 5 7 7 16 3 8 -3
26 0 39 7 22 12 23 15 10 34 -19 26 -19 40 -2 33 8 -3 20 -1 28 3 11 7 10 10
-4 16 -9 3 -23 1 -30 -4 -10 -8 -22 -6 -45 8 -24 15 -38 17 -57 10 -29 -11
-34 -24 -6 -15 13 4 27 -1 42 -16 l22 -22 -87 8 c-85 7 -146 -4 -146 -26 0
-15 39 -10 65 7 22 14 25 14 25 1 0 -8 -6 -20 -13 -26 -16 -13 -167 -10 -167
3 0 5 -6 4 -12 -1 -24 -19 -140 -20 -298 -4 -107 11 -231 7 -262 -10 -9 -5
-33 -9 -52 -9 -20 0 -36 -4 -36 -10 0 -13 36 -31 45 -22 5 4 5 1 1 -6 -4 -7
-12 -10 -17 -6 -6 3 -39 3 -75 -1 -57 -6 -62 -8 -49 -22 10 -9 27 -13 45 -11
46 7 35 -8 -12 -18 l-43 -9 -3 -53 c-2 -37 1 -52 10 -52 9 0 9 -3 -2 -10 -12
-8 -9 -10 12 -10 30 0 50 20 21 21 -15 0 -14 2 5 11 12 6 22 14 22 19 0 4 14
12 30 18 21 7 30 7 30 -1 0 -15 53 0 63 18 10 18 25 18 43 -1 13 -13 65 -21
78 -12 2 1 12 -5 22 -14 11 -9 27 -15 38 -13 17 2 18 -4 14 -73 -3 -47 -10
-78 -18 -83 -11 -7 -11 -12 2 -32 19 -29 9 -68 -30 -117 -49 -62 -62 -98 -62
-178 0 -40 3 -73 8 -73 4 0 16 -7 26 -15 15 -11 19 -25 18 -55 -2 -25 4 -52
15 -71 15 -26 16 -31 3 -39 -12 -7 -12 -12 4 -29 10 -10 19 -30 20 -44 4 -33
32 -72 41 -57 4 6 2 16 -3 23 -5 7 -10 26 -10 42 0 17 -8 50 -16 74 -9 24 -16
55 -16 68 0 35 24 24 28 -13 2 -27 33 -109 53 -144 28 -48 40 -88 34 -116 -4
-22 0 -38 16 -57 11 -15 25 -27 30 -27 6 0 31 -14 56 -31 36 -25 52 -30 79
-26 29 5 37 1 61 -28 18 -22 40 -36 64 -40 29 -5 39 -14 52 -44 10 -21 17 -41
17 -45 0 -9 57 -58 84 -71 17 -9 24 -7 37 9 22 27 37 13 44 -42 3 -26 8 -59
10 -74 3 -16 -2 -33 -10 -42 -8 -8 -15 -19 -15 -24 0 -5 -9 -17 -19 -26 -25
-23 -38 -95 -20 -107 11 -6 10 -12 -5 -27 -20 -23 -14 -83 11 -103 19 -16 44
-67 73 -149 23 -65 54 -110 75 -110 6 0 30 -16 53 -35 49 -43 61 -86 63 -250
2 -65 8 -128 17 -154 12 -34 12 -54 4 -90 -6 -29 -7 -50 -1 -57 5 -7 12 -29
14 -49 3 -21 11 -43 19 -49 17 -13 29 -96 14 -96 -6 0 -5 -6 2 -15 7 -8 10
-15 6 -15 -11 0 40 -94 61 -113 11 -9 31 -16 44 -15 17 2 23 -2 22 -12 -2 -11
8 -15 39 -17 l42 -1 -36 20 c-45 26 -53 53 -27 89 24 34 24 37 -3 59 -22 17
-22 19 -5 37 19 22 22 55 6 84 -8 16 -7 20 3 18 34 -4 40 1 35 31 -5 23 -3 28
9 23 21 -8 72 16 79 37 6 18 -10 57 -30 73 -5 5 6 6 27 2 31 -5 39 -2 57 21
12 15 26 45 33 68 6 22 18 49 27 59 9 11 14 34 13 60 -2 35 2 47 25 69 15 14
39 28 52 30 15 2 31 15 41 33 23 42 42 142 37 198 -2 26 0 47 4 47 5 0 15 16
24 36 8 19 24 48 35 64 20 29 26 84 11 108 -7 12 -46 36 -96 60 -11 6 -39 16
-62 23 -24 7 -43 17 -43 23 0 15 -52 45 -68 39 -8 -3 -10 1 -6 11 9 23 -42 21
-55 -1 -16 -28 -13 -5 4 27 13 26 13 33 -4 73 -24 55 -63 87 -107 87 -27 0
-36 6 -49 30 -9 17 -27 35 -40 40 -14 5 -25 14 -25 20 0 26 -37 45 -89 47 -29
0 -56 5 -60 10 -12 18 -40 22 -51 8 -15 -18 -31 -10 -23 10 7 20 -7 18 -37 -5
-14 -11 -31 -20 -37 -20 -7 0 -13 -8 -13 -18 0 -11 -9 -27 -19 -36 -18 -17
-20 -17 -29 0 -9 16 -15 16 -46 7 -33 -10 -39 -9 -56 10 -22 23 -26 72 -11
125 13 43 -7 62 -65 62 -39 0 -43 2 -34 18 5 9 21 43 35 75 20 47 22 59 10 63
-23 9 -58 0 -66 -18 -5 -10 -13 -26 -17 -35 -13 -26 -78 -41 -97 -22 -29 29
-32 89 -10 169 19 70 24 77 68 107 41 28 51 31 77 21 24 -8 33 -7 46 7 13 12
27 15 53 11 20 -3 45 -7 56 -8 16 -2 21 -12 23 -47 2 -25 9 -53 17 -64 13 -19
13 -19 24 1 7 13 8 36 2 68 -5 26 -5 58 -1 70 5 12 38 43 73 68 70 50 81 65
79 111 -1 17 1 25 4 18 3 -8 22 4 50 32 26 27 54 45 67 45 13 0 26 9 32 22 10
22 15 25 74 52 42 20 42 20 34 -1 -5 -13 -3 -15 13 -9 10 5 31 13 47 18 34 12
35 24 2 32 -27 7 -33 34 -13 54 9 9 6 12 -17 12 -27 0 -28 1 -9 15 11 9 42 15
79 15 33 0 73 7 89 15 27 14 28 14 15 -2 -7 -10 -24 -30 -38 -45 l-25 -28 31
0 c18 0 43 -4 57 -10 24 -9 26 -8 26 20 0 21 -5 30 -16 30 -16 0 -16 2 2 66 4
15 -3 27 -30 48 -22 16 -36 36 -36 49 -1 12 -7 33 -14 46 -11 20 -15 21 -22 9
-12 -21 -52 -40 -65 -32 -6 3 -8 16 -5 28 7 27 -23 48 -75 52 -32 3 -38 0 -49
-25 -6 -16 -18 -32 -26 -35 -10 -4 -12 -14 -9 -29 7 -25 -14 -50 -52 -61 -16
-5 -23 -15 -23 -31 0 -24 -13 -38 -38 -41 -19 -3 -35 45 -21 62 9 11 8 14 -6
14 -27 0 -114 43 -115 57 0 6 -5 13 -12 15 -24 8 2 36 59 63 73 35 134 48 126
27 -5 -12 0 -13 28 -7 19 5 40 8 47 8 7 0 4 10 -10 24 l-21 23 29 0 c49 0 74
11 80 36 4 16 13 23 28 22 11 0 26 1 31 3 11 4 75 -23 75 -32 0 -9 -75 -39
-97 -39 -11 0 -26 -7 -33 -15 -11 -13 -8 -15 13 -15 14 0 38 -5 54 -11 15 -6
48 -13 72 -15 40 -4 43 -3 30 12 -12 15 -11 16 9 10 17 -6 21 -4 16 8 -3 9
-11 16 -17 16 -8 0 -8 3 0 11 8 8 17 8 31 0 17 -9 28 -7 52 7 l30 19 -25 11
c-14 6 -25 18 -25 25 0 14 -69 41 -105 42 -13 0 -21 8 -23 23 -3 16 2 22 16
22 10 0 22 3 26 7 23 24 196 17 196 -8 0 -5 20 -9 44 -9 46 0 61 -15 49 -46
-4 -10 2 -17 16 -21 27 -7 22 -26 -9 -33 -27 -6 -41 -38 -28 -62 5 -10 6 -18
2 -18 -4 0 3 -11 16 -25 13 -14 31 -25 40 -25 9 0 21 -5 28 -12 9 -9 16 -7 32
10 11 11 20 26 20 32 0 5 4 10 8 10 5 0 22 11 38 25 26 23 44 30 67 26 4 -1
24 6 45 15 20 10 45 16 55 15 10 -1 44 6 75 16 55 17 56 18 27 24 -27 6 -26 7
13 8 44 1 57 17 20 24 -14 3 -8 5 15 6 26 1 40 6 44 19 4 9 18 25 31 36 28 22
16 44 -16 27 -12 -6 -23 -7 -26 -2 -9 13 -547 7 -573 -7 -12 -7 -30 -12 -40
-11 -10 0 5 9 32 19 28 10 42 19 33 19 -9 1 -22 2 -30 4 -7 1 -58 1 -113 0z
m-326 -107 c-22 -10 -25 -32 -6 -39 8 -3 6 -9 -8 -20 -18 -14 -20 -14 -23 -1
-2 9 -10 13 -18 10 -11 -4 -14 1 -11 22 2 17 11 28 23 31 10 2 23 9 27 17 6
11 11 11 22 1 11 -10 10 -13 -6 -21z m-259 4 c0 -5 -5 -10 -11 -10 -5 0 -7 5
-4 10 3 6 8 10 11 10 2 0 4 -4 4 -10z m-150 -70 c-15 -9 -52 -1 -45 10 2 4 16
5 31 2 16 -3 21 -7 14 -12z m60 6 c0 -11 -19 -15 -25 -6 -3 5 1 10 9 10 9 0
16 -2 16 -4z m540 -36 c0 -5 -5 -10 -11 -10 -5 0 -7 5 -4 10 3 6 8 10 11 10 2
0 4 -4 4 -10z m-1142 -355 c-3 -3 -9 2 -12 12 -6 14 -5 15 5 6 7 -7 10 -15 7
-18z m1022 11 c0 -2 -7 -7 -16 -10 -8 -3 -12 -2 -9 4 6 10 25 14 25 6z m-344
-23 c7 -10 14 -21 14 -25 0 -11 -38 -10 -60 2 -13 7 -21 7 -25 0 -8 -13 -45
-13 -45 -1 0 8 70 38 94 40 5 1 15 -7 22 -16z m-30 -68 c-14 -13 -26 -30 -26
-38 0 -17 -28 -43 -37 -34 -12 13 56 97 78 97 7 0 0 -11 -15 -25z m102 8 c2
-7 -3 -13 -12 -13 -8 0 -20 -9 -26 -21 -14 -26 -21 -20 -24 21 -2 29 0 31 28
28 16 -2 31 -9 34 -15z m57 -43 c-3 -5 -18 -10 -33 -9 -24 0 -25 1 -7 9 28 12
47 12 40 0z m-85 -35 c-14 -8 -32 -14 -40 -14 -8 0 -1 7 15 14 39 18 57 18 25
0z m27 -891 c-9 -9 -28 6 -21 18 4 6 10 6 17 -1 6 -6 8 -13 4 -17z"/>
<path d="M1325 3930 c-4 -6 -11 -8 -16 -4 -14 8 -73 -7 -62 -16 4 -4 17 -10
28 -13 15 -3 13 -5 -8 -6 -16 0 -35 -8 -43 -16 -14 -13 -11 -15 20 -15 27 0
44 8 71 34 19 19 43 37 53 39 10 3 7 5 -10 6 -15 0 -30 -4 -33 -9z"/>
<path d="M4103 3918 c-2 -5 -30 -8 -62 -8 -67 0 -169 -29 -149 -41 7 -5 -5 -6
-26 -2 -30 5 -37 3 -31 -6 6 -10 3 -11 -12 -2 -35 18 -33 1 4 -33 32 -29 34
-33 19 -45 -14 -12 -16 -12 -10 3 4 11 -3 24 -22 39 -16 12 -35 30 -43 39 -30
36 -80 16 -60 -24 8 -14 2 -16 -44 -16 -80 1 -186 -11 -208 -22 -10 -6 -30 -8
-44 -4 -15 4 -25 2 -25 -5 0 -16 -29 -14 -46 3 -8 8 -40 17 -71 21 -32 3 -76
10 -97 16 -64 17 -68 17 -136 0 -75 -19 -117 -40 -144 -70 -10 -11 -43 -32
-73 -46 -50 -23 -53 -26 -47 -52 4 -15 11 -34 17 -40 13 -18 52 -16 67 3 12
13 16 12 36 -13 13 -15 23 -34 24 -40 1 -32 70 11 70 42 0 8 5 15 10 15 6 0
10 9 10 20 0 11 -4 20 -10 20 -22 0 -8 30 20 45 17 9 30 20 30 25 0 6 11 10
25 10 14 0 25 -4 25 -8 0 -5 -11 -15 -25 -22 -14 -7 -25 -21 -25 -30 0 -30 20
-38 82 -32 45 4 59 2 54 -6 -4 -7 -22 -11 -39 -9 -28 2 -32 -1 -30 -20 2 -18
-2 -22 -19 -20 -16 1 -23 -5 -28 -23 -6 -27 -29 -32 -145 -34 -44 -1 -50 1
-48 19 4 26 -12 49 -26 41 -7 -5 -9 -20 -5 -42 5 -29 3 -34 -13 -34 -11 0 -28
-8 -39 -18 -31 -29 -98 -67 -111 -64 -7 2 -13 -2 -13 -8 0 -5 -11 -10 -25 -10
-16 0 -25 -6 -25 -15 0 -8 4 -15 8 -15 17 0 52 -38 52 -56 0 -38 -13 -45 -77
-38 -34 3 -63 1 -67 -4 -3 -5 -8 -46 -12 -90 l-7 -82 30 0 c16 0 32 -3 36 -6
7 -7 -32 -74 -44 -74 -13 0 -41 -60 -35 -75 5 -13 -43 -65 -61 -65 -6 0 -32
-43 -59 -95 -37 -74 -46 -99 -38 -113 17 -30 11 -138 -11 -162 -14 -16 -16
-23 -7 -32 7 -7 12 -20 12 -30 0 -10 16 -40 35 -67 19 -26 35 -55 35 -64 0
-15 65 -83 109 -114 20 -13 26 -13 48 -2 14 7 48 12 76 11 29 -1 64 5 81 13
45 23 75 19 86 -10 9 -25 18 -29 53 -25 10 1 24 -3 31 -9 15 -12 13 -74 -3
-115 -11 -26 -8 -35 19 -79 36 -58 65 -141 75 -210 5 -38 3 -52 -13 -72 -25
-32 -39 -154 -21 -187 7 -13 14 -32 16 -43 2 -10 9 -28 17 -40 7 -11 16 -51
20 -89 4 -38 13 -81 20 -95 19 -37 36 -94 36 -122 0 -36 15 -52 46 -50 75 3
103 7 110 13 4 5 16 8 26 8 10 0 18 3 18 8 0 4 14 22 30 41 17 18 37 46 45 62
9 16 19 29 24 29 11 0 33 59 26 70 -2 4 7 12 21 18 32 15 47 56 39 113 -6 44
-5 47 30 75 20 16 52 44 72 62 l35 32 -6 93 c-4 50 -8 106 -9 122 -1 17 -6 35
-10 42 -4 7 -1 29 8 49 8 20 15 44 15 53 0 9 32 53 69 97 38 45 81 101 96 123
45 73 80 211 56 225 -5 3 -24 -2 -42 -11 -18 -9 -51 -17 -74 -17 -33 -1 -40 3
-42 19 -2 16 14 28 79 60 45 21 95 52 112 67 17 15 35 28 42 28 18 0 64 59 64
83 0 13 5 28 11 34 19 19 1 67 -32 86 -17 9 -33 26 -36 37 -7 26 -11 25 -35
-5 -24 -31 -58 -34 -58 -4 0 12 -8 23 -18 26 -31 8 -91 113 -64 113 13 0 52
-31 52 -41 0 -5 12 -21 28 -34 20 -19 34 -23 55 -19 21 4 34 0 48 -15 11 -12
32 -21 47 -22 124 -3 138 -7 182 -49 30 -29 37 -40 24 -40 -14 0 -12 -6 11
-30 26 -27 31 -29 44 -15 14 13 17 8 28 -46 12 -59 65 -202 105 -282 39 -78
89 -10 85 117 -2 58 1 71 18 85 12 9 32 34 45 56 13 22 32 46 42 53 10 7 18
22 18 33 0 13 7 19 23 19 13 0 28 5 34 11 7 7 14 1 23 -21 7 -17 20 -36 30
-43 25 -18 43 -57 44 -97 1 -28 5 -35 21 -36 11 0 27 6 36 13 13 11 18 5 34
-43 10 -31 19 -82 19 -113 1 -31 6 -60 12 -66 17 -15 41 -65 53 -110 7 -26 22
-49 42 -64 35 -26 46 -23 29 9 -7 12 -13 35 -13 50 -1 16 -15 43 -31 61 -48
53 -78 117 -66 139 5 10 10 31 10 46 l0 27 31 -34 c64 -70 69 -77 69 -93 0
-27 19 -18 67 29 43 44 45 47 39 89 -4 27 -17 54 -34 72 -16 16 -41 46 -56 66
l-28 37 22 31 c24 34 35 37 44 14 6 -16 28 -16 27 1 0 6 28 24 63 40 35 17 73
41 84 55 27 35 46 128 30 147 -6 8 -12 23 -13 33 -1 10 -20 38 -43 62 -47 48
-48 51 -27 68 8 7 15 19 15 28 0 11 -9 13 -40 9 -22 -3 -40 -2 -40 2 0 4 -12
14 -27 21 -28 12 -28 12 -5 21 12 5 22 13 22 18 0 5 7 11 15 15 12 4 14 0 9
-18 -7 -29 11 -43 24 -19 14 24 43 25 49 2 3 -10 16 -22 28 -25 22 -5 34 -26
39 -66 4 -27 12 -31 45 -23 49 11 39 63 -23 117 -17 15 -26 27 -19 28 6 0 13
15 15 33 2 17 8 31 14 30 26 -5 48 38 52 104 4 53 1 68 -12 75 -17 10 -22 38
-7 38 5 0 25 -19 45 -42 24 -29 33 -36 30 -22 -8 29 -89 107 -106 102 -7 -3
-25 1 -39 8 -14 7 -36 10 -49 7 -17 -5 -21 -3 -15 6 5 10 2 11 -14 6 -26 -8
-28 12 -6 55 15 29 18 30 89 30 41 0 76 -4 78 -9 2 -5 15 -7 30 -4 23 4 27 9
22 29 -7 29 19 43 48 25 14 -9 23 -9 32 -2 21 18 26 1 11 -36 -8 -19 -11 -42
-7 -53 6 -17 142 -120 158 -120 9 0 -6 93 -18 107 -6 7 -7 13 -2 13 4 0 -2 9
-14 20 -12 11 -26 20 -32 20 -5 0 -10 7 -10 16 0 10 6 14 15 11 8 -4 17 -2 20
3 4 6 17 7 29 4 17 -4 28 0 37 13 8 11 23 25 34 31 19 10 19 11 -7 21 -16 6
-28 15 -28 21 0 7 6 8 18 1 10 -5 40 -12 66 -16 42 -5 47 -3 42 12 -4 9 -2 19
3 22 23 15 -10 33 -65 36 -32 1 -112 8 -178 15 -65 7 -136 10 -157 7 -21 -3
-40 -3 -43 0 -3 3 -38 7 -78 9 -40 2 -104 6 -143 10 -38 4 -88 8 -110 9 -22 2
-73 9 -114 16 -59 11 -75 11 -79 1 -2 -6 -17 -12 -33 -12 -18 0 -28 -4 -24
-10 10 -16 -18 -11 -59 11 -43 23 -146 38 -146 22 0 -13 -38 -24 -45 -13 -3 4
-35 7 -72 5 -54 -2 -72 1 -88 15 -15 14 -40 19 -103 22 -46 2 -86 0 -89 -4z
m-358 -98 c3 -5 1 -10 -4 -10 -6 0 -11 5 -11 10 0 6 2 10 4 10 3 0 8 -4 11
-10z m-415 -61 c12 -6 10 -8 -8 -9 -13 0 -20 -4 -17 -10 11 -18 -10 -11 -44
14 l-33 24 44 -5 c24 -3 50 -9 58 -14z m374 -375 c10 -26 7 -34 -12 -34 -28 0
-23 -29 9 -52 17 -13 25 -26 22 -35 -5 -12 -1 -14 15 -9 11 4 23 2 27 -4 3 -5
-1 -10 -9 -10 -22 0 -20 -17 4 -37 11 -10 20 -28 20 -40 0 -19 -5 -23 -32 -23
-18 0 -44 9 -58 19 -21 17 -23 22 -13 44 9 20 8 26 -9 38 -24 16 -68 83 -68
101 0 13 66 57 86 58 7 0 15 -7 18 -16z m-286 -19 c-6 -14 -9 -27 -7 -28 2 -2
25 -16 52 -31 26 -15 47 -31 47 -36 0 -24 -61 -34 -100 -15 -20 10 -34 10 -69
-1 -25 -7 -48 -11 -52 -8 -4 2 -10 0 -14 -6 -3 -5 -14 -10 -23 -10 -13 0 -14
2 -4 9 11 7 11 12 1 28 -10 17 -9 27 8 59 24 46 47 53 77 25 15 -14 26 -17 36
-11 10 7 11 10 3 10 -25 0 -13 16 20 27 17 5 33 11 34 12 2 0 -3 -10 -9 -24z
m446 -11 c12 -31 6 -44 -18 -44 -31 0 -36 8 -25 38 10 26 34 29 43 6z m-827
-62 c27 -17 42 -35 43 -48 0 -11 11 -31 24 -43 13 -13 27 -34 30 -47 8 -31 36
-32 32 -1 -1 12 -6 30 -11 40 -5 12 -2 22 10 31 28 20 51 8 64 -34 14 -47 32
-62 79 -65 20 -2 45 -6 55 -10 10 -4 17 -3 17 4 0 6 9 11 20 11 24 0 27 -39 8
-102 -12 -40 -12 -40 -54 -33 -23 3 -45 2 -48 -3 -6 -9 -73 6 -134 30 -37 14
-69 2 -64 -25 3 -20 -17 -32 -31 -18 -6 6 -19 11 -29 11 -9 0 -26 9 -36 20
-10 11 -32 22 -48 23 -16 2 -39 10 -51 17 -19 12 -20 15 -6 25 12 9 14 18 6
41 -10 29 -10 29 -84 26 -53 -2 -87 -10 -121 -26 -28 -14 -57 -21 -72 -19 -34
7 -33 21 1 29 34 9 62 41 63 72 0 15 11 29 30 40 17 9 33 25 36 35 3 9 11 18
17 18 7 1 19 3 27 3 8 1 28 8 43 16 28 13 30 13 60 -22 18 -20 47 -44 65 -54
21 -12 32 -26 32 -41 0 -13 5 -23 10 -23 10 0 12 5 14 33 1 6 5 15 10 19 6 3
-6 16 -25 27 -19 11 -45 34 -57 51 -27 37 -20 59 11 35 12 -9 41 -28 64 -43z
m380 -389 c5 3 22 -18 37 -46 16 -29 34 -59 41 -67 7 -8 19 -33 26 -55 8 -22
29 -59 46 -83 32 -42 63 -125 63 -166 0 -19 -2 -18 -18 6 -9 14 -30 36 -45 48
-15 12 -27 30 -27 40 0 10 -11 32 -25 48 -14 17 -25 40 -25 53 0 22 -23 71
-94 203 -30 57 -33 71 -7 37 10 -13 22 -21 28 -18z m-409 -405 c7 -7 12 -16
12 -20 0 -15 -15 -8 -28 12 -13 22 -3 27 16 8z m436 -407 c3 -4 0 -22 -7 -40
-15 -41 -43 -38 -38 4 1 17 5 33 8 38 6 10 31 9 37 -2z m-74 -236 c0 -5 -7 3
-15 19 -8 15 -15 45 -14 65 1 33 2 32 14 -19 8 -30 14 -59 15 -65z m77 -77
c-3 -7 -5 -2 -5 12 0 14 2 19 5 13 2 -7 2 -19 0 -25z m5 -62 c2 -19 0 -32 -4
-30 -8 5 -12 64 -4 64 2 0 6 -15 8 -34z"/>
<path d="M2867 3220 c3 -11 7 -20 9 -20 2 0 4 9 4 20 0 11 -4 20 -9 20 -5 0
-7 -9 -4 -20z"/>
<path d="M2966 3156 c9 -24 34 -28 34 -6 0 13 -7 20 -20 20 -13 0 -17 -5 -14
-14z"/>
<path d="M3530 3903 c-23 -4 -57 -39 -47 -49 2 -2 19 -6 38 -10 24 -4 30 -3
20 4 -21 15 -6 40 31 51 27 7 28 9 8 9 -14 -1 -36 -3 -50 -5z"/>
<path d="M2391 3760 c-19 -5 -41 -6 -49 -3 -10 4 -13 0 -10 -13 4 -24 48 -30
101 -14 32 9 36 14 26 26 -13 15 -18 16 -68 4z"/>
<path d="M2617 3623 c-14 -13 -7 -54 12 -69 17 -15 18 -18 3 -45 -20 -34 -16
-39 37 -42 59 -4 65 25 16 77 -28 30 -33 41 -24 52 9 11 8 14 -5 14 -9 0 -16
5 -16 10 0 11 -13 13 -23 3z"/>
<path d="M2895 3570 c-3 -5 -1 -10 4 -10 6 0 11 5 11 10 0 6 -2 10 -4 10 -3 0
-8 -4 -11 -10z"/>
<path d="M2551 3551 c-8 -5 -15 -21 -17 -36 -3 -25 -1 -26 24 -20 32 8 38 13
47 43 5 18 3 22 -17 22 -13 0 -29 -4 -37 -9z"/>
<path d="M5360 3394 c8 -10 15 -20 16 -22 1 -2 5 1 8 7 4 5 -4 15 -16 22 -22
12 -22 11 -8 -7z"/>
<path d="M5386 3310 c1 -30 24 -69 24 -41 0 8 7 10 20 6 12 -4 26 0 36 9 15
16 10 41 -6 31 -5 -3 -23 1 -39 10 -38 19 -36 20 -35 -15z"/>
<path d="M5417 3243 c-4 -3 0 -17 8 -30 18 -27 11 -63 -11 -63 -8 0 -14 -9
-14 -20 0 -15 -7 -20 -29 -20 -22 0 -32 -7 -44 -32 -9 -18 -12 -35 -8 -38 4
-3 13 -14 20 -25 10 -18 12 -15 8 18 -3 32 0 38 20 43 13 4 30 1 38 -6 16 -13
39 -4 29 11 -3 6 0 9 7 8 28 -6 60 12 55 29 -3 9 -10 36 -15 60 -11 50 -45 85
-64 65z"/>
<path d="M5360 3061 c0 -18 18 -21 30 -6 10 13 9 15 -9 15 -11 0 -21 -4 -21
-9z"/>
<path d="M5210 2786 c0 -14 5 -28 10 -31 6 -4 10 7 10 24 0 17 -4 31 -10 31
-5 0 -10 -11 -10 -24z"/>
<path d="M954 2755 c-16 -13 -16 -14 -1 -9 9 3 23 2 30 -4 12 -10 18 -12 35
-12 14 0 52 -36 52 -49 0 -13 39 -15 58 -2 17 10 7 18 -72 60 -67 35 -75 37
-102 16z"/>
<path d="M1173 2673 c-14 -3 -20 -9 -16 -19 3 -8 -1 -14 -8 -15 -8 0 -2 -4 12
-9 14 -4 43 -5 64 -1 l39 6 -28 23 c-16 12 -31 21 -35 21 -3 -1 -16 -4 -28 -6z"/>
<path d="M5000 2665 c-7 -9 -10 -18 -7 -21 10 -11 37 5 37 21 0 19 -14 19 -30
0z"/>
<path d="M1056 2632 c-3 -6 -1 -14 5 -17 15 -10 25 3 12 16 -7 7 -13 7 -17 1z"/>
<path d="M5244 2592 c1 -31 7 -55 18 -65 23 -23 25 -22 20 14 -3 17 0 34 7 38
16 10 -9 61 -30 61 -13 0 -16 -10 -15 -48z"/>
<path d="M5313 2503 c9 -2 17 -9 17 -14 0 -5 5 -9 11 -9 8 0 8 5 -1 15 -7 8
-20 14 -29 14 -13 -1 -13 -2 2 -6z"/>
<path d="M5275 2480 c3 -5 8 -10 11 -10 2 0 4 5 4 10 0 6 -5 10 -11 10 -5 0
-7 -4 -4 -10z"/>
<path d="M5330 2457 c0 -5 6 -7 14 -4 8 3 17 3 20 0 9 -9 -14 -44 -25 -38 -5
4 -9 2 -9 -4 0 -5 -3 -16 -6 -25 -10 -25 10 -19 21 7 6 12 17 21 24 19 7 -1
10 2 6 8 -3 5 -1 10 4 10 8 0 7 6 -1 19 -12 19 -48 25 -48 8z"/>
<path d="M5310 2434 c0 -8 5 -12 10 -9 6 4 8 11 5 16 -9 14 -15 11 -15 -7z"/>
<path d="M4412 2345 c-3 -53 19 -78 46 -52 15 16 15 19 -2 51 -27 50 -41 51
-44 1z"/>
<path d="M5375 2367 c-11 -5 -26 -13 -34 -17 -24 -11 -25 -29 -2 -23 16 4 21
1 21 -15 0 -12 8 -26 19 -31 21 -12 32 -5 24 15 -3 8 0 14 7 14 8 0 10 9 5 28
-9 36 -16 42 -40 29z"/>
<path d="M5186 2285 c-4 -14 -13 -25 -21 -25 -8 0 -21 -12 -30 -27 -23 -43
-52 -73 -69 -73 -12 0 -16 -10 -16 -39 0 -22 5 -43 10 -46 6 -3 10 -17 10 -30
0 -23 17 -35 51 -35 11 0 28 -6 40 -12 17 -11 22 -10 35 6 8 11 14 30 14 42 0
13 5 26 10 29 6 3 10 17 10 30 0 13 5 25 10 27 7 2 5 17 -5 41 -18 42 -17 45
6 71 17 18 16 19 -11 42 -35 30 -36 30 -44 -1z"/>
<path d="M4747 2248 c5 -7 26 -34 46 -59 20 -25 37 -50 37 -55 0 -19 63 -133
89 -163 15 -17 36 -31 45 -31 12 0 16 -5 13 -14 -3 -8 0 -19 6 -24 22 -18 126
-43 164 -40 l38 3 -32 15 c-17 8 -30 17 -27 21 5 9 -33 20 -82 24 -57 3 -64
10 -64 58 0 32 -7 50 -31 77 -17 19 -26 36 -21 38 6 2 -24 39 -67 83 -53 54
-84 79 -100 79 -17 0 -21 -3 -14 -12z"/>
<path d="M5335 2133 c-54 -6 -65 -19 -15 -18 22 0 45 6 52 13 7 7 10 11 8 10
-3 -1 -23 -3 -45 -5z"/>
<path d="M5441 2124 c0 -11 3 -14 6 -6 3 7 2 16 -1 19 -3 4 -6 -2 -5 -13z"/>
<path d="M5516 2081 c-3 -5 1 -14 9 -21 7 -6 12 -17 10 -23 -6 -16 21 -51 33
-43 5 3 15 -1 22 -9 7 -8 18 -15 26 -15 28 0 46 -32 40 -70 -5 -35 -5 -37 19
-32 17 3 27 -1 31 -12 9 -25 40 -19 63 12 l21 27 37 -41 c21 -23 48 -44 61
-47 28 -6 28 -5 -4 48 -16 29 -23 52 -19 65 4 13 2 20 -7 20 -8 0 -24 13 -36
30 -13 17 -54 44 -99 66 l-77 36 -22 -27 c-24 -31 -44 -26 -44 10 0 29 -50 50
-64 26z"/>
<path d="M5275 2070 c-11 -19 -14 -69 -6 -75 6 -3 8 -17 5 -32 -5 -18 -3 -24
5 -19 6 4 11 23 11 42 0 19 5 34 10 34 6 0 10 -7 8 -16 -2 -9 7 -23 19 -31 21
-14 21 -14 8 24 -8 21 -11 47 -9 58 4 16 0 20 -21 20 -15 0 -28 -2 -30 -5z"/>
<path d="M5465 2010 c3 -5 8 -10 11 -10 2 0 4 5 4 10 0 6 -5 10 -11 10 -5 0
-7 -4 -4 -10z"/>
<path d="M5956 1961 c-3 -4 -19 -11 -36 -15 -35 -6 -32 -26 3 -26 25 1 57 22
57 39 0 13 -16 15 -24 2z"/>
<path d="M5270 1866 c0 -2 7 -7 16 -10 8 -3 12 -2 9 4 -6 10 -25 14 -25 6z"/>
<path d="M5378 1852 c-16 -9 -28 -20 -28 -24 0 -15 17 -8 40 17 27 29 25 31
-12 7z"/>
<path d="M5726 1743 c-9 -26 -16 -55 -16 -64 0 -29 -22 -69 -38 -69 -23 0 -82
49 -82 68 0 10 7 28 16 41 9 12 12 26 8 31 -14 12 -83 20 -89 9 -4 -5 -13 -9
-21 -9 -18 0 -53 -38 -54 -57 0 -17 -15 -16 -30 2 -18 21 -35 19 -53 -7 -28
-42 -52 -65 -64 -61 -11 4 -17 -8 -15 -28 3 -20 -53 -60 -102 -74 -69 -20
-113 -59 -122 -105 -4 -19 -12 -41 -18 -49 -6 -8 -9 -45 -8 -87 3 -53 -1 -83
-12 -106 -13 -25 -14 -33 -4 -40 19 -11 32 -10 54 7 10 8 37 15 58 15 22 0 47
7 57 16 22 20 87 36 146 38 49 1 87 -26 77 -56 -7 -24 1 -23 38 4 l31 21 -18
-27 c-14 -21 -15 -25 -3 -21 12 5 14 -2 11 -35 -4 -36 -1 -41 21 -50 14 -5 33
-7 41 -4 8 4 22 1 30 -6 11 -10 18 -9 30 4 9 9 24 16 33 16 9 0 33 15 52 34
72 69 122 124 134 147 58 107 58 109 52 152 -3 23 -7 50 -8 60 -1 9 -6 17 -10
17 -4 0 -8 13 -8 28 0 17 -10 38 -24 52 -21 19 -25 31 -24 77 2 42 -2 59 -15
68 -11 7 -17 26 -17 48 0 53 -16 53 -34 0z"/>
<path d="M3736 1747 c-22 -44 -46 -73 -72 -87 -25 -15 -30 -23 -34 -72 -3 -30
-11 -62 -18 -71 -16 -19 -11 -92 7 -110 20 -20 64 4 77 43 20 61 55 177 57
191 2 8 6 19 9 25 9 13 -1 82 -12 89 -4 3 -11 -1 -14 -8z"/>
<path d="M5544 982 c-19 -2 -34 -10 -38 -20 -3 -9 -9 -23 -12 -29 -11 -24 25
-13 58 16 37 33 36 37 -8 33z"/>
<path d="M5917 911 c-53 -25 -66 -39 -47 -51 25 -16 53 -11 83 15 28 25 36 56
15 54 -7 0 -30 -9 -51 -18z"/>
</g>
</svg>
