<svg id="Capa_1" enable-background="new 0 0 512 512" height="512" viewBox="0 0 512 512" width="512" xmlns="http://www.w3.org/2000/svg"><path d="m416.4750061 160.4750061c0-88.4860077-71.9890137-160.4750061-160.4750061-160.4750061s-160.4749985 71.9889984-160.4749985 160.4750061c0 82.1589966 62.064003 150.0829773 141.7680054 159.3789978v128.882019l-23.1560059-22.7680054c-7.3670044-7.243988-19.2109985-7.144989-26.4539948.223999-7.2429962 7.3670044-7.1439972 19.2109985.223999 26.45401l54.9779968 54.0559998c7.1829987 7.0629883 19.0470123 7.0629883 26.2299957 0l54.9790039-54.0559998c7.3670044-7.2430115 7.4670105-19.0870056.223999-26.45401-7.243988-7.3680115-19.0880127-7.4679871-26.45401-.223999l-23.1570129 22.7680054v-128.8810119c79.704033-9.2969971 141.7680284-77.2210083 141.7680284-159.3800049zm-283.5370026 0c0-67.8560028 55.2050018-123.0619965 123.0619965-123.0619965s123.0620117 55.2060013 123.0620117 123.0619965c0 67.8569946-55.2050171 123.0619812-123.0620117 123.0619812s-123.0619965-55.2049866-123.0619965-123.0619812z" fill="#8bcaff"/><g fill="#60b8ff"><path d="m246.6470032 37.7669983c-3.0879974-.2330017-6.2070007-.3530006-9.3529968-.3530006-67.8560028 0-123.0619965 55.2059975-123.0619965 123.0619965 0 67.8570099 55.2050018 123.0619965 123.0619965 123.0619965 3.1459961 0 6.2660065-.1199951 9.3529968-.3529968-63.5039978-4.7950134-113.7080078-57.9989929-113.7080078-122.7089996-.0009919-64.7099955 50.20401-117.913994 113.7080078-122.708996z"/><path d="m301.6279907 423.1270142c1.4249878.8250122 2.7720032 1.8349915 3.9830017 3.0660095 7.243988 7.3670044 7.1430054 19.2109985-.223999 26.45401l-54.9790039 54.0559998c-1.1450043 1.125-2.4170074 2.0509949-3.7619934 2.8179932 7.0930023 4.0450134 16.4299927 3.1200256 22.4679871-2.8179932l54.9790039-54.0559998c7.3670044-7.2430115 7.4670105-19.0870056.223999-26.45401-6.1089783-6.2150269-15.4809876-7.23703-22.6889954-3.0660095z"/><path d="m256 0c-3.1399994 0-6.2570038.101-9.3529968.28 84.1490173 4.8610001 151.1219788 74.8499985 151.1219788 160.1959991 0 80.628006-59.7739868 147.5470123-137.3330078 158.798996-2.5480042.3699951-4.4360046 2.5570068-4.4360046 5.1329956v116.4880066c0 9.7520142 11.7529907 14.6789856 18.7070007 7.8420105v-128.8829968c79.70401-9.2969971 141.7680054-77.2210083 141.7680054-159.3789978.0000304-88.4870148-71.9889833-160.4760132-160.4749757-160.4760132z"/></g></svg>