<svg id="Capa_1" enable-background="new 0 0 512 512" height="512" viewBox="0 0 512 512" width="512" xmlns="http://www.w3.org/2000/svg"><path d="m416.4530029 160.4530029c0-88.4740066-71.9790039-160.4530029-160.4530029-160.4530029s-160.4530029 71.9789963-160.4530029 160.4530029c0 82.1480103 62.0559998 150.0620117 141.7489929 159.3580017v98.901001h-27.8630066c-10.3300018 0-18.7039948 8.3739929-18.7039948 18.70401 0 10.3299866 8.3739929 18.70401 18.7039948 18.70401h27.8630066v37.1759949c0 10.3299866 8.375 18.7039795 18.7039948 18.7039795 10.3300018 0 18.7039948-8.3739929 18.7039948-18.70401v-37.1759949h27.8640137c10.3299866 0 18.70401-8.375 18.70401-18.70401 0-10.3299866-8.3739929-18.70401-18.70401-18.70401h-27.8640137v-98.901001c79.6930236-9.2949829 141.7490233-77.2099762 141.7490233-159.3579712zm-283.4980011 0c0-67.8470001 55.197998-123.0449982 123.0449982-123.0449982 67.8479919 0 123.0449829 55.197998 123.0449829 123.0449982 0 67.8479919-55.197998 123.0449829-123.0449982 123.0449829s-123.0449829-55.1969909-123.0449829-123.0449829z" fill="#ff94d4"/><g fill="#ff73c6"><path d="m246.647995 37.762001c-3.0870056-.2330017-6.2059937-.3530006-9.352005-.3530006-67.8470001 0-123.0449982 55.1980019-123.0449982 123.0449982 0 67.8480072 55.197998 123.0449982 123.0449982 123.0449982 3.1459961 0 6.2649994-.1199951 9.352005-.3529968-63.4949951-4.7940063-113.6930084-57.9909973-113.6930084-122.6920013.0000152-64.7010003 50.1980133-117.8979989 113.6930084-122.6919977z"/><path d="m256 493.29599c0 6.9190063-3.7669983 12.9460144-9.352005 16.1809998 3.2440033 1.8789978 7.0919952 2.8319702 11.1959991 2.4330139 9.6499939-.9389954 16.8599854-9.3439941 16.8599854-19.0400085v-36.75h-13.5090027c-2.868988 0-5.1959991 2.3259888-5.1959991 5.1960144v31.9799804z"/><path d="m256 0c-3.1399994 0-6.2559967.101-9.352005.28 84.1380157 4.8600001 151.1009979 74.8389969 151.1009979 160.1730042 0 80.6170044-59.7659912 147.5269775-137.3139954 158.7769775-2.5480041.3699939-4.4349975 2.5570056-4.4349975 5.1319873v89.1539917c0 2.868988 2.3259888 5.1960144 5.1960144 5.1960144h13.5090027v-98.901001c79.6940002-9.2950134 141.75-77.2099915 141.75-159.3580017-.0020142-88.4739761-71.9810181-160.4529724-160.4550171-160.4529724z"/><path d="m302.5679932 418.7120056h-18.70401c10.3299866 0 18.70401 8.3739929 18.70401 18.70401 0 10.3299866-8.3739929 18.70401-18.70401 18.70401h18.70401c10.3299866 0 18.70401-8.375 18.70401-18.70401 0-10.3300171-8.375-18.70401-18.70401-18.70401z"/></g></svg>